<svg xmlns="http://www.w3.org/2000/svg"><svg><symbol viewBox="0 0 16 16" id="icon-HorizontalDots"><path d="M4 8a2 2 0 1 1-4 0 2 2 0 0 1 4 0z"/><path d="M10 8a2 2 0 1 1-4 0 2 2 0 0 1 4 0z"/><path d="M16 8a2 2 0 1 1-4 0 2 2 0 0 1 4 0z"/></symbol></svg><svg><symbol viewBox="0 0 16 16" id="icon-Filter"><path d="m0 2.5 6 6V16l4-2V8.5l6-6v-1H0v1z"/></symbol></svg><svg><symbol id="icon-Burger" viewBox="0 0 16 16"><path d="M14 4.5a.546.546 0 0 0-.126-.354.4.4 0 0 0-.303-.146H2.43a.4.4 0 0 0-.303.146A.545.545 0 0 0 2 4.5c0 .133.045.26.126.354A.4.4 0 0 0 2.429 5H13.57a.4.4 0 0 0 .303-.146A.546.546 0 0 0 14 4.5zM13.571 8a.4.4 0 0 1 .303.146c.08.094.126.221.126.354 0 .133-.045.26-.126.354a.4.4 0 0 1-.303.146H2.43a.4.4 0 0 1-.303-.146A.545.545 0 0 1 2 8.5c0-.133.045-.26.126-.354A.4.4 0 0 1 2.429 8H13.57zm0 4a.4.4 0 0 1 .303.146c.08.094.126.221.126.354 0 .133-.045.26-.126.354a.4.4 0 0 1-.303.146H2.43a.4.4 0 0 1-.303-.146A.545.545 0 0 1 2 12.5c0-.133.045-.26.126-.354A.4.4 0 0 1 2.429 12H13.57z"/></symbol></svg></svg>