<svg id="Layer_1" data-name="Layer 1" xmlns="http://www.w3.org/2000/svg" viewBox="0 0 300 300"><path d="M64.7,70.4a25.5,25.5,0,0,0,.3-6.8s.8-42.7.9-46.9c0-.4,0-.8-.3-1-2.9-1.9-5.8-3.8-8.8-5.6-.2-.2-.5.1-.7.3l-.1.1C46.7,27,5.3,100.1,4.1,102c-.2.4-.3,1.4.1,1.7,1,.8,6.4,5.3,8.2,6.7a.3.3,0,0,0,.4,0c.3.2.6.2,1.2.1.9-.1,43-32.9,44-33.5C60.8,75.2,64.2,73,64.7,70.4ZM12.9,107.9c-2.5-1.9-4.8-3.8-7.1-5.8,7.9-14,50-89,50.7-89.7.6.2,7.7,4.9,7.7,4.9C56.1,31.5,13.4,106.6,12.9,107.9Zm282.2,83.3a83.06,83.06,0,0,0-20.9-46.3c-.2-.2-5.8-7.1-8-5.5a2.336,2.336,0,0,0-.7.7c-.5-1.9-1.4-5.7-1.4-5.7-4.1-17-8.3-34.3-15.6-50-.1-.3-2.7-5.8-4.7-7.4a7.918,7.918,0,0,0-2.8-1.3l-.9-.3a59.254,59.254,0,0,1-10.1-5c-1.6-.9-11.8-7.4-15.6-9-4.7-2-15.5-2-15.6-2a2.1,2.1,0,0,0-.4-1.1c-1.3-2-11.4-.4-11.4-.4.1-.2,0-.3,0-.3-2.6-2.8-32.2-35-33.8-36.2-2.4-1.8-4.4.1-6.3,1.8-.4.3-113.3,90.1-113.8,90.5-2.2,1.6-4.8,3.5-5,6-.1.2-.7,10,.7,12.3a16.218,16.218,0,0,0,2.5,2.8c.5.5,90.1,99.1,94.6,103.9a.367.367,0,0,0,.3.1c.6.7,1.5.8,2.9-.2,3.5-2.4,73.8-61.3,73.8-61.3-5.3,12.4-40.4,93.3-41.3,95.5-.2.4-.4,1.4.1,1.7,1.4,1,7.1,5.3,8.5,6.3a.367.367,0,0,0,.3.1c1,1,1.8-.4,2.3-1.3a.758.758,0,0,0,.2-.4c2.3-3.1,34.3-46.5,35.4-49.7.7-2,7.3-49.7,7.9-53.8a1.653,1.653,0,0,0-.1-1.8c-1.5-.9-5.1-3-5.5-3.2,2.5-2.1,13.4-11,16.3-13.4a92.568,92.568,0,0,1,7.9,8.6,6.62,6.62,0,0,0-2.9,1.2c-2.7,2.5-.8,6.6.6,9.3.1.2.2.3.2.5,5,10.3,7.2,22.6,8.5,33.8,3.3,26.5-.3,53.4-9.4,78.5-.3,1.4.9,3,1.6,1,12.1-33.5,14.9-71.4,4.4-105.7a89.388,89.388,0,0,0-3.7-9.8c-.7-1.6-3.1-4.8-.3-5.3.5-.1,1.1-.2,1.8-.4a46.2,46.2,0,0,0,11.4-5.5,63.106,63.106,0,0,0,15.5-15c.4-.6,4.1-10.9,6.9-4.8,0,.1.1.1.2.2s.1.1.1.2a78.6,78.6,0,0,1,23.7,48.4C293.7,194.5,295.2,192.3,295.1,191.2ZM213.3,89.7c2.8,4.8,2.5,10,1.8,15.3a6.206,6.206,0,0,1-4.4-1c-2.8-1.7-8.4-8.7-9-9.4-2.1-2.6-8.9-12.1-10.5-14.1,1.5-1.5,5.3-5,5.8-5.4,0,0,.7-.6,1-.8A43.411,43.411,0,0,1,213.3,89.7ZM192.5,59.6a11.682,11.682,0,0,1,3.7-.2c2.2.3.9,1.3-.4,2.3-.4.3-11.6,11.3-11.7,11.5-6.2-5-15.5-9.7-18.5.1-1.6,5.1.3,10.6,3.5,15.6-2,2.2-27.5,30.5-28.9,31.2-2.6,1.4-6.7-5.1-9-8.7-.5-.8-28.8-38.1-30.4-40.2,8-1.1,16-2.2,24-3.4C146.8,64.6,191.8,59.7,192.5,59.6Zm19.9,88c-10.2,8.1-20.5,16.3-30.7,24.4-1.7-2-28-32.7-39.2-45.9a5.5,5.5,0,0,0-.7-.9,1.756,1.756,0,0,0-.4-.5c5.5.2,47.7,1.5,53.9,1.7a.588.588,0,0,0,.5-.2v.1C197,129.9,203.3,144.9,212.4,147.6Zm-125.9-27c-3.1-.1-41-1.3-47.2-1.5a3.327,3.327,0,0,1,1-1.1c.1-.1,56.2-44.7,57.6-45.8C94.1,88.4,90.4,104.4,86.5,120.6Zm41.5,1.3c-13.4-.4-26.7-.9-40-1.3,3-12.7,6-25.3,9-38C97,82.6,123.3,115.9,128,121.9Zm7.3,2.6c-.4.3-47.2,35.3-54.8,41,0,0-39.6-43-40.4-44C55.7,122,122.6,124.1,135.3,124.5Zm2.4.7a4.331,4.331,0,0,0,.5-.1,78.93,78.93,0,0,0,0,8.5c-.5.3-45.4,35.5-50.6,39.6l-5.9-6.4C89.4,161.1,135.8,125.9,137.7,125.2Zm.4,10.8a2.7,2.7,0,0,0,.7-.8c6,7.4,29.3,36.1,35,43.1-8.2,6.5-40.8,32.3-44,34.8a2.651,2.651,0,0,0-.6.5c-1.2,1.1-2.2,1.9-4,.8-1.2-.7-31.3-34.3-36.4-39.9C88.8,174.5,134.8,139.2,138.1,136Zm3-13.8c5.2-4.3,27-22.4,32.5-27,1.8,2.2,3.6,4.2,5.2,6a27.293,27.293,0,0,0,2.2,2.4c1.1,1.3,2.3,2.6,3.5,3.9a61.928,61.928,0,0,1,7,8.5,43.469,43.469,0,0,1,3.6,7.9C177.1,123.3,159.1,122.8,141.1,122.2ZM102.2,68.8c1.4-1.1,42.6-34,43.1-34.5a13.5,13.5,0,0,1,3.6-2.7c1.9-.6,3.4,1.2,4.6,2.7.3.4,22.7,24.3,22.7,24.3C163.8,60.1,102.2,68.8,102.2,68.8Zm20.5,153.5c-.3-.4-86.7-95-90.9-99.7-2-2.2-2.9-3.2-.3-5.2,14.4-11.5,115.5-92.5,118-93.8,3.1-1.5,6.8,3.1,9.4,6.3.7.9,26,28,26,28-2.1.1-4.1.3-6.2.5-2.5-2.7-24.8-26.5-25-26.8-1.3-1.5-2.5-2.9-4.6-1.9A9.629,9.629,0,0,0,146,32c-.4.3-102.3,81.2-102.9,81.6-2.3,1.6-5,3.6-5.1,6.1-.3.7-.2,1.7.3,1.7l7.3,8.6c1.3,1.2,77.8,85.5,79.2,86.5,2.7,2,6.4-1.5,9-4,.4-.6,79.1-63,80-63.7l.2-.2c1.3.7,5,2.9,5.6,3.2-17.7,13.8-88,71-91.3,72.7C125.6,225.9,124.2,224.2,122.7,222.3ZM215,175.4c-6.8,15.7-44.2,100.7-44.8,102.6-1.2-.9-6.1-4.5-7.3-5.4,6.8-15.8,43.3-100.8,44.1-101.9a6.242,6.242,0,0,0,1.6,1S214.1,174.9,215,175.4Zm-6-5.8a17.394,17.394,0,0,1-1.8-1.1c-.3-.2-.6.1-.8.4l-2.1,4.8c-.1,0-72.4,59.9-72.8,60.3,0,0-2.5,2.6-3.4,2.7-1.7.3-1.7-1.1-1.6-2.4v-7c1.4-.1,2.7-1.2,4-2.3.4-.3,90.5-72.1,90.8-72.3a44.647,44.647,0,0,1,4.3,3.3C223.1,158,212,167.1,209,169.6Zm54-25.7c-4.1,8.7-21.7,19.7-24.2,20.7a15.6,15.6,0,0,1-1.6.5,13.655,13.655,0,0,1-1.9-2.3c-2.6-5.6-15.2-14.1-18.6-15.9a80.209,80.209,0,0,1-7-4.1c-7.5-5.3-11.4-12.7-14.3-21.2-1.5-4.3-2.8-7.6-5.8-11.1-1.8-2.1-3.8-4.2-5.8-6.4-6.2-6.8-12.7-13.9-16-22.2-1.4-3.6-2.6-8.1,1-10.6a6.213,6.213,0,0,1,6-1c.9.3,1.8.7,2.7,1.1,2,1,3.6,5.6,4.4,7.5a2.544,2.544,0,0,1,.2.7,1.234,1.234,0,0,1-.4.8c-1.2,1.6-5.4,4.9-6.1,5-2.6.3-7.7-6.5-8-6.8A17.4,17.4,0,0,0,172,85a8.32,8.32,0,0,0,3.1,1.8,2.769,2.769,0,0,0,1.3-.1,16.036,16.036,0,0,0,3.8-2.3c2.7-2.4,4.4-4.1,2.4-7.5a37.205,37.205,0,0,0-2.8-3.7,11.408,11.408,0,0,0-1.1-1.1C184,75,201.3,98.2,207.1,104c4.3,4.3,7.8,4.5,12.8,1.1.7-.5.7-3.1-.3-2.4a19.377,19.377,0,0,1-3.1,1.7c.6-4.7,1.1-10-.8-14.4-3.1-7.1-9.5-13.8-16.2-17.9.3-1-.6-8.2-1-9.9,5.2-.2,10.8,0,15.6,2.1a99.884,99.884,0,0,1,10,5.8c2,1.2,4,2.5,6,3.6a67.589,67.589,0,0,0,7.1,3.6c.6.2,1.3.4,1.9.6a13.434,13.434,0,0,1,3.2,1.4c2.1,1.6,3.6,4.9,4.8,7.6.3.6.5,1,.7,1.5,6.8,15.8,11,32.9,15.1,49.7.3,1.4.7,2.7,1,4.1C263.6,142.9,263.2,143.4,263,143.9ZM49.9,179.3c-.4-.3-.8.4-.9.7-.6,2.4-8,32.4-11.2,44.9,0,.2-.1.4-.1.7v7.5c0,.3.1,1.1.6.9,7.8-3.2,38.9-16,46.7-19.2.5-.2.6-.9.6-1.4.1-1.1.2-4.9.2-5.8.1-.5.1-1.1-.2-1.3ZM39.3,224c.4-1.9,7.3-30,10.4-42.1L83,207.1Q61.25,215.5,39.3,224Z" style="fill:#b2b7c7;fill-rule:evenodd"/></svg>