<svg xmlns="http://www.w3.org/2000/svg"><svg><symbol viewBox="0 0 17 12" id="icon-videoCall"><path fill-rule="evenodd" clip-rule="evenodd" d="M11.05 12h-8.5C1.144 12 0 10.846 0 9.429V2.57C0 1.154 1.144 0 2.55 0h8.5v12zM2.55.857c-.937 0-1.7.769-1.7 1.714V9.43c0 .945.763 1.714 1.7 1.714h7.65V.857H2.55zM17 11.143h-1.055l-2.673-3.534a2.586 2.586 0 0 1 .006-3.124l2.78-3.628H17v10.286zm-.85-9.004-2.197 2.87a1.722 1.722 0 0 0-.007 2.08L16.15 10V2.14z"/></symbol></svg><svg><symbol viewBox="0 0 16 16" id="icon-unpin"><path d="m1.856.19-.707.707L5.532 5.28a3.005 3.005 0 0 0-1.373.385l-1.596.918 2.973 2.971L.39 14.7l-.25.956.957-.249 5.145-5.146 2.972 2.972.917-1.593c.249-.432.363-.906.38-1.38l4.64 4.64.707-.708L1.856.19zm7.409 10.95-.267.462-4.805-4.805.465-.266c.764-.44 1.783-.314 2.406.31l1.89 1.888c.637.635.764 1.626.31 2.41zm1.196-9.096 3.296 3.297-2.48 1.443.732.73 3.372-1.963-5.14-5.14L8.3 3.805l.733.733 1.428-2.495z"/></symbol></svg><svg><symbol viewBox="0 0 16 16" id="icon-thinPlus"><path fill-rule="evenodd" clip-rule="evenodd" d="M8 1.998H7V7H2.007v1H7v5.002h1V8h5.004V7H8V1.998z"/></symbol></svg><svg><symbol viewBox="0 0 16 16" id="icon-plus"><path fill-rule="evenodd" clip-rule="evenodd" d="M8.5 2h-1v5.5H2v1h5.5V14h1V8.5H14v-1H8.5V2z"/></symbol></svg><svg><symbol viewBox="0 0 16 16" id="icon-pin"><path d="M10.757 8.613 16 5.55 10.47 0 7.465 5.269a2.654 2.654 0 0 0-2.851-.118L2.388 6.44l3.281 3.292L0 15.423V16h.686L6.3 10.367l3.226 3.237 1.29-2.24-.001.002a2.68 2.68 0 0 0-.058-2.753zm-.092-7.151 3.885 3.899-4.375 2.557-2.029-2.035 2.519-4.421zm-.622 9.456-.707 1.227-5.493-5.512 1.231-.715c.258-.149.563-.232.871-.232.471 0 .934.193 1.269.529l2.54 2.546c.57.575.69 1.462.289 2.157z"/></symbol></svg><svg><symbol viewBox="0 0 20 14" id="icon-personSettings"><path d="M2 4h1v5H2z"/><path d="M5 6v1H0V6z"/><path d="M13.5 6c-1.632 0-2.96-1.346-2.96-3s1.328-3 2.96-3 2.96 1.346 2.96 3-1.328 3-2.96 3zm0-5c-1.09 0-1.974.896-1.974 2s.884 2 1.974 2c1.09 0 1.974-.896 1.974-2s-.885-2-1.974-2zM20 14H7l1.003-3.775C8.35 8.915 9.522 8 10.854 8h5.293c1.332 0 2.504.915 2.851 2.225L20 14zM8.287 13h10.424l-.67-2.516A1.975 1.975 0 0 0 16.146 9h-5.293c-.885 0-1.666.61-1.897 1.484L8.287 13z"/></symbol></svg><svg><symbol viewBox="0 0 24 24" id="icon-contact"><path d="M20.5 21h-17l1.84-6.775A3.035 3.035 0 0 1 8.267 12h7.465c1.367 0 2.57.915 2.927 2.225L20.5 21zM4.82 20h14.36l-1.5-5.517A2.02 2.02 0 0 0 15.732 13H8.267c-.909 0-1.71.61-1.948 1.483L4.819 20zM12 10c-1.957 0-3.548-1.57-3.548-3.5S10.043 3 11.999 3c1.957 0 3.548 1.57 3.548 3.5S13.956 10 12 10zm0-6c-1.397 0-2.535 1.121-2.535 2.5C9.465 7.878 10.603 9 12 9c1.397 0 2.535-1.122 2.535-2.5 0-1.379-1.138-2.5-2.535-2.5z"/></symbol></svg><svg><symbol viewBox="0 0 22 22" id="icon-client"><path d="M5.5 5.326c0-.501.165-.952.494-1.353.33-.416.745-.695 1.246-.838L14.674 1.2v1.934h.902V.02L6.961 2.21a3.198 3.198 0 0 0-1.719 1.161 3.107 3.107 0 0 0-.666 1.955v1.848H.924V21.74h.902V8.076h2.75v13.75h7.348v-.902H5.5V5.326zm10.076 0c-.745 0-1.454.15-2.127.451-.673.287-1.26.68-1.761 1.182a5.448 5.448 0 0 0-1.16 1.74 5.157 5.157 0 0 0-.452 2.127c0 .516.065 1.003.194 1.461a5.7 5.7 0 0 0 .537 1.29l4.77 8.25 4.769-8.25c.229-.402.408-.832.537-1.29.129-.458.193-.945.193-1.46 0-.746-.143-1.455-.43-2.128a5.277 5.277 0 0 0-1.181-1.74 5.589 5.589 0 0 0-1.74-1.182 5.207 5.207 0 0 0-2.149-.45zm3.953 7.799L15.576 20l-3.931-6.875a4.24 4.24 0 0 1-.495-1.117c-.1-.373-.15-.766-.15-1.182 0-.616.122-1.203.365-1.762a4.47 4.47 0 0 1 .967-1.439c.415-.43.902-.766 1.461-1.01a4.414 4.414 0 0 1 1.783-.365c.645 0 1.246.122 1.805.365a4.41 4.41 0 0 1 1.46.967c.416.415.738.902.968 1.461.243.559.365 1.153.365 1.783 0 .415-.05.81-.15 1.182-.1.372-.265.745-.495 1.117zm-3.953-3.201a.901.901 0 0 0-.666.258c-.157.157-.236.372-.236.644 0 .287.079.516.236.688.172.157.394.236.666.236.287 0 .509-.079.666-.236.172-.172.258-.401.258-.688 0-.272-.086-.487-.258-.644-.157-.172-.38-.258-.666-.258z"/></symbol></svg><svg><symbol id="icon-chatBot" x="0" y="0" viewBox="0 0 24 24"><path class="st0" d="M10 4c0-1.1.9-2 2-2s2 .9 2 2-.9 2-2 2-2-.9-2-2zm2 1c-.6 0-1-.4-1-1s.4-1 1-1 1 .4 1 1-.4 1-1 1z"/><path class="st0" d="M9.5 11C8.1 11 7 12.1 7 13.5S8.1 16 9.5 16h5c1.4 0 2.5-1.1 2.5-2.5S15.9 11 14.5 11h-5zm0 1c-.8 0-1.5.7-1.5 1.5S8.7 15 9.5 15h5c.8 0 1.5-.7 1.5-1.5s-.7-1.5-1.5-1.5h-5z"/><path class="st1" d="M16 19v-1c0-.3-.2-.5-.5-.5s-.5.2-.5.5H9c0-.3-.2-.5-.5-.5s-.5.2-.5.5v1h8z"/><path class="st0" d="M12 6c3.9 0 7 3.1 7 7v9H5v-9c0-3.9 3.1-7 7-7zm6 7v8H6v-8c0-3.3 2.7-6 6-6s6 2.7 6 6z"/><path class="st1" d="M3 13.5c0-.3.2-.5.5-.5s.5.2.5.5v4c0 .3-.2.5-.5.5s-.5-.2-.5-.5v-4z"/><path class="st1" d="M20.5 13c-.3 0-.5.2-.5.5v4c0 .3.2.5.5.5s.5-.2.5-.5v-4c0-.3-.2-.5-.5-.5z"/></symbol></svg><svg><symbol viewBox="0 0 16 16" id="icon-addresseeBold"><path fill-rule="evenodd" clip-rule="evenodd" d="M5.026 4a3.007 3.007 0 0 0 6.012 0 3.007 3.007 0 0 0-6.012 0zm1.002 0a2.004 2.004 0 0 1 4.009 0c0 1.104-.899 2-2.005 2a2.003 2.003 0 0 1-2.004-2zm7.563 11h1.041l-1.017-3.775A3.005 3.005 0 0 0 10.72 9H5.345a3.005 3.005 0 0 0-2.895 2.225L1.432 15h1.04l.268-1h-.001l.103-.384.166-.62h.002l.407-1.512A2 2 0 0 1 5.343 10h5.375a2 2 0 0 1 1.926 1.484l.68 2.516h-.003l.27 1z"/></symbol></svg><svg><symbol viewBox="0 0 24 24" id="icon-addressee"><path fill-rule="evenodd" clip-rule="evenodd" d="M19.97 21H21l-1.93-6.775A3 3 0 0 0 16.182 12H7.818a3 3 0 0 0-2.888 2.225L3 21h1.037l.528-1.992h.003l1.328-4.525A1.998 1.998 0 0 1 7.818 13h8.364c.897 0 1.688.61 1.922 1.483l1.387 4.749L19.97 21zM8.5 6.5c0 1.93 1.57 3.5 3.5 3.5s3.5-1.57 3.5-3.5S13.93 3 12 3 8.5 4.57 8.5 6.5zm1 0C9.5 5.121 10.622 4 12 4s2.5 1.121 2.5 2.5C14.5 7.878 13.378 9 12 9a2.503 2.503 0 0 1-2.5-2.5z"/></symbol></svg><svg><symbol viewBox="0 0 16 16" id="icon-add"><path d="M7 7V2h2v5h5v2H9v5H7V9H2V7h5z"/></symbol></svg></svg>