<svg xmlns="http://www.w3.org/2000/svg" width="24" height="24" viewBox="0 0 21 20" fill="none">
    <path d="M11.4846 17H10.4846C9.83363 17 9.28363 17.42 9.07663 18H5.98463V19H9.07663C9.28363 19.58 9.83363 20 10.4846 20H11.4846C12.3116 20 12.9846 19.327 12.9846 18.5C12.9846 17.673 12.3116 17 11.4846 17ZM11.4846 19H10.4846C10.2096 19 9.98463 18.775 9.98463 18.5C9.98463 18.225 10.2096 18 10.4846 18H11.4846C11.7596 18 11.9846 18.225 11.9846 18.5C11.9846 18.775 11.7596 19 11.4846 19ZM19.4666 9.019L18.9476 8.719C18.9726 8.472 18.9846 8.226 18.9846 7.982C18.9846 3.581 15.3956 0 10.9846 0C6.57363 0 2.98463 3.581 2.98463 7.982C2.98463 8.225 2.99663 8.471 3.02063 8.718L2.50163 9.018C1.32763 9.696 0.750628 11.077 1.09963 12.376L1.47963 13.787C1.82963 15.088 3.02063 16 4.37563 16H5.89363L4.23063 9.789C4.06663 9.18 3.98463 8.572 3.98463 7.982C3.98463 4.131 7.12563 0.998 10.9846 0.998C14.8436 0.998 17.9846 4.132 17.9846 7.982C17.9846 8.572 17.9026 9.179 17.7396 9.789L16.0786 16H17.5936C18.9486 16 20.1406 15.088 20.4906 13.788L20.8696 12.376C21.2176 11.077 20.6406 9.696 19.4666 9.019ZM4.58863 14.998H4.37663C3.47263 14.998 2.67863 14.394 2.44563 13.529L2.06663 12.119C1.83463 11.254 2.21863 10.334 3.00263 9.882L3.18463 9.777L4.58863 14.998ZM19.9026 12.118L19.5246 13.529C19.2916 14.394 18.4976 14.998 17.5916 14.998H17.3826L18.7116 10.048L18.7806 9.776L18.9666 9.882C19.7506 10.334 20.1346 11.254 19.9026 12.118Z" fill="black"/>
</svg>