<svg xmlns="http://www.w3.org/2000/svg" id="Layer_1" data-name="Layer 1" viewBox="0 0 165 165">
    <defs>
        <style>
            .cls-1 {
                fill: #b2b7c7;
            }
        </style>
    </defs>
    <path class="cls-1" d="M26.585,51.2c-3.531-7.4-3.395-16.089-1.357-24.036A34.932,34.932,0,0,1,32.154,12.9,30.269,30.269,0,0,1,47.84,3.6a44.213,44.213,0,0,1,18.4-.272c5.7,1.087,11.547,3.192,15.347,7.606a2.29,2.29,0,0,1,.407.679.919.919,0,0,1,.068.339q-.015.033-.033.066a.875.875,0,0,1-1.189.342,3.121,3.121,0,0,1-1.087-1.019C76.63,7.407,71.605,5.3,66.58,4.623,49.672,2.382,30.931,6.32,26.107,31.239c-3.328,17.251,7.944,27.572,12.426,30.9a51.694,51.694,0,0,0,8.556,5.092c1.355.679,2.855,1.426,3.055,2.852a3.725,3.725,0,0,1-.271,1.9c-.611,2.1-1.358,4.074-2.173,6.111a27.706,27.706,0,0,0,7-5.229A5.866,5.866,0,0,1,56.8,71.1a6.59,6.59,0,0,1,2.58-.34A22.011,22.011,0,0,0,70.11,68.248c.275-.136.275-.475.475-.611a.857.857,0,0,1,.815.068c.544,1.018-.814,1.9-1.9,2.308a35.75,35.75,0,0,1-9.982,2.038,6.2,6.2,0,0,0-2.241.407,5.842,5.842,0,0,0-1.765,1.426c-1.7,1.765-5.91,5.907-8.556,5.907s.747-6.584,1.154-8.284a3.1,3.1,0,0,0,.068-1.358c-.2-.679-.95-1.018-1.562-1.358C38.468,64.853,30.523,59.353,26.585,51.2ZM64.747,34.432c-1.087,2.1,2.376,2.648,4.006,1.9,1.29-.611,2.309-2.24,1.426-3.259C70.043,32.87,66.58,30.7,64.747,34.432ZM47.23,33.074c-2.311,2.445,1.424,4.753,3.8,3.463l.136-.068a2.819,2.819,0,0,0,.611-4.278C50.419,30.562,48.45,31.852,47.23,33.074Zm9.776-.2a2.617,2.617,0,0,0-.2,3.531c1.426,1.7,5.228-.815,5.093-2.716a1.534,1.534,0,0,0-1.087-1.358A3.4,3.4,0,0,0,57.006,32.87Zm76.119,26.415a4.812,4.812,0,0,0-3.667,2.308c-.2.34.2.612.544.612a1.293,1.293,0,0,0,1.154-.476c.272-.407,1.494-1.833,1.969-.95a3.569,3.569,0,0,1,.408,2.037v.068c-.068.271,1.493.339,1.7-.272a4.456,4.456,0,0,0-.068-1.358,1.138,1.138,0,0,0,1.222-.136c.269-.339.405-.679.065-.951A5.241,5.241,0,0,0,133.125,59.285ZM120.02,84.477c.136,2.1,1.562,7.469,1.765,8.624a.746.746,0,0,1-.068.339c-2.24,4.006-9.167,7.877-14.87,8.352,0,0-6.315.136-5.3-7.605a65.323,65.323,0,0,0-8.759,20.71c0-.339,9.1-10.8,9.71-11.475a.862.862,0,0,1,1.217-.073l0,0s8.284,9.846,11.408,15.21c2.852-5.7,6.586-11.34,11.34-15.074a50.644,50.644,0,0,0-3.6-8.081c0-.068,0-.136.068-.136l.135.068a29.629,29.629,0,0,1,5.093,7.4,62.181,62.181,0,0,1,6.111,15.889c4.21,18.13,9.643,21.525,11.272,23.7a91.844,91.844,0,0,1,8.488,13.106c.068.135,1.29,2.716.408,4.345a2.836,2.836,0,0,1-2.173,1.291c-.611.068-9.71,1.426-13.513,1.426A50.518,50.518,0,0,1,119,158.627c-.068-.068-.136-.136-.136-.2v-.2c.068-.068,3.6-7.538,1.766-11.612a4.041,4.041,0,0,0-2.716-2.308l-9.235-2.92a38.909,38.909,0,0,0-4.346-.679c-1.7-.136-11.408-1.766-15.346,3.123,0,.068-1.833,2.988,1.222.543,1.29-1.018,3.056-1.765,6.315-2.172,0,0,.815.746-.271,1.222-.747.407-5.229,3.327-5.3,5.975h1.155c0-.611.068-2.376,5.092-4.549.2-.136,2.105-.747,1.834-.543a15.932,15.932,0,0,0-2.513,1.629c-.271.272-.747.747-.679.883.34.407,4.821-1.426,4.957-1.29s-4.413,2.308-5.093,3.8h1.223c.95-.475,4.821-2.24,7.673-2.037,3.463.272,10.389,2.037,14.056,6.655l.068.068v.068c.068.339-.408.611-.611.747a6.782,6.782,0,0,1-3.4,1.154H9.541c-.2,0-.815,0-.882-.34-.068-.271.407-.611.611-.747a7.55,7.55,0,0,1,3.666-.95H43.493L33.24,117.274c-.2-.611.814-.815,1.154-.815l44.069-.407a.606.606,0,0,1,.543.339c.408,1.223.747,2.513,1.155,3.735,2.308-3.8,10.253-16.3,16.093-22.951a10.183,10.183,0,0,1,5.5-3.26c.339-.611,1.222-2.444,1.426-6.586-.476,0-10.321-.951-14.939-11.747A49.078,49.078,0,0,1,72.623,66.89c-.747-.679,10.322-56.224,43.458-48.619,0,0,31.643-18.2,40.267,56.7C156.348,74.97,152.817,83.866,120.02,84.477Zm-31.983,66a.6.6,0,0,1-.543-.34L77.58,117.206l-42.3.34c.339,1.29,10.049,36.26,9.981,36.328H113.3a.261.261,0,0,0,.21-.3.236.236,0,0,0-.01-.038c-.136-.679-1.29-2.037-7.4-3.87a.307.307,0,0,1,0,.339,1.4,1.4,0,0,1-1.155.476Zm.069-3.869c.271.814.475,1.629.746,2.443a9.56,9.56,0,0,1,2.784-3.6,6.3,6.3,0,0,0-3.055,1.018A.985.985,0,0,1,88.106,146.608Zm2.24-5.908h0c4.618-2.988,15.754-1.63,17.519-1.358A109.863,109.863,0,0,1,115,119.175c-2.512-2.308-9.642-9.506-11.815-13.784-.34.272-9.507,9.031-9.778,9.3-.136.136-.408.475-.476.2A96.868,96.868,0,0,0,90.346,140.7Zm14.6-82.026v0a7.727,7.727,0,0,0,1.9,5.839,3.414,3.414,0,0,1-.136-.815v-.271a2.291,2.291,0,0,1,4.549,0,2.326,2.326,0,0,1-2.58,2.58,5.437,5.437,0,0,0,2.037.611h.543c3.328,0,6.179-2.92,6.519-6.654a7.711,7.711,0,0,0-2.852-6.791c-1.562-.339-3.191-.611-4.889-1.018A7.283,7.283,0,0,0,104.945,58.674Zm-4.072-8.761c1.561,1.7.95,6.178.95,6.382a4.381,4.381,0,0,1,1.629.339,9.561,9.561,0,0,1,3.667-5.092c-1.969-.476-4.006-1.019-6.111-1.7A.234.234,0,0,0,100.873,49.913Zm-12.767-.68a8.4,8.4,0,0,1,3.26-2.648c-.747-.272-1.426-.611-2.173-.883Zm3.327,12.36v0a2.8,2.8,0,0,1-.34-1.29V59.69a1.892,1.892,0,0,1,3.735.611,2.141,2.141,0,0,1-1.087,1.969h.543c3.056,0,5.5-2.716,5.84-6.654A7.765,7.765,0,0,0,97.883,48.9c-1.222-.408-2.376-.815-3.6-1.223-3.259.136-5.975,2.988-6.315,6.723A7.51,7.51,0,0,0,91.433,61.593Zm48.618-2.58v0a4.148,4.148,0,0,0-3.123-3.735c-2.309-.407-4.414,1.766-6.791,1.63a3.42,3.42,0,0,1,2.1-1.63c-4.685-.339-9.438-.882-14.124-1.629a11.012,11.012,0,0,1,1.63,4.821l6.723-.815c.475-.068,1.154,0,1.29.475.136.544-.476.951-1.019,1.087a25.271,25.271,0,0,1-7.062,1.222,9.9,9.9,0,0,1-3.4,5.976,7.769,7.769,0,0,1-6.587,1.7,8.2,8.2,0,0,1-4.956-3.667A11.233,11.233,0,0,1,103.1,58.4c-1.019,3.056-5.025,10.118-5.84,11.34-.543.747,2.309,1.358,2.309,1.358-.272.271-.883,1.018-1.29,1.086A7.489,7.489,0,0,1,95.7,70.965c-1.29-1.358.34-2.241,1.223-3.463a24.426,24.426,0,0,0,3.876-7.6,7.3,7.3,0,0,1-8.759,3.667,8.9,8.9,0,0,1-5.908-7.809c-.883,3.191-.2,6.518.611,9.71,1.969,7.877,5.636,17.383,14.4,19.828a27.307,27.307,0,0,0,7.469.543.335.335,0,0,1,.2.611,5.76,5.76,0,0,1-3.871.815c.408,3.463-5.228,12.7,1.7,12.7,6.315,0,12.562-5.365,13.173-7.062.2-.408-1.969-5.161-1.358-9.439a5.292,5.292,0,0,1,.272-1.426,3.5,3.5,0,0,1,1.222-1.222,27.832,27.832,0,0,0,8.284-9.506,4.218,4.218,0,0,1,2.1-2.445c1.019-.339,2.1.136,3.124.2A4.847,4.847,0,0,0,137,67.5a12.712,12.712,0,0,0,2.716-4.889A9.406,9.406,0,0,0,140.051,59.013ZM105.9,78.433a.937.937,0,0,0-1.154-.543c-3.667,1.358-5.093-.611-5.161-.679a.876.876,0,0,0-1.426,1.019,5.114,5.114,0,0,0,4.21,1.969,7.131,7.131,0,0,0,2.988-.611.88.88,0,0,0,.558-1.112ZM62.37,130.651c-.679.407-2.173,1.9-2.716,2.309s-9.439-7.062-9.778-6.587S55.036,138.528,54.9,139s-3.328,4.685-3.328,4.685c.747.136,8.42-6.247,9.439-6.926s4.21-6.654,3.8-6.858C64.339,129.7,63.049,130.244,62.37,130.651Zm40.606-14.939a1.342,1.342,0,0,0,1.222-1.358,1.284,1.284,0,0,0-.95-1.494,1.343,1.343,0,0,0-1.223,1.358C101.958,114.965,102.365,115.712,102.976,115.712Z"/>
</svg>