<svg xmlns="http://www.w3.org/2000/svg" width="25" height="25" viewBox="0 0 16 16">
    <path fill="black" fill-rule="evenodd" d="M10.2521436,6.48278127 L15.5935556,3.4395 L15.8335556,3.849 L0.390888889,12.647125 L0.15,12.2385 L6.32433238,8.72066045 C6.56315863,8.10885696 6.80266921,7.49705348 7.038,6.88525 C7.08511111,6.765375 7.09933333,6.620125 7.08333333,6.492375 C7.05755556,6.292 6.92511111,6.2115 6.72955556,6.2745 C6.582,6.320875 5.90911111,6.90625 5.70377778,7.125 C5.42555556,7.419875 4.99266667,8 4.47977778,7.95275 C4.102,7.918625 4.51711111,7.4225 4.60511111,7.327125 C5.01933333,6.87825 5.42288889,6.41625 5.87622222,6.0085 C6.74466667,5.225375 7.81666667,4.931375 8.96777778,4.894625 C10.0708889,4.85875 10.3571111,5.70925 10.2664444,6.404 C10.2631879,6.43071369 10.2576116,6.45677492 10.2521436,6.48278128 Z M9.88066667,1 C10.2993333,1.007875 10.6691111,1.13825 10.9873333,1.403375 C11.6442222,1.952 11.6833333,2.897875 11.0753333,3.498125 C10.4353333,4.129875 9.33311111,4.13425 8.69577778,3.498125 C8.30644444,3.109625 8.158,2.63975 8.31711111,2.11125 C8.48777778,1.5425 8.89933333,1.205625 9.47355556,1.05775 C9.60511111,1.023625 9.74466667,1.018375 9.88066667,1 Z M10.1686667,11.653125 C10.2131111,11.607625 10.5588889,11.467625 10.6451111,11.5525 C10.7766667,11.68375 10.5571111,12.151 10.4557778,12.2665 C9.54377778,13.306875 8.13044444,14.307 7.18466667,14.696375 C6.81933333,14.84775 5.99622222,15.002625 5.61311111,14.8985 C5.18911111,14.785625 4.54644444,14.211625 4.64777778,13.453875 C4.73133333,12.82825 4.95177778,12.24725 5.17844444,11.66625 L9.30111111,9.31775 C8.87,10.407125 8.43444444,11.49475 7.99977778,12.58325 C7.91,12.809 7.94111111,13.014625 8.09577778,13.131875 C8.27266667,13.264875 8.45933333,13.205375 8.606,13.09425 C8.90555556,12.864125 9.93488889,11.889375 10.1686667,11.653125 Z"/>
</svg>