<svg xmlns="http://www.w3.org/2000/svg" xmlns:xlink="http://www.w3.org/1999/xlink" version="1.1" id="Слой_1" x="0px" y="0px" viewBox="0 0 24 24" style="enable-background:new 0 0 24 24;" xml:space="preserve">
    <path d="M12.0936127,6.9812503c-1.0255003,0-2.0858498,0.2671399-2.8085203,1.0304399  c-0.6364098,0.6722097-0.8425493,1.5344-0.8425493,2.4356194h1.6382694c0-0.1582994,0-0.2993002,0-0.4684  c0-0.3565998,0.1127005-0.6967297,0.3277006-0.9836102c0.3853998-0.4958992,0.9401999-0.6557398,1.5446997-0.6557398  c0.7848997,0,1.7319002,0.5292902,1.7319002,1.40516c0,0.8453903-0.9078007,1.4282904-1.4979,1.9203901  c-0.3998003,0.4000998-0.7943001,0.8400002-1.0298004,1.3583002c-0.2116995,0.5296001-0.1403999,1.0056-0.1403999,1.5457001  h1.6850996c0-0.4867001,0.0105-0.9577999,0.2340002-1.4052c0.3223-0.5910997,0.9382-0.9387999,1.4042997-1.4050999  c0.6548004-0.5825005,1.1234007-1.0988007,1.1234007-2.0140905C15.4638128,7.9771004,13.7096128,6.9812503,12.0936127,6.9812503z   M11.0638123,15.3653097h1.8723001v1.6393995h-1.8723001V15.3653097z M12.0000124,2.99999  c-1.5290995,0-2.9489594,0.23419-4.2595997,0.70257C6.3985724,4.2021704,5.2283525,4.8579102,4.2297726,5.6697702  c-0.99858,0.8118701-1.7787199,1.7642498-2.34042,2.8571491c-0.5929099,1.0928907-0.889365,2.2482901-0.889365,3.4659901  c0.0312051,1.0616999,0.234045,2.0609007,0.608515,2.9977007c0.37446,0.9054995,0.9049599,1.7017994,1.59149,2.3887997  l-1.1702201,5.6205997l4.9617004-2.9976997c0.71773,0.3122997,1.4978795,0.5620995,2.3404298,0.7493992  c0.8425102,0.1562004,1.7007103,0.2342014,2.5745106,0.2342014c0,0,0.0155993,0,0.0467997,0c0.0311995,0,0.0467997,0,0.0467997,0  c1.5291004,0,2.9489002-0.2342014,4.2595015-0.7026005c1.3418999-0.4682999,2.5121002-1.1084995,3.5107002-1.9202995  c0.9986-0.8119011,1.778698-1.7643013,2.3403969-2.8572006c0.5929031-1.0929003,0.8894005-2.2637997,0.8894005-3.5129004  c0-1.2489996-0.2964973-2.41994-0.8894005-3.5128298c-0.5616989-1.0928993-1.3417969-2.0452795-2.3403969-2.8571396  c-0.9986-0.8118696-2.1688004-1.4519897-3.5107002-1.9203801C14.9489126,3.23418,13.5291128,2.99999,12.0000124,2.99999z   M12.0000124,20.0023098c-0.0311995,0-0.0623999,0-0.0935993,0c-0.8114004,0-1.6071005-0.0779991-2.3872805-0.2341995  c-0.7801399-0.1561012-1.5134697-0.3903008-2.1999998-0.7026005l-0.3744602-0.1872997l-0.4680901,0.2810001l-2.9957399,1.8267002  l0.7021198-3.3255005l0.0936203-0.468401l-0.3744702-0.3746986c-0.5616999-0.6245003-1.0141799-1.342701-1.35744-2.1546001  c-0.3432698-0.8431005-0.5149-1.7330008-0.5149-2.6698008c0-1.0928001,0.24965-2.1232901,0.74894-3.0912895  C3.3092027,7.93363,4.0269427,7.0905404,4.9319024,6.3723502s1.96596-1.2958598,3.1829801-1.7330198  c1.21702-0.40593,2.5120306-0.6089001,3.8851299-0.6089001c1.3730001,0,2.6681004,0.20297,3.8851004,0.6089001  c1.2169991,0.43716,2.2779999,1.0148296,3.1829987,1.7330198c0.9048996,0.7181902,1.6226997,1.5612798,2.1532021,2.5292697  c0.4991989,0.9679995,0.7488976,1.9984894,0.7488976,3.0912895c0,1.0929003-0.2496986,2.1389999-0.7488976,3.1382008  c-0.5305023,0.9679995-1.2483025,1.8110991-2.1532021,2.5292997c-0.9049988,0.7182007-1.9659996,1.2959003-3.1829987,1.7329998  C14.6681128,19.7994099,13.3730125,20.0023098,12.0000124,20.0023098z"></path>
</svg>