<svg xmlns="http://www.w3.org/2000/svg" xmlns:xlink="http://www.w3.org/1999/xlink" version="1.1" id="Слой_1" x="0px" y="0px" viewBox="0 0 24 24" style="enable-background:new 0 0 24 24;" xml:space="preserve">
    <path d="M4.5468798,19.9979h14.9062204c0.4375,0,0.7968998-0.1408005,1.0781002-0.4221992  C20.8437996,19.2630005,21,18.8876991,21,18.4498997V2.5479701C21,2.1101601,20.8437996,1.75053,20.5312004,1.46908  C20.25,1.15636,19.8906002,1,19.4531002,1H4.5468798C4.1093798,1,3.73438,1.15636,3.42188,1.46908  C3.14062,1.75053,3,2.1101601,3,2.5479701v18.9040298c0,0.4377995,0.14062,0.7975006,0.42188,1.0788994  C3.73438,22.8435993,4.1093798,23,4.5468798,23H21l-0.9843998-0.9850998H4.5468798  c-0.1562595,0-0.2968798-0.0468998-0.4218798-0.1406994c-0.09375-0.1251011-0.14062-0.2658005-0.14062-0.4222012v-1.5478992  c0.0937402,0.0312004,0.1874998,0.0625,0.2812402,0.0937996C4.3593798,19.9979,4.4531202,19.9979,4.5468798,19.9979z M12,1.98507  v7.3646097l-1.7343998-2.0170598l-0.74998-0.8443503l-0.75,0.8443503L6.9843798,9.3496799V1.98507H12z M3.98438,2.5479701  c0-0.1563601,0.04687-0.28145,0.14062-0.3752601C4.25,2.0476201,4.3906202,1.98507,4.5468798,1.98507H6v10.0384302  l3.5156202-4.0341606l3.4687796,4.0341606V1.98507h6.4687004c0.1562996,0,0.2812996,0.0625501,0.375,0.18764  c0.125,0.0938101,0.1875,0.2189,0.1875,0.3752601v15.9019299c0,0.1564007-0.0625,0.2971001-0.1875,0.4222012  c-0.0937004,0.0937996-0.2187004,0.1406994-0.375,0.1406994H4.5468798c-0.1562595,0-0.2968798-0.0468998-0.4218798-0.1406994  c-0.09375-0.1251011-0.14062-0.2658005-0.14062-0.4222012V2.5479701z"/>
</svg>