<svg xmlns="http://www.w3.org/2000/svg" width="25" height="25" viewBox="0 0 16 16" fill="none">
    <path fill="black" fill-rule="evenodd" clip-rule="evenodd" d="M8.91032,7.08967l-2.0604-0.24566l1.6616-1.24276L7.694,3.69402l1.9073,0.81753l1.24273-1.66162  l0.24567,2.06043L13.15,5.15601l-1.6616,1.24277L12.306,8.306l-1.90726-0.81753L9.15598,9.15006L8.91032,7.08967z M6.35139,2.35143  C6.21567,2.48715,6.17652,2.69154,6.25198,2.8681l1.03034,2.40375l-2.0944,1.56647c-0.1532,0.11499-0.2215,0.31162-0.172,0.49719  c0.0496,0.18563,0.20762,0.32163,0.39744,0.3443l2.59716,0.30966l0.30965,2.59716c0.0228,0.19251,0.16187,0.34878,0.34431,0.39744  c0.18557,0.04953,0.3822-0.0188,0.49719-0.172l1.56647-2.0944l2.40376,1.03034c0.1765,0.07546,0.3809,0.03631,0.5167-0.09941  c0.1357-0.13572,0.1749-0.34011,0.0994-0.51667l-1.0304-2.40375l2.0944-1.56647c0.1533-0.11499,0.2216-0.31163,0.172-0.4972  c-0.0495-0.18563-0.2076-0.32231-0.3974-0.3443l-2.5971-0.30965l-0.3097-2.59717c-0.0224-0.19016-0.1587-0.3479-0.3443-0.39744  c-0.1856-0.0496-0.38223,0.01879-0.49722,0.172L9.27187,3.28236L6.86806,2.25201C6.69153,2.17649,6.48717,2.21571,6.35139,2.35143z   M1.06186,13.9741c0.04124-0.1036,0.09278-0.1866,0.15464-0.2487L6.01031,9H7v0.99483L2.26804,14.7823  c-0.06185,0.0623-0.14433,0.114-0.24742,0.1555C1.93814,14.9793,1.84536,15,1.74227,15c-0.20619,0-0.38144-0.0725-0.52577-0.2177  C1.07217,14.6373,1,14.4611,1,14.2539C1,14.1502,1.02062,14.057,1.06186,13.9741z"/>
</svg>