<svg xmlns:inkscape="http://www.inkscape.org/namespaces/inkscape" xmlns:sodipodi="http://sodipodi.sourceforge.net/DTD/sodipodi-0.dtd" xmlns="http://www.w3.org/2000/svg" xmlns:svg="http://www.w3.org/2000/svg" version="1.1" width="24" height="24" viewBox="0 0 24 24" id="svg19" sodipodi:docname="master.svg" inkscape:version="1.1 (c68e22c387, 2021-05-23)">
    <defs id="defs23"/>
    <sodipodi:namedview id="namedview21" pagecolor="#ffffff" bordercolor="#666666" borderopacity="1.0" inkscape:pageshadow="2" inkscape:pageopacity="0.0" inkscape:pagecheckerboard="0" showgrid="false" inkscape:zoom="25.92" inkscape:cx="12.5" inkscape:cy="12.5" inkscape:window-width="1440" inkscape:window-height="898" inkscape:window-x="-6" inkscape:window-y="-6" inkscape:window-maximized="1" inkscape:current-layer="svg19"/>
    <path fill="#5856D6" d="M21.583 18.9l-3.594-3.595c-0.453-0.453-1.133-0.53-1.671-0.244l-0.682-0.683c1.031-1.302 1.651-2.944 1.651-4.735-0.001-4.222-3.422-7.643-7.644-7.643s-7.643 3.421-7.643 7.643c0 4.221 3.421 7.643 7.643 7.643 1.79 0 3.433-0.62 4.735-1.651l0.682 0.682c-0.284 0.538-0.208 1.217 0.246 1.67l3.594 3.595c0.555 0.556 1.456 0.556 2.012 0l0.671-0.67c0.556-0.556 0.556-1.457 0-2.012zM3.414 9.643c0-3.441 2.789-6.229 6.23-6.229s6.23 2.788 6.23 6.229-2.789 6.229-6.23 6.229-6.23-2.788-6.23-6.229z" id="path17" style="fill:#000000"/>
</svg>