<svg xmlns="http://www.w3.org/2000/svg" width="24" height="24" viewBox="0 0 16 16" fill="none">
    <path fill-rule="evenodd" clip-rule="evenodd" d="M4.91175 1.45494C5.87675 1.15107 6.90663 1 8 1C9.09337 1 10.1232 1.15107 11.0883 1.45494L11.0906 1.45569C12.0515 1.76907 12.8961 2.19221 13.6216 2.72715C14.3476 3.26257 14.9284 3.89363 15.3602 4.62063L15.3615 4.62286C15.7865 5.35619 16 6.1425 16 6.97789C16 7.81328 15.7864 8.59958 15.3615 9.3329L15.3602 9.33515C14.9285 10.0619 14.5 10.7317 13.6875 11.337C12.9615 11.8779 11.9617 12.421 11 12.724C10.0346 13.0387 9.00435 13.1951 7.91059 13.1951C7.75341 13.1951 7.5939 13.1896 7.43207 13.1787C7.30139 13.1699 7.16175 13.1611 7.01313 13.1522C6.69696 13.3242 5.73765 13.8096 5.0642 14.0935L5.06121 14.0947C4.37644 14.3727 3.75364 14.5803 3.19364 14.7158C2.64238 14.8493 2.17994 14.9341 1.80962 14.9673L1.80241 14.968C1.45562 14.9887 1.252 15 1.21212 15C1.08193 15 0.96434 14.9547 0.86513 14.8769C0.76379 14.7974 0.6939 14.6925 0.66001 14.5684L0.65532 14.5513L0.65321 14.5336C0.6387 14.4122 0.65233 14.2914 0.70229 14.1782C0.74896 14.0725 0.82288 13.9835 0.92524 13.9236C0.93189 13.918 0.94549 13.9066 0.96692 13.8882C1.00158 13.8583 1.05052 13.8156 1.11405 13.7597C1.24098 13.648 1.42422 13.4853 1.66401 13.2715C2.06105 12.9174 2.35499 12.2893 2.51032 11.337C2.1451 11.0789 1.81617 10.8022 1.52414 10.5067L1.52136 10.5038C1.1965 10.1641 0.9201 9.80368 0.69302 9.42259C0.46615 9.04185 0.29351 8.65082 0.17631 8.24966L0.17582 8.24797C0.05855 7.83539 0 7.41181 0 6.97789C0 6.1425 0.21356 5.35619 0.6385 4.62287L0.6398 4.62062C1.07161 3.89362 1.65234 3.26257 2.37844 2.72715C3.10391 2.19221 3.9485 1.76908 4.90939 1.4557L4.91175 1.45494ZM8 2.14832C7.04323 2.14832 6.1439 2.28238 5.30065 2.54901L5.29883 2.54959C4.46193 2.80703 3.73628 3.15802 3.11887 3.60038C2.50127 4.04287 2.01702 4.55573 1.66175 5.13819C1.31037 5.71428 1.13636 6.32611 1.13636 6.97789C1.13636 7.64729 1.32859 8.29276 1.72077 8.91802C2.11192 9.54165 2.66794 10.0888 3.39625 10.5574C3.49679 10.6126 3.5767 10.6952 3.624 10.8041C3.66242 10.8925 3.68182 10.9859 3.68182 11.0822V11.0959L3.68027 11.1094C3.59737 11.8356 3.43539 12.4535 3.18722 12.9557C3.06834 13.1962 2.94558 13.4146 2.81857 13.61C2.91197 13.5891 3.0086 13.5664 3.1085 13.5418L3.11007 13.5414C3.45102 13.4599 3.8113 13.3447 4.19112 13.1951C4.5706 13.0456 4.96893 12.862 5.38622 12.6439C5.44105 12.6152 5.54502 12.5661 5.67564 12.5044C5.90987 12.3938 6.22985 12.2426 6.50594 12.0963C6.53287 12.082 6.55229 12.0695 6.57075 12.0577C6.60359 12.0366 6.63339 12.0175 6.69696 11.9936C6.77325 11.9708 6.84972 11.9708 6.92163 11.9865C7.10248 12.0061 7.27297 12.0182 7.43322 12.0231C7.60277 12.0284 7.76187 12.031 7.91059 12.031C8.86806 12.031 9.76809 11.902 10.6119 11.6455C11.4488 11.388 12.3288 10.9148 12.9461 10.4724C13.5637 10.0299 13.983 9.41589 14.3383 8.83343C14.6893 8.25795 14.8636 7.64093 14.8636 6.97789C14.8636 6.32611 14.6896 5.71428 14.3383 5.13819C13.983 4.55573 13.4987 4.04287 12.8811 3.60038C12.2637 3.15802 11.5381 2.80702 10.7012 2.54958L10.6994 2.54902C9.8561 2.28239 8.95677 2.14832 8 2.14832ZM7.2298 8C7.0851 8.23529 7.01275 8.55556 7.01275 8.90196V9H8.36675V8.84314C8.36675 8.58824 8.43221 8.33333 8.56314 8.13725C8.70095 7.93464 8.90078 7.70915 9.16262 7.46078C9.49337 7.14706 9.73799 6.86275 9.89647 6.60784C10.0618 6.34641 10.1445 6.05556 10.1445 5.73529C10.1445 5.40196 10.0618 5.10458 9.89647 4.84314C9.73109 4.5817 9.49337 4.37582 9.18329 4.22549C8.87321 4.07516 8.50801 4 8.08768 4C7.69492 4 7.34694 4.03595 7.04376 4.10784C6.74746 4.17974 6.30319 4.36274 6 4.5L6.1447 5.65686C6.41344 5.53268 6.80603 5.36274 7.03342 5.30392C7.2677 5.23856 7.51576 5.20588 7.77761 5.20588C8.06012 5.20588 8.28407 5.27124 8.44944 5.40196C8.61482 5.53268 8.6975 5.71569 8.6975 5.95098C8.6975 6.17974 8.63549 6.37908 8.51146 6.54902C8.39432 6.71242 8.17726 6.94444 7.86029 7.2451C7.58467 7.50654 7.37451 7.75817 7.2298 8ZM8.35642 9.66667H7.01275V11H8.35642V9.66667Z" fill="black"/>
</svg>