<svg xmlns="http://www.w3.org/2000/svg"><svg><symbol viewBox="0 0 24 24" id="icon-WomanBold"><path d="M14.052 3c0-1.104-.92-2-2.052-2-1.132 0-2.052.896-2.052 2s.92 2 2.052 2c1.133 0 2.052-.896 2.052-2zm-1.026 0c0 .551-.46 1-1.026 1-.565 0-1.026-.449-1.026-1 0-.551.46-1 1.026-1 .566 0 1.026.449 1.026 1zm1.026 13h-1.026v7h1.026v-7zm-3.078 0H9.948v7h1.026v-7zM6.5 16l2.044-7.404C8.964 7.068 10.385 6 12 6s3.036 1.067 3.456 2.596L17.5 16h-1.062l-1.972-7.145A2.554 2.554 0 0 0 12 7a2.554 2.554 0 0 0-2.466 1.855L7.562 16H6.5z"/></symbol></svg><svg><symbol viewBox="0 0 16 16" id="icon-Woman"><path fill-rule="evenodd" clip-rule="evenodd" d="M8.8 1.8a.8.8 0 1 1-1.6 0 .8.8 0 0 1 1.6 0zm1 0a1.8 1.8 0 1 1-3.6 0 1.8 1.8 0 0 1 3.6 0zm.756 8.665L9.549 6.69a1.603 1.603 0 0 0-3.098 0l-.991 3.716L5.022 12H4l.267-1 1.218-4.567a2.603 2.603 0 0 1 5.03 0L11.733 11 12 12h-1.023l-.421-1.535zM6 12h1v4H6v-4zm4 0H9v4h1v-4z"/></symbol></svg><svg><symbol viewBox="0 0 24 24" id="icon-ManBold"><path d="M12 5c1.103 0 2-.896 2-2s-.897-2-2-2-2 .896-2 2 .897 2 2 2zm0-3a1.001 1.001 0 0 1 0 2c-.551 0-1-.449-1-1 0-.551.449-1 1-1zm1 21h1v-8h-1v8zm-3 0h1v-8h-1v8zM7 6v8h1V7h8v7h1V6H7z"/></symbol></svg><svg><symbol viewBox="0 0 16 16" id="icon-Man"><path fill-rule="evenodd" clip-rule="evenodd" d="M8.8 1.8a.8.8 0 1 1-1.6 0 .8.8 0 0 1 1.6 0zm1 0a1.8 1.8 0 1 1-3.6 0 1.8 1.8 0 0 1 3.6 0zM10 16H9v-5h1v5zm-3 0H6v-5h1v5zm-3-5V4.5h8V11h-1V5.5H5V11H4z"/></symbol></svg></svg>