<svg xmlns="http://www.w3.org/2000/svg"><svg><symbol viewBox="0 0 19 65" id="icon-FinalBrace"><g clip-path="url(#clip0_5_14)"><path d="M18 21v8.5l-6.3-6-.7.8 5 4.7H7V3A2.723 2.723 0 0 0 6.1.9 3.333 3.333 0 0 0 4 0H0v1h4a1.974 1.974 0 0 1 1.4.6A1.974 1.974 0 0 1 6 3v59a1.974 1.974 0 0 1-.6 1.4A1.975 1.975 0 0 1 4 64H0v1h4a2.722 2.722 0 0 0 2.1-.9A2.724 2.724 0 0 0 7 62V30h9l-5 4.8.7.8 6.3-6V39h1V21h-1z"/></g><defs><clipPath id="clip0_5_14"><path d="M0 0h19v65H0z"/></clipPath></defs></symbol></svg><svg><symbol viewBox="0 0 19 18" id="icon-Final"><path fill-rule="evenodd" clip-rule="evenodd" d="M19 0h-1v8.371L11.76 2.5l-.676.754 5.036 4.735L0 8v1.022l16.12-.01-5.036 4.734.676.754L18 8.629V18h1V0z"/></symbol></svg><svg><symbol viewBox="0 0 19 19" id="icon-Curved"><path clip-rule="evenodd" d="M0 4c4.154 0 6.923.346 10.385 2.074C13.846 7.804 18 12.644 18 12.99m0 0c0 .277-2.539-4.955-3.808-7.606M18 12.989c-1.154-1.267-4.085-3.803-6.577-3.803" stroke="#cc3d00"/></symbol></svg><svg><symbol viewBox="0 0 19 18" id="icon-Common"><path fill-rule="evenodd" clip-rule="evenodd" d="M18 8.504 11.674 14.5l-.671-.754 4.999-4.735L0 9.022V8.008h16.002l-5-4.754.672-.754L18 8.496l-.004.004.004.004z"/></symbol></svg><svg><symbol viewBox="0 0 19 65" id="icon-Brace"><g clip-path="url(#clip0_5_7)"><path fill-rule="evenodd" clip-rule="evenodd" d="M6 62.016a2 2 0 0 1-2 2H0v1h4a3 3 0 0 0 3-3V30h8.99l-5.035 4.793.676.754 6.373-5.996-.004-.004.004-.004-6.373-5.996-.676.753 5.036 4.7H7V3.016a3 3 0 0 0-3-3H0v1h4a2 2 0 0 1 2 2v59z"/></g><defs><clipPath id="clip0_5_7"><path d="M0 0h19v65H0z"/></clipPath></defs></symbol></svg></svg>