<svg xmlns="http://www.w3.org/2000/svg" width="12" height="12" viewBox="0 0 12 12">
  <path fill="#5351BD" d="M11.7693648,10.636445 C11.9217736,10.7882051 12,10.982939 12,11.2036474 C12,11.4243558 11.9217736,11.6190897 11.7693648,11.7708499 C11.7121114,11.8278597 11.6389205,11.876446 11.5485852,11.9214214 C11.4449773,11.973005 11.3365356,12 11.2258852,12 C11.1152348,12 11.0067932,11.973005 10.9031853,11.9214214 L10.8055052,11.8727892 C10.7566652,11.8484732 10.7566652,11.8484732 10.6335656,11.7708499 L5.99957359,7.15657702 L1.29217494,11.824157 L1.09681475,11.9214214 C0.99320681,11.973005 0.884765163,12 0.774114774,12 C0.663464385,12 0.555022738,11.973005 0.451414801,11.9214214 C0.361079461,11.876446 0.287888574,11.8278597 0.23063515,11.7708499 C0.0782264419,11.6190897 0,11.4243558 0,11.2036474 C0,10.982939 0.0782264419,10.7882051 0.23063515,10.636445 L4.86255912,6.02423131 L0.204014591,1.3816228 C0.070992982,1.20501539 0,1.01650636 0,0.820668693 C0,0.624831024 0.070992982,0.436321999 0.23063515,0.229150125 C0.382806331,0.0776264812 0.577701877,0 0.798534799,0 C1.01936772,0 1.21426327,0.0776264812 1.36744929,0.230165743 L6,4.8895979 L10.6335656,0.229150125 C10.7857367,0.0776264812 10.9806323,0 11.2014652,0 C11.4222981,0 11.6171937,0.0776264812 11.7959854,0.259714587 C11.929007,0.436321999 12,0.624831024 12,0.820668693 C12,1.01650636 11.929007,1.20501539 11.7693648,1.41218726 L7.13752605,6.02431611 L11.7693648,10.636445 Z"/>
</svg>
