<svg xmlns="http://www.w3.org/2000/svg"><svg><symbol viewBox="0 0 9 16" id="icon-dragButton"><circle cx="7.5" cy="14" r="1.5" transform="rotate(180 7.5 14)"/><circle cx="1.5" cy="14" r="1.5" transform="rotate(180 1.5 14)"/><circle cx="7.5" cy="8" r="1.5" transform="rotate(180 7.5 8)"/><circle cx="1.5" cy="8" r="1.5" transform="rotate(180 1.5 8)"/><circle cx="7.5" cy="2" r="1.5" transform="rotate(180 7.5 2)"/><circle cx="1.5" cy="2" r="1.5" transform="rotate(180 1.5 2)"/></symbol></svg><svg><symbol viewBox="0 0 24 24" id="icon-TwoColumns"><path fill-rule="evenodd" clip-rule="evenodd" d="M7 3a4 4 0 0 0-4 4v10a4 4 0 0 0 4 4h10a4 4 0 0 0 4-4V7a4 4 0 0 0-4-4H7zm10 2H7a2 2 0 0 0-2 2v10a2 2 0 0 0 2 2h10a2 2 0 0 0 2-2V7a2 2 0 0 0-2-2z"/><path d="M11 4.125h2v15.75h-2z"/></symbol></svg><svg><symbol viewBox="0 0 24 24" id="icon-ThreeColumns"><path fill-rule="evenodd" clip-rule="evenodd" d="M7 3a4 4 0 0 0-4 4v10a4 4 0 0 0 4 4h10a4 4 0 0 0 4-4V7a4 4 0 0 0-4-4H7zm10 2H7a2 2 0 0 0-2 2v10a2 2 0 0 0 2 2h10a2 2 0 0 0 2-2V7a2 2 0 0 0-2-2z"/><path d="M10.32 4.125h-2v15.75h2z"/><path d="M13.7 4.125h2v15.75h-2z"/></symbol></svg><svg><symbol viewBox="0 0 16 16" id="icon-Tablet"><path fill-rule="evenodd" clip-rule="evenodd" d="M4.308 2C3.543 2 3 2.56 3 3.333v9.334C3 13.44 3.543 14 4.308 14h7.384c.765 0 1.308-.56 1.308-1.333V6.133c0-.257.284-.466.539-.466.254 0 .461.209.461.466v6.534C14 13.955 12.967 15 11.692 15H4.308C3.033 15 2 13.955 2 12.667V3.333C2 2.045 3.033 1 4.308 1h6.461c.255 0 .462.209.462.467 0 .257-.207.533-.462.533H4.308zm2.307 10.5c0-.258.207-.5.462-.5h1.846c.255 0 .462.242.462.5s-.207.5-.462.5H7.077c-.255 0-.462-.242-.462-.5z"/></symbol></svg><svg><symbol viewBox="0 0 14 14" id="icon-Slider"><rect x="2" y="3" width="7" height="1" rx=".5"/><rect x="10" y="3" width="2" height="1" rx=".5"/><rect x="2" y="6" width="2" height="1" rx=".5"/><rect x="5" y="6" width="7" height="1" rx=".5"/><rect x="2" y="9" width="7" height="1" rx=".5"/><rect x="10" y="9" width="2" height="1" rx=".5"/><path fill-rule="evenodd" clip-rule="evenodd" d="M9.5 5a1.5 1.5 0 1 0 0-3 1.5 1.5 0 0 0 0 3zm0-1a.5.5 0 1 0 0-1 .5.5 0 0 0 0 1z"/><path fill-rule="evenodd" clip-rule="evenodd" d="M4.5 8a1.5 1.5 0 1 0 0-3 1.5 1.5 0 0 0 0 3zm0-1a.5.5 0 1 0 0-1 .5.5 0 0 0 0 1z"/><path fill-rule="evenodd" clip-rule="evenodd" d="M9.5 11a1.5 1.5 0 1 0 0-3 1.5 1.5 0 0 0 0 3zm0-1a.5.5 0 1 0 0-1 .5.5 0 0 0 0 1z"/></symbol></svg><svg><symbol viewBox="0 0 14 14" id="icon-Settings"><path d="M12.339 7.827a1.752 1.752 0 0 1 .048-2.072l.81-1.06-.089-.23a7.177 7.177 0 0 0-.455-.965 7.13 7.13 0 0 0-.689-.977l-.156-.186-1.521.2a1.74 1.74 0 0 1-1.772-1.075L7.961.13 7.722.09a6.969 6.969 0 0 0-2.15-.015l-.246.036-.618 1.492-.013.03A1.744 1.744 0 0 1 2.86 2.666l-1.604-.208-.154.193c-.42.53-.759 1.117-1.01 1.745L0 4.626 1.122 6.09c.44.62.425 1.464-.043 2.076L.047 9.512l.103.236c.121.286.243.534.372.756.176.305.39.61.654.933l.154.19 1.842-.243A1.744 1.744 0 0 1 4.95 12.46l.61 1.468.257.028a7.002 7.002 0 0 0 2.081-.08l.233-.044.65-1.569a1.746 1.746 0 0 1 1.823-1.01l1.412.184.154-.201a7.03 7.03 0 0 0 1.036-1.958l.077-.222-.944-1.23zm-.72 2.678-.9-.118a2.623 2.623 0 0 0-2.733 1.51l-.07.07v.095l-.412.995a6.19 6.19 0 0 1-1.336.054l-.409-.985a2.607 2.607 0 0 0-2.761-1.602l-1.293.17a5.534 5.534 0 0 1-.647-1.058l.715-.935A2.626 2.626 0 0 0 1.78 5.51l-.778-1.013a6.17 6.17 0 0 1 .639-1.104l1.106.145a2.617 2.617 0 0 0 2.768-1.59L5.94.913c.47-.05.94-.048 1.401.01l.364.876a2.613 2.613 0 0 0 2.792 1.596l.943-.125c.176.226.325.447.456.67.105.185.206.389.304.618l-.508.666a2.625 2.625 0 0 0-.007 3.192l.613.797c-.18.463-.407.895-.68 1.292zM6.587 4.298A2.63 2.63 0 0 0 3.96 6.925 2.63 2.63 0 0 0 6.587 9.55a2.63 2.63 0 0 0 2.626-2.626 2.63 2.63 0 0 0-2.626-2.627zm0 4.378a1.753 1.753 0 0 1-1.752-1.751c0-.966.787-1.751 1.752-1.751s1.75.785 1.75 1.75c0 .967-.786 1.752-1.75 1.752z"/></symbol></svg><svg><symbol viewBox="0 0 32 32" id="icon-RestrictedWidth"><path fill-rule="evenodd" clip-rule="evenodd" d="M22.936 2.193a.75.75 0 0 1 .055 1.059l-.017.019a.75.75 0 0 1-1.115-1.004l.017-.019a.75.75 0 0 1 1.06-.055zm6.666 0a.75.75 0 0 1 .056 1.059l-.017.019a.75.75 0 0 1-1.115-1.004l.017-.019a.75.75 0 0 1 1.06-.055zM2 3.085a.75.75 0 0 1 .75-.75h13a.75.75 0 0 1 .75.75v12.293a.747.747 0 0 1 .25-.043h6.19l-1.72-1.72a.75.75 0 1 1 1.06-1.06l3 3a.75.75 0 0 1 0 1.06l-3 3a.75.75 0 1 1-1.06-1.06l1.72-1.72h-6.19a.75.75 0 0 1-.25-.043v12.293a.75.75 0 0 1-.75.75h-13a.75.75 0 0 1-.75-.75v-26zm1.5.75v24.5H15v-24.5H3.5zM29.602 8.86a.75.75 0 0 1 .056 1.06l-.017.018a.75.75 0 1 1-1.115-1.003l.017-.02a.75.75 0 0 1 1.06-.055zm0 6.667a.75.75 0 0 1 .056 1.06l-.017.018a.75.75 0 1 1-1.115-1.004l.017-.019a.75.75 0 0 1 1.06-.055zm0 6.667a.75.75 0 0 1 .056 1.059l-.018.019a.75.75 0 0 1-1.114-1.004l.017-.019a.75.75 0 0 1 1.06-.055zm-6.666 6.666a.75.75 0 0 1 .055 1.06l-.017.019a.75.75 0 1 1-1.115-1.004l.017-.02a.75.75 0 0 1 1.06-.055zm6.666 0a.75.75 0 0 1 .056 1.06l-.017.019a.75.75 0 0 1-1.115-1.004l.017-.02a.75.75 0 0 1 1.06-.055z"/></symbol></svg><svg><symbol viewBox="0 0 32 32" id="icon-RestrictedHeight"><path fill-rule="evenodd" clip-rule="evenodd" d="M2.57 2.22A.75.75 0 0 1 3.1 2h26a.75.75 0 0 1 .75.75v13a.75.75 0 0 1-.75.75H16.809a.75.75 0 0 1 .043.25v6.19l1.72-1.72a.75.75 0 0 1 1.06 1.06l-3 3a.75.75 0 0 1-1.06 0l-3-3a.75.75 0 1 1 1.06-1.06l1.72 1.72v-6.19a.75.75 0 0 1 .042-.25H3.1a.75.75 0 0 1-.75-.75v-13a.75.75 0 0 1 .22-.53zM3.85 3.5V15h24.5V3.5H3.85zM2.193 21.915a.75.75 0 0 1 1.059-.056l.019.017a.75.75 0 1 1-1.004 1.115l-.019-.017a.75.75 0 0 1-.055-1.06zm26.666 0a.75.75 0 0 1 1.06-.056l.018.017a.75.75 0 0 1-1.003 1.115l-.019-.017a.75.75 0 0 1-.056-1.059zM2.193 28.581a.75.75 0 0 1 1.059-.055l.019.017a.75.75 0 1 1-1.004 1.115l-.019-.017a.75.75 0 0 1-.055-1.06zm6.666 0a.75.75 0 0 1 1.06-.055l.019.017a.75.75 0 1 1-1.004 1.115l-.02-.018a.75.75 0 0 1-.055-1.059zm6.667 0a.75.75 0 0 1 1.06-.055l.018.017a.75.75 0 1 1-1.004 1.115l-.019-.017a.75.75 0 0 1-.055-1.06zm6.666 0a.75.75 0 0 1 1.06-.055l.019.017a.75.75 0 1 1-1.004 1.115l-.019-.017a.75.75 0 0 1-.056-1.06zm6.667 0a.75.75 0 0 1 1.06-.055l.018.017a.75.75 0 1 1-1.003 1.115l-.02-.017a.75.75 0 0 1-.055-1.06z"/></symbol></svg><svg><symbol viewBox="0 0 32 32" id="icon-RestrictedBoth"><path fill-rule="evenodd" clip-rule="evenodd" d="M23.269 2.193a.75.75 0 0 1 .056 1.059l-.018.019a.75.75 0 1 1-1.114-1.004l.017-.019a.75.75 0 0 1 1.059-.055zm6.667 0a.75.75 0 0 1 .055 1.059l-.017.019a.75.75 0 0 1-1.115-1.004l.017-.019a.75.75 0 0 1 1.06-.055zM2 2.752a.75.75 0 0 1 .75-.75h13.333a.75.75 0 0 1 .75.75v13.023l4.279 4.278V17.62a.75.75 0 1 1 1.5 0v4.242a.75.75 0 0 1-.75.75h-4.243a.75.75 0 0 1 0-1.5h2.432l-4.278-4.278H2.75a.75.75 0 0 1-.75-.75V2.752zm13.333 12.583V3.502H3.5v11.833h11.833zM29.936 8.86a.75.75 0 0 1 .055 1.06l-.017.018a.75.75 0 1 1-1.115-1.003l.017-.02a.75.75 0 0 1 1.06-.055zm0 6.667a.75.75 0 0 1 .055 1.06l-.017.018A.75.75 0 1 1 28.86 15.6l.017-.019a.75.75 0 0 1 1.059-.055zM3.269 22.193a.75.75 0 0 1 .055 1.059l-.017.019a.75.75 0 0 1-1.114-1.004l.017-.019a.75.75 0 0 1 1.06-.055zm26.667 0a.75.75 0 0 1 .055 1.059l-.017.019a.75.75 0 0 1-1.114-1.004l.017-.019a.75.75 0 0 1 1.059-.055zM3.269 28.859a.75.75 0 0 1 .055 1.06l-.017.019a.75.75 0 1 1-1.114-1.004l.017-.02a.75.75 0 0 1 1.06-.055zm6.667 0a.75.75 0 0 1 .055 1.06l-.017.019a.75.75 0 1 1-1.115-1.004l.018-.02a.75.75 0 0 1 1.059-.055zm6.666 0a.75.75 0 0 1 .056 1.06l-.017.019a.75.75 0 1 1-1.115-1.004l.017-.02a.75.75 0 0 1 1.06-.055zm6.667 0a.75.75 0 0 1 .055 1.06l-.017.019a.75.75 0 1 1-1.114-1.004l.017-.02a.75.75 0 0 1 1.06-.055zm6.667 0a.75.75 0 0 1 .055 1.06l-.017.019a.75.75 0 1 1-1.115-1.004l.017-.02a.75.75 0 0 1 1.06-.055z"/></symbol></svg><svg><symbol viewBox="0 0 24 24" id="icon-Plus"><path d="M8 11h8"/><path d="M12 6.5v9"/></symbol></svg><svg><symbol viewBox="0 0 24 24" id="icon-OneColumn"><path fill-rule="evenodd" clip-rule="evenodd" d="M7 3a4 4 0 0 0-4 4v10a4 4 0 0 0 4 4h10a4 4 0 0 0 4-4V7a4 4 0 0 0-4-4H7zm10 2H7a2 2 0 0 0-2 2v10a2 2 0 0 0 2 2h10a2 2 0 0 0 2-2V7a2 2 0 0 0-2-2z"/></symbol></svg><svg><symbol viewBox="0 0 24 24" id="icon-NoticeExpand"><path fill-rule="evenodd" clip-rule="evenodd" d="M5.778 18.857h12.444c.35 0 .635-.284.635-.635V5.778a.635.635 0 0 0-.635-.635H5.778a.635.635 0 0 0-.635.635v12.444c0 .35.284.635.635.635zm0 1.143h12.444c.982 0 1.778-.796 1.778-1.778V5.778C20 4.796 19.204 4 18.222 4H5.778C4.796 4 4 4.796 4 5.778v12.444C4 19.204 4.796 20 5.778 20z"/><path d="M12 5.143h1.143v13.714H12V5.143z"/><path fill-rule="evenodd" clip-rule="evenodd" d="M17.242 14.118a.571.571 0 0 0 0-.808L15.932 12l1.31-1.31a.571.571 0 1 0-.808-.808l-1.714 1.714a.572.572 0 0 0 0 .808l1.714 1.714a.572.572 0 0 0 .808 0z"/></symbol></svg><svg><symbol viewBox="0 0 24 24" id="icon-NoticeCollapse"><path fill-rule="evenodd" clip-rule="evenodd" d="M5.778 18.857h12.444c.35 0 .635-.284.635-.635V5.778a.635.635 0 0 0-.635-.635H5.778a.635.635 0 0 0-.635.635v12.444c0 .35.284.635.635.635zm0 1.143h12.444c.982 0 1.778-.796 1.778-1.778V5.778C20 4.796 19.204 4 18.222 4H5.778C4.796 4 4 4.796 4 5.778v12.444C4 19.204 4.796 20 5.778 20z"/><path d="M12 5.143h1.143v13.714H12V5.143z"/><path fill-rule="evenodd" clip-rule="evenodd" d="M15.024 9.882a.572.572 0 0 0 0 .808l1.31 1.31-1.31 1.31a.572.572 0 0 0 .809.808l1.714-1.714a.571.571 0 0 0 0-.808l-1.714-1.714a.571.571 0 0 0-.809 0z"/></symbol></svg><svg><symbol viewBox="0 0 16 16" id="icon-Laptop"><path fill-rule="evenodd" clip-rule="evenodd" d="M12 2.494a.5.5 0 0 1-.494.506l-8.023.09A1.5 1.5 0 0 0 2 4.588v5.005a1.5 1.5 0 0 0 1.513 1.5l9-.077A1.5 1.5 0 0 0 14 9.517V5.5a.5.5 0 0 1 1 0v4.017a2.5 2.5 0 0 1-2.479 2.5l-9 .077A2.5 2.5 0 0 1 1 9.594V4.589a2.5 2.5 0 0 1 2.472-2.5L11.494 2a.5.5 0 0 1 .506.494zM4.5 4.39a.5.5 0 0 1 .5.5V6a.5.5 0 0 1-1 0V4.889a.5.5 0 0 1 .5-.5zm0 3.333a.5.5 0 0 1 .5.5v1.111a.5.5 0 1 1-1 0v-1.11a.5.5 0 0 1 .5-.5zM1 13.5a.5.5 0 0 1 .5-.5h13a.5.5 0 0 1 0 1h-13a.5.5 0 0 1-.5-.5z"/></symbol></svg><svg><symbol viewBox="0 0 24 24" id="icon-Filter"><path fill-rule="evenodd" clip-rule="evenodd" d="M3 5.5V4h18v1.5l-6.5 6.15v5.794L9.5 20v-8.353L3 5.5zm10 11.157V11l5.75-5.5H5.25L11 11v6.566l2-.91z"/></symbol></svg><svg><symbol viewBox="0 0 24 24" id="icon-Edit"><path fill-rule="evenodd" clip-rule="evenodd" d="M9.837 1.5c-.277 0-.475.196-.501.398l-.001.01L8.92 4.72l-.253.112a8.225 8.225 0 0 0-1.385.785l-.219.152-2.703-1.056a.514.514 0 0 0-.624.207l-.006.011L1.566 8.58a.466.466 0 0 0 .122.612v.001l2.3 1.75-.03.28A7.306 7.306 0 0 0 3.91 12c0 .23.015.482.045.78l.028.279-2.299 1.75v.001c-.181.14-.24.39-.116.618l2.162 3.642c.106.19.368.305.64.213l2.69-1.052.22.154c.443.31.907.573 1.385.783l.254.111.414 2.814c.027.214.228.407.502.407h4.33c.277 0 .475-.196.5-.398l.002-.01.414-2.812.253-.112a8.226 8.226 0 0 0 1.385-.785l.219-.152 2.702 1.056a.517.517 0 0 0 .624-.207l.006-.011 2.168-3.65a.473.473 0 0 0-.125-.61v-.002l-2.3-1.75.032-.282c.026-.23.046-.497.046-.775 0-.277-.021-.543-.046-.777l-.03-.28 2.3-1.752h.001c.182-.141.24-.39.116-.618l-2.161-3.641c-.11-.193-.374-.307-.64-.215L16.94 5.77l-.22-.155a7.913 7.913 0 0 0-1.383-.782l-.254-.11-.414-2.816c-.028-.214-.228-.407-.502-.407h-4.33zm-1.492.267C8.442 1.027 9.1.5 9.837.5h4.33c.74 0 1.396.53 1.493 1.276l.333 2.258c.37.176.73.38 1.079.61l2.217-.866c.697-.25 1.486.017 1.85.657l2.164 3.644c.365.65.211 1.452-.377 1.905l-.002.001-1.858 1.414a7.592 7.592 0 0 1 0 1.202l1.859 1.415c.585.453.744 1.253.383 1.896l-.006.01-2.168 3.653c-.364.642-1.164.906-1.849.647l-.005-.002-2.212-.865a9.208 9.208 0 0 1-1.076.611l-.334 2.267c-.097.74-.756 1.267-1.492 1.267h-4.33c-.74 0-1.395-.53-1.493-1.276l-.333-2.257a9.063 9.063 0 0 1-1.08-.611l-2.212.865-.008.003c-.695.245-1.484-.017-1.848-.659L.699 15.921a1.475 1.475 0 0 1 .376-1.903l.002-.002 1.86-1.416a7.552 7.552 0 0 1 0-1.2L1.08 9.986l-.002-.002A1.466 1.466 0 0 1 .71 8.063L2.87 4.426c.363-.64 1.161-.909 1.85-.646l.004.001 2.212.865a9.214 9.214 0 0 1 1.076-.612l.334-2.267zM6.795 12c0-2.816 2.347-5.083 5.206-5.083.36 0 .713.036 1.055.104a.5.5 0 1 1-.198.98A4.331 4.331 0 0 0 12 7.918C9.669 7.917 7.794 9.76 7.794 12s1.875 4.083 4.207 4.083S16.208 14.24 16.208 12c0-.28-.03-.555-.085-.819a.5.5 0 1 1 .978-.206c.07.332.107.674.107 1.025 0 2.816-2.348 5.083-5.207 5.083S6.794 14.816 6.794 12z"/></symbol></svg><svg><symbol viewBox="0 0 16 16" id="icon-Desktop"><path fill-rule="evenodd" clip-rule="evenodd" d="M3.34 3C2.563 3 2 3.416 2 4.18V9.72C2 10.484 2.563 11 3.34 11h9.16c.777 0 1.5-.516 1.5-1.281V6.027c0-.255.241-.527.5-.527s.5.272.5.527v3.692C15 10.993 13.794 12 12.5 12h-4v1h2.037c.259 0 .468.245.468.5s-.21.5-.468.5h-5.35c-.258 0-.468-.245-.468-.5s.21-.5.469-.5h2.31v-1H3.34C2.046 12 1 10.993 1 9.719V4.181C1 2.906 2.046 2 3.34 2h7.879c.259 0 .481.245.481.5s-.222.5-.481.5H3.34zM4 4.437c.259 0 .5.207.5.461v1.026c0 .255-.241.462-.5.462s-.5-.207-.5-.462V4.898c0-.254.241-.461.5-.461zm0 3.077c.259 0 .5.206.5.461v1.026c0 .255-.241.462-.5.462S3.5 9.256 3.5 9V7.975c0-.255.241-.461.5-.461z"/></symbol></svg><svg><symbol viewBox="0 0 24 24" id="icon-DeleteBlock"><path clip-rule="evenodd" d="M12 1.693a3.64 3.64 0 0 1 3.623 3.336h4.716a.856.856 0 0 1 0 1.712H3.661a.856.856 0 1 1 0-1.712h4.716A3.64 3.64 0 0 1 12 1.693zm0 1.711c-.959 0-1.756.705-1.9 1.624h3.8A1.926 1.926 0 0 0 12 3.404zm7.632 4.972a.856.856 0 0 0-1.05.6L15.83 19.08c-.234.86-.95 1.516-1.872 1.516H9.996c-.86 0-1.621-.586-1.847-1.428L5.42 8.981a.856.856 0 0 0-1.654.443l2.67 9.963c.442 1.654 1.78 2.92 3.561 2.92h3.962c1.785 0 3.113-1.267 3.563-2.92l2.712-9.96a.856.856 0 0 0-.601-1.051zm-8.993 7.308 1.36-1.36 1.362 1.36a.856.856 0 0 0 1.21-1.21l-1.36-1.361 1.36-1.36a.856.856 0 0 0-1.21-1.211L12 11.902l-1.36-1.36a.856.856 0 0 0-1.211 1.21l1.36 1.36-1.36 1.362a.856.856 0 1 0 1.21 1.21z"/><path clip-rule="evenodd" d="M12 1.693a3.64 3.64 0 0 1 3.623 3.336h4.716a.856.856 0 0 1 0 1.712H3.661a.856.856 0 1 1 0-1.712h4.716A3.64 3.64 0 0 1 12 1.693zm0 1.711c-.959 0-1.756.705-1.9 1.624h3.8A1.926 1.926 0 0 0 12 3.404zm7.632 4.972a.856.856 0 0 0-1.05.6L15.83 19.08c-.234.86-.95 1.516-1.872 1.516H9.996c-.86 0-1.621-.586-1.847-1.428L5.42 8.981a.856.856 0 0 0-1.654.443l2.67 9.963c.442 1.654 1.78 2.92 3.561 2.92h3.962c1.785 0 3.113-1.267 3.563-2.92l2.712-9.96a.856.856 0 0 0-.601-1.051zm-8.993 7.308 1.36-1.36 1.362 1.36a.856.856 0 0 0 1.21-1.21l-1.36-1.361 1.36-1.36a.856.856 0 0 0-1.21-1.211L12 11.902l-1.36-1.36a.856.856 0 0 0-1.211 1.21l1.36 1.36-1.36 1.362a.856.856 0 1 0 1.21 1.21z"/></symbol></svg><svg><symbol viewBox="0 0 24 24" id="icon-Delete"><path d="M15.684 18.516A1.999 1.999 0 0 1 13.761 20h-3.563c-.897 0-1.688-.61-1.922-1.484L5.82 9.354a.5.5 0 0 0-.966.259l2.455 9.162A3.001 3.001 0 0 0 10.198 21h3.563a3 3 0 0 0 2.888-2.223l2.495-9.163a.5.5 0 0 0-.965-.263l-2.495 9.165zM15 6c0-1.654-1.346-3-3-3S9 4.346 9 6H4.5a.5.5 0 0 0 0 1h15a.5.5 0 0 0 0-1H15zm-5 0c0-1.104.897-2 2-2s2 .896 2 2h-4z"/><path d="m12 13.707-1.415 1.415a.5.5 0 0 1-.707-.707L11.293 13l-1.415-1.414a.5.5 0 1 1 .707-.707L12 12.293l1.414-1.414a.5.5 0 1 1 .707.707L12.707 13l1.414 1.415a.5.5 0 0 1-.707.707L12 13.707z"/></symbol></svg><svg><symbol viewBox="0 0 24 24" id="icon-DashboardUndo"><path fill-rule="evenodd" clip-rule="evenodd" d="M4.25 9.5A.75.75 0 0 1 5 8.75h10c.115 0 1.261 0 2.401.582a4.15 4.15 0 0 1 1.627 1.45c.45.698.722 1.593.722 2.718 0 2.5-1.054 3.88-2.26 4.585-1.138.665-2.303.665-2.488.665H7a.75.75 0 0 1 0-1.5h8c.118 0 .95-.002 1.733-.46.72-.42 1.517-1.29 1.517-3.29 0-.875-.208-1.48-.483-1.906a2.652 2.652 0 0 0-1.047-.926A4.122 4.122 0 0 0 15 10.25H5a.75.75 0 0 1-.75-.75z"/><path fill-rule="evenodd" clip-rule="evenodd" d="M9.03 5.47a.75.75 0 0 1 0 1.06L6.06 9.5l2.97 2.97a.75.75 0 1 1-1.06 1.06l-3.5-3.5a.75.75 0 0 1 0-1.06l3.5-3.5a.75.75 0 0 1 1.06 0z"/></symbol></svg><svg><symbol viewBox="0 0 16 16" id="icon-DashboardTablet"><path fill-rule="evenodd" clip-rule="evenodd" d="M14 11.692c0 .765-.56 1.308-1.333 1.308H3.333C2.56 13 2 12.457 2 11.692V4.308C2 3.543 2.56 3 3.333 3h6.534c.257 0 .466-.284.466-.538A.464.464 0 0 0 9.867 2H3.333C2.045 2 1 3.033 1 4.308v7.384C1 12.967 2.045 14 3.333 14h9.334C13.955 14 15 12.967 15 11.692V5.231a.464.464 0 0 0-.467-.462c-.257 0-.533.207-.533.462v6.461z"/><path d="M6.462 12C6.207 12 6 11.758 6 11.5s.207-.5.462-.5h3.076c.255 0 .462.242.462.5s-.207.5-.462.5H6.462z"/></symbol></svg><svg><symbol viewBox="0 0 16 16" id="icon-DashboardShopSmall"><path clip-rule="evenodd" d="M12 9c.331 0 .5.269.5.6v1.9h1.9c.331 0 .6.169.6.5 0 .331-.269.5-.6.5h-1.9v1.9c0 .331-.169.6-.5.6-.331 0-.5-.269-.5-.6v-1.9H9.6c-.331 0-.6-.169-.6-.5 0-.331.269-.5.6-.5h1.9V9.6c0-.331.169-.6.5-.6z"/><path clip-rule="evenodd" d="M2 2v4h4V2H2zm-1 .08C1 1.484 1.484 1 2.08 1h3.84C6.516 1 7 1.484 7 2.08v3.84A1.08 1.08 0 0 1 5.92 7H2.08A1.08 1.08 0 0 1 1 5.92V2.08z"/><path clip-rule="evenodd" d="M2 10v4h4v-4H2zm-1 .08C1 9.484 1.484 9 2.08 9h3.84C6.516 9 7 9.484 7 10.08v3.84A1.08 1.08 0 0 1 5.92 15H2.08A1.08 1.08 0 0 1 1 13.92v-3.84z"/><path clip-rule="evenodd" d="M10 2v4h4V2h-4zm-1 .08C9 1.484 9.484 1 10.08 1h3.84c.597 0 1.08.484 1.08 1.08v3.84A1.08 1.08 0 0 1 13.92 7h-3.84A1.08 1.08 0 0 1 9 5.92V2.08z"/></symbol></svg><svg><symbol viewBox="0 0 24 24" id="icon-DashboardShop"><path fill-rule="evenodd" clip-rule="evenodd" d="M16.992 13.25a.75.75 0 0 1 .75.75v2.25h2.25a.75.75 0 0 1 0 1.5h-2.25V20a.75.75 0 0 1-1.5 0v-2.25h-2.25a.75.75 0 0 1 0-1.5h2.25V14a.75.75 0 0 1 .75-.75z"/><path fill-rule="evenodd" clip-rule="evenodd" d="M4.75 4.75v4.5h4.5v-4.5h-4.5zm-1.5-.15c0-.746.604-1.35 1.35-1.35h4.8c.746 0 1.35.604 1.35 1.35v4.8a1.35 1.35 0 0 1-1.35 1.35H4.6A1.35 1.35 0 0 1 3.25 9.4V4.6z"/><path fill-rule="evenodd" clip-rule="evenodd" d="M4.75 14.75v4.5h4.5v-4.5h-4.5zm-1.5-.15c0-.746.604-1.35 1.35-1.35h4.8c.746 0 1.35.604 1.35 1.35v4.8a1.35 1.35 0 0 1-1.35 1.35H4.6a1.35 1.35 0 0 1-1.35-1.35v-4.8z"/><path clip-rule="evenodd" d="M14.75 4.75v4.5h4.5v-4.5h-4.5zm-1.5-.15c0-.746.604-1.35 1.35-1.35h4.8c.746 0 1.35.604 1.35 1.35v4.8a1.35 1.35 0 0 1-1.35 1.35h-4.8a1.35 1.35 0 0 1-1.35-1.35V4.6z"/></symbol></svg><svg><symbol viewBox="0 0 24 24" id="icon-DashboardRefresh"><path fill-rule="evenodd" clip-rule="evenodd" d="M11.955 4.75C15.988 4.75 19.25 8 19.25 12s-3.262 7.25-7.295 7.25c-3.66 0-6.686-2.677-7.213-6.162a.75.75 0 0 0-1.484.224c.638 4.214 4.29 7.438 8.697 7.438 4.853 0 8.795-3.914 8.795-8.75s-3.942-8.75-8.795-8.75a8.798 8.798 0 0 0-8.062 5.248.75.75 0 0 0 1.373.604 7.298 7.298 0 0 1 6.69-4.352z"/><path fill-rule="evenodd" clip-rule="evenodd" d="M4 4.25a.75.75 0 0 0-.75.75v3.52c0 .68.55 1.23 1.23 1.23H8a.75.75 0 0 0 0-1.5H4.75V5A.75.75 0 0 0 4 4.25z"/></symbol></svg><svg><symbol viewBox="0 0 24 24" id="icon-DashboardRedo"><path fill-rule="evenodd" clip-rule="evenodd" d="M9 8.75h10a.75.75 0 0 1 0 1.5H9c-.05 0-.903.001-1.72.418-.397.203-.77.496-1.047.926-.275.426-.483 1.031-.483 1.906 0 2 .798 2.87 1.517 3.29.783.458 1.615.46 1.733.46h8a.75.75 0 0 1 0 1.5H8.998c-.185 0-1.35 0-2.488-.665-1.206-.705-2.26-2.084-2.26-4.585 0-1.125.272-2.02.722-2.719a4.15 4.15 0 0 1 1.627-1.449C7.739 8.75 8.885 8.75 9 8.75z"/><path fill-rule="evenodd" clip-rule="evenodd" d="M14.97 5.47a.75.75 0 0 1 1.06 0l3.5 3.5a.75.75 0 0 1 0 1.06l-3.5 3.5a.75.75 0 1 1-1.06-1.06l2.97-2.97-2.97-2.97a.75.75 0 0 1 0-1.06z"/></symbol></svg><svg><symbol viewBox="0 0 16 16" id="icon-DashboardPhone"><path fill-rule="evenodd" clip-rule="evenodd" d="M5.308 2C4.543 2 4 2.56 4 3.333v9.334C4 13.44 4.543 14 5.308 14h5.384c.765 0 1.308-.56 1.308-1.333V6.133c0-.257.284-.466.539-.466.254 0 .461.209.461.466v6.534C13 13.955 11.967 15 10.692 15H5.308C4.033 15 3 13.955 3 12.667V3.333C3 2.045 4.033 1 5.308 1h4.461c.255 0 .462.209.462.467 0 .257-.207.533-.462.533H5.308zM7.12 12.5c0-.258.205-.5.46-.5h.84c.255 0 .46.242.46.5s-.205.5-.46.5h-.84c-.255 0-.46-.242-.46-.5z"/></symbol></svg><svg><symbol viewBox="0 0 16 16" id="icon-DashboardLaptop"><path fill-rule="evenodd" clip-rule="evenodd" d="M12 2.494a.5.5 0 0 1-.494.506l-8.023.09A1.5 1.5 0 0 0 2 4.588v5.005a1.5 1.5 0 0 0 1.513 1.5l9-.077A1.5 1.5 0 0 0 14 9.517V5.5a.5.5 0 0 1 1 0v4.017a2.5 2.5 0 0 1-2.479 2.5l-9 .077A2.5 2.5 0 0 1 1 9.594V4.589a2.5 2.5 0 0 1 2.472-2.5L11.494 2a.5.5 0 0 1 .506.494zM4.5 4.39a.5.5 0 0 1 .5.5V6a.5.5 0 0 1-1 0V4.889a.5.5 0 0 1 .5-.5zm0 3.333a.5.5 0 0 1 .5.5v1.111a.5.5 0 1 1-1 0v-1.11a.5.5 0 0 1 .5-.5zM1 13.5a.5.5 0 0 1 .5-.5h13a.5.5 0 0 1 0 1h-13a.5.5 0 0 1-.5-.5z"/></symbol></svg><svg><symbol viewBox="0 0 24 24" id="icon-DashboardExpand"><path d="M9 9 4 4l5 5zM4 4v4-4zm0 0h4-4z"/><path fill-rule="evenodd" clip-rule="evenodd" d="M4 3.25h4a.75.75 0 0 1 0 1.5H5.81l3.72 3.72a.75.75 0 0 1-1.06 1.06L4.75 5.81V8a.75.75 0 0 1-1.5 0V4a.748.748 0 0 1 .218-.529l.002-.001.001-.002A.748.748 0 0 1 4 3.25z"/><path fill-rule="evenodd" clip-rule="evenodd" d="M15.25 4a.75.75 0 0 1 .75-.75h4a.748.748 0 0 1 .75.75v4a.75.75 0 0 1-1.5 0V5.81l-3.72 3.72a.75.75 0 1 1-1.06-1.06l3.72-3.72H16a.75.75 0 0 1-.75-.75z"/><path fill-rule="evenodd" clip-rule="evenodd" d="M9.53 14.47a.75.75 0 0 1 0 1.06l-3.72 3.72H8a.75.75 0 0 1 0 1.5H4a.747.747 0 0 1-.75-.75v-4a.75.75 0 0 1 1.5 0v2.19l3.72-3.72a.75.75 0 0 1 1.06 0z"/><path fill-rule="evenodd" clip-rule="evenodd" d="M14.47 14.47a.75.75 0 0 1 1.06 0l3.72 3.72V16a.75.75 0 0 1 1.5 0v4a.747.747 0 0 1-.75.75h-4a.75.75 0 0 1 0-1.5h2.19l-3.72-3.72a.75.75 0 0 1 0-1.06z"/></symbol></svg><svg><symbol viewBox="0 0 24 24" id="icon-DashboardEditor"><path fill-rule="evenodd" clip-rule="evenodd" d="M4.75 4.75v4.5h4.5v-4.5h-4.5zm-1.5-.15c0-.746.604-1.35 1.35-1.35h4.8c.746 0 1.35.604 1.35 1.35v4.8a1.35 1.35 0 0 1-1.35 1.35H4.6A1.35 1.35 0 0 1 3.25 9.4V4.6z"/><path fill-rule="evenodd" clip-rule="evenodd" d="M4.75 14.75v4.5h4.5v-4.5h-4.5zm-1.5-.15c0-.746.604-1.35 1.35-1.35h4.8c.746 0 1.35.604 1.35 1.35v4.8a1.35 1.35 0 0 1-1.35 1.35H4.6a1.35 1.35 0 0 1-1.35-1.35v-4.8z"/><path fill-rule="evenodd" clip-rule="evenodd" d="M14.75 14.75v4.5h4.5v-4.5h-4.5zm-1.5-.15c0-.746.604-1.35 1.35-1.35h4.8c.746 0 1.35.604 1.35 1.35v4.8a1.35 1.35 0 0 1-1.35 1.35h-4.8a1.35 1.35 0 0 1-1.35-1.35v-4.8z"/><path fill-rule="evenodd" clip-rule="evenodd" d="M14.75 4.75v4.5h4.5v-4.5h-4.5zm-1.5-.15c0-.746.604-1.35 1.35-1.35h4.8c.746 0 1.35.604 1.35 1.35v4.8a1.35 1.35 0 0 1-1.35 1.35h-4.8a1.35 1.35 0 0 1-1.35-1.35V4.6z"/></symbol></svg><svg><symbol viewBox="0 0 16 16" id="icon-DashboardDesktop"><path fill-rule="evenodd" clip-rule="evenodd" d="M3.34 3C2.563 3 2 3.416 2 4.18V9.72C2 10.484 2.563 11 3.34 11h9.16c.777 0 1.5-.516 1.5-1.281V6.027c0-.255.241-.527.5-.527s.5.272.5.527v3.692C15 10.993 13.794 12 12.5 12h-4v1h2.037c.259 0 .468.245.468.5s-.21.5-.468.5h-5.35c-.258 0-.468-.245-.468-.5s.21-.5.469-.5h2.31v-1H3.34C2.046 12 1 10.993 1 9.719V4.181C1 2.906 2.046 2 3.34 2h7.879c.259 0 .481.245.481.5s-.222.5-.481.5H3.34zM4 4.437c.259 0 .5.207.5.461v1.026c0 .255-.241.462-.5.462s-.5-.207-.5-.462V4.898c0-.254.241-.461.5-.461zm0 3.077c.259 0 .5.206.5.461v1.026c0 .255-.241.462-.5.462S3.5 9.256 3.5 9V7.975c0-.255.241-.461.5-.461z"/></symbol></svg><svg><symbol viewBox="0 0 24 24" id="icon-DashboardCollapse"><path fill-rule="evenodd" clip-rule="evenodd" d="M15 14.25h4a.75.75 0 0 1 0 1.5h-2.19l3.72 3.72a.75.75 0 1 1-1.06 1.06l-3.72-3.72V19a.75.75 0 0 1-1.5 0v-4a.747.747 0 0 1 .75-.75z"/><path fill-rule="evenodd" clip-rule="evenodd" d="M4.25 15a.75.75 0 0 1 .75-.75h4a.747.747 0 0 1 .75.75v4a.75.75 0 0 1-1.5 0v-2.19l-3.72 3.72a.75.75 0 0 1-1.06-1.06l3.72-3.72H5a.75.75 0 0 1-.75-.75z"/><path fill-rule="evenodd" clip-rule="evenodd" d="M20.53 3.47a.75.75 0 0 1 0 1.06l-3.72 3.72H19a.75.75 0 0 1 0 1.5h-4a.748.748 0 0 1-.75-.75V5a.75.75 0 0 1 1.5 0v2.19l3.72-3.72a.75.75 0 0 1 1.06 0z"/><path fill-rule="evenodd" clip-rule="evenodd" d="M3.47 3.47a.75.75 0 0 1 1.06 0l3.72 3.72V5a.75.75 0 0 1 1.5 0v4a.748.748 0 0 1-.75.75H5a.75.75 0 0 1 0-1.5h2.19L3.47 4.53a.75.75 0 0 1 0-1.06z"/></symbol></svg><svg><symbol viewBox="0 0 24 24" id="icon-AddOneColumn"><path d="M11 8h2v3h3v2h-3v3h-2v-3H8v-2h3V8z"/><path fill-rule="evenodd" clip-rule="evenodd" d="M7 3a4 4 0 0 0-4 4v10a4 4 0 0 0 4 4h10a4 4 0 0 0 4-4V7a4 4 0 0 0-4-4H7zm10 2H7a2 2 0 0 0-2 2v10a2 2 0 0 0 2 2h10a2 2 0 0 0 2-2V7a2 2 0 0 0-2-2z"/><path fill-rule="evenodd" clip-rule="evenodd" d="M11 11H8v2h3v3h2v-3h3v-2h-3V8h-2v3zM3 7a4 4 0 0 1 4-4h10a4 4 0 0 1 4 4v10a4 4 0 0 1-4 4H7a4 4 0 0 1-4-4V7zm4-2h10a2 2 0 0 1 2 2v10a2 2 0 0 1-2 2H7a2 2 0 0 1-2-2V7a2 2 0 0 1 2-2z"/></symbol></svg><svg><symbol viewBox="0 0 24 24" id="icon-AddBlock"><path d="M4 5h16" stroke="#4C4C4C" stroke-width="2" stroke-linecap="round"/><path d="M8 15.5h8" stroke="#4C4C4C" stroke-width="2" stroke-linecap="round"/><path d="M12 11.5v8" stroke="#4C4C4C" stroke-width="2" stroke-linecap="round"/></symbol></svg></svg>