<svg width="632" height="88" viewBox="0 0 632 88" fill="none" xmlns="http://www.w3.org/2000/svg">
<path d="M333.189 63.9992C332.463 64.012 331.741 63.872 331.073 63.5877C331.005 63.5877 329.48 62.8448 327.773 61.8047C326.066 60.7646 324.712 59.7359 324.655 59.6902C324.154 59.2744 323.734 58.7715 323.414 58.2043L324.393 57.6214C324.649 58.0572 324.98 58.4443 325.372 58.7644C325.372 58.7644 326.726 59.8045 328.387 60.8103C330.049 61.8161 331.562 62.5248 331.585 62.5362C332.636 62.9419 333.8 62.9419 334.851 62.5362C334.851 62.5362 336.387 61.8161 338.049 60.8103C339.71 59.8045 341.053 58.7758 341.064 58.7644C341.949 57.9829 342.534 56.9156 342.714 55.7469C342.714 55.7469 342.897 53.9868 342.897 51.9751C342.897 49.9635 342.726 48.2148 342.714 48.2033C342.532 47.0346 341.949 45.966 341.064 45.1859C341.064 45.1859 339.71 44.1458 338.049 43.14C336.387 42.1341 334.794 41.4484 334.794 41.4484C333.743 41.0426 332.579 41.0426 331.528 41.4484C331.528 41.4484 329.992 42.1684 328.342 43.1742C326.692 44.1801 325.36 45.1973 325.349 45.2087C324.958 45.5273 324.626 45.9145 324.37 46.3517L323.414 45.7916C323.74 45.2216 324.168 44.7173 324.677 44.3058C324.677 44.3058 326.077 43.2314 327.795 42.1913C329.514 41.1512 331.039 40.4425 331.096 40.4083C332.451 39.8639 333.962 39.8639 335.318 40.4083C335.386 40.4083 336.899 41.1512 338.618 42.1913C340.336 43.2314 341.622 44.2601 341.724 44.3058C342.858 45.2773 343.602 46.6303 343.818 48.1119C343.818 48.1805 344 49.9292 344 51.998C344 54.0668 343.83 55.8155 343.818 55.8841C343.602 57.3657 342.858 58.7172 341.724 59.6902C341.724 59.6902 340.325 60.7646 338.606 61.8047C336.888 62.8448 335.363 63.5534 335.306 63.5877C334.638 63.872 333.916 64.012 333.189 63.9992Z" fill="#F1516F"/>
<path d="M320 48.5706H324.552V49.7136H321.138V55.4285H320V48.5706Z" fill="#F1516F"/>
<path d="M329.104 49.7136C329.555 49.7136 329.994 49.8479 330.368 50.0993C330.742 50.3494 331.034 50.7065 331.206 51.1252C331.38 51.5423 331.424 52.0024 331.336 52.4453C331.249 52.8882 331.031 53.2968 330.714 53.6154C330.395 53.9354 329.99 54.1526 329.548 54.2412C329.107 54.3298 328.649 54.284 328.233 54.1112C327.818 53.9383 327.462 53.6454 327.212 53.2697C326.962 52.8939 326.828 52.451 326.828 51.9995C326.828 51.3938 327.068 50.8123 327.495 50.3837C327.922 49.9536 328.501 49.7136 329.104 49.7136ZM329.104 48.5706C328.429 48.5706 327.769 48.7721 327.208 49.1478C326.646 49.525 326.209 50.0608 325.95 50.6865C325.691 51.3138 325.624 52.0038 325.755 52.6682C325.888 53.334 326.213 53.944 326.69 54.4241C327.168 54.9041 327.775 55.2299 328.438 55.3627C329.101 55.4942 329.787 55.427 330.411 55.167C331.034 54.9084 331.567 54.4684 331.943 53.904C332.317 53.3411 332.518 52.6782 332.518 51.9995C332.518 51.0894 332.158 50.2179 331.518 49.575C330.878 48.9321 330.01 48.5706 329.104 48.5706Z" fill="#F1516F"/>
<path d="M337.07 55.4287C336.53 55.4272 335.996 55.2972 335.514 55.0472C335.033 54.7986 334.618 54.4386 334.302 53.9957C333.988 53.5542 333.782 53.0427 333.702 52.5055C333.622 51.9669 333.671 51.4183 333.844 50.9025C334.018 50.3867 334.309 49.921 334.698 49.5424C335.086 49.1623 335.558 48.8823 336.076 48.7223C336.594 48.5623 337.142 48.528 337.675 48.6237C338.207 48.718 338.71 48.9394 339.141 49.268L338.447 50.171C338.05 49.8724 337.567 49.7109 337.07 49.7138C336.705 49.7138 336.345 49.8024 336.021 49.9724C335.695 50.1424 335.416 50.3896 335.207 50.691C334.998 50.9925 334.864 51.3397 334.816 51.704C334.769 52.0683 334.81 52.4384 334.935 52.7841C335.06 53.1299 335.268 53.4385 335.538 53.6871C335.807 53.9357 336.133 54.1142 336.487 54.2085C336.841 54.3028 337.211 54.3114 337.57 54.23C337.927 54.15 338.258 53.9857 338.538 53.7485L339.267 54.6286C338.651 55.1458 337.874 55.4301 337.07 55.4287Z" fill="#F1516F"/>
<path d="M307 40H293C290 40 288 42.5 288 45V59C288 62.5 291 64.0003 293 64.0003H307C310.5 64.0003 312 61 312 59V45C312 42 309.5 40 307 40Z" fill="#3377C9"/>
<path d="M305.039 46.961C303.478 45.401 300.939 45.401 299.379 46.961C298.313 48.027 297.943 49.598 298.404 51.023L293.897 55.531C293.829 55.599 293.79 55.691 293.79 55.788V57.846C293.79 58.047 293.953 58.21 294.154 58.21H296.212C296.309 58.21 296.401 58.172 296.47 58.103L296.984 57.589C297.063 57.51 297.101 57.4 297.088 57.289L297.024 56.736L297.79 56.664C297.964 56.648 298.102 56.51 298.118 56.336L298.19 55.57L298.743 55.635C298.846 55.648 298.949 55.614 299.027 55.545C299.105 55.476 299.149 55.377 299.149 55.273V54.596H299.814C299.911 54.596 300.003 54.557 300.071 54.489L301.005 53.569C302.429 54.03 303.973 53.688 305.039 52.621C306.6 51.061 306.6 48.522 305.039 46.961ZM304.01 49.534C303.584 49.96 302.892 49.96 302.466 49.534C302.041 49.108 302.041 48.416 302.466 47.991C302.892 47.565 303.584 47.565 304.01 47.991C304.435 48.416 304.435 49.108 304.01 49.534Z" fill="white"/>
<path d="M369.148 55.0146C369.148 54.9756 369.148 54.9496 369.148 54.9106C369.161 54.7296 369.173 54.6006 369.173 54.5486C369.173 54.4196 369.389 53.0876 369.415 52.7896C369.44 52.4796 369.365 52.4146 369.365 52.4146C369.569 51.2766 369.186 50.0616 369.186 50.0616C369.313 49.9446 369.046 49.3366 369.046 49.3366C368.843 48.8326 368.589 48.1216 368.589 48.1216C368.551 47.9656 368.486 47.7336 368.448 47.4746C368.41 47.0866 368.41 46.6856 368.41 46.5566C368.41 46.4526 368.537 46.4656 368.537 46.3756C368.537 46.2716 368.41 46.0136 368.41 45.9876C368.41 45.9616 368.41 45.9226 368.423 45.8966C368.435 45.8706 368.461 45.8446 368.461 45.8446C368.461 45.7286 368.372 45.5996 368.232 45.5996H367.138C366.998 45.5996 366.909 45.7156 366.909 45.8446C366.909 45.8446 366.935 45.8706 366.947 45.8966C366.96 45.9226 366.96 45.9616 366.96 45.9876C366.947 46.0136 366.833 46.2716 366.833 46.3756C366.833 46.4656 366.96 46.4656 366.96 46.5566C366.96 46.6856 366.96 47.0866 366.922 47.4746C366.884 47.7336 366.821 47.9656 366.783 48.1346C366.783 48.1346 366.527 48.8456 366.324 49.3496C366.324 49.3496 366.044 49.9576 366.184 50.0746C366.184 50.0746 365.816 51.2896 366.007 52.4276C366.007 52.4276 365.93 52.5056 365.955 52.8026C365.981 53.1136 366.197 54.4326 366.197 54.5616C366.197 54.6136 366.209 54.7426 366.222 54.9236V55.0146C366.222 55.8166 365.891 56.2176 365.891 56.7346C365.891 57.4326 366.324 57.7956 367.685 57.7956C369.046 57.7956 369.479 57.4326 369.479 56.7346C369.479 56.2046 369.148 55.8166 369.148 55.0146Z" fill="black"/>
<path d="M361.908 55.0046C361.908 54.9656 361.908 54.9396 361.908 54.9016C361.923 54.7206 361.938 54.5916 361.938 54.5396C361.938 54.4106 362.198 53.0796 362.228 52.7826C362.259 52.4726 362.167 52.4076 362.167 52.4076C362.411 51.2706 361.953 50.0566 361.953 50.0566C362.121 49.9406 361.785 49.3326 361.785 49.3326C361.541 48.8296 361.236 48.1186 361.236 48.1186C361.19 47.9636 361.114 47.7306 361.068 47.4726C361.022 47.0846 361.022 46.6846 361.022 46.5556C361.022 46.4516 361.175 46.4646 361.175 46.3746C361.175 46.2706 361.022 46.0126 361.022 45.9866C361.022 45.9736 361.022 45.9226 361.038 45.8966C361.053 45.8706 361.083 45.8446 361.083 45.8446C361.083 45.7286 360.976 45.5996 360.809 45.5996H359.496C359.328 45.5996 359.221 45.7156 359.221 45.8446C359.221 45.8446 359.252 45.8706 359.267 45.8966C359.282 45.9226 359.282 45.9606 359.282 45.9866C359.267 46.0126 359.13 46.2706 359.13 46.3746C359.13 46.4646 359.282 46.4646 359.282 46.5556C359.282 46.6846 359.282 47.0846 359.236 47.4726C359.191 47.7306 359.114 47.9636 359.068 48.1316C359.068 48.1316 358.763 48.8416 358.519 49.3456C358.519 49.3456 358.183 49.9526 358.351 50.0696C358.351 50.0696 357.908 51.2836 358.137 52.4206C358.137 52.4206 358.046 52.4986 358.076 52.7956C358.107 53.1056 358.366 54.4236 358.366 54.5526C358.366 54.6036 358.382 54.7336 358.397 54.9146V55.0176C358.397 55.8186 358 56.2186 358 56.7356C358 57.4336 358.519 57.7956 360.152 57.7956C361.785 57.7956 362.304 57.4336 362.304 56.7356C362.304 56.1936 361.908 55.8056 361.908 55.0046Z" fill="#8E9090"/>
<path d="M366.18 56.1813C366.18 56.1273 366.18 56.0863 366.18 56.0453C366.194 55.8013 366.208 55.6253 366.208 55.5583C366.208 55.3813 366.511 53.5933 366.552 53.1733C366.594 52.7533 366.483 52.6593 366.483 52.6593C366.773 51.1283 366.249 49.4883 366.249 49.4883C366.442 49.3263 366.042 48.5133 366.042 48.5133C365.752 47.8363 365.408 46.8743 365.408 46.8743C365.352 46.6573 365.27 46.3463 365.214 45.9933C365.159 45.4653 365.159 44.9233 365.159 44.7473C365.159 44.6123 365.339 44.6253 365.339 44.4903C365.339 44.3413 365.159 44.0023 365.159 43.9613C365.159 43.9343 365.159 43.8803 365.173 43.8393C365.187 43.7993 365.228 43.7723 365.228 43.7723C365.228 43.6093 365.104 43.4473 364.897 43.4473H363.352C363.159 43.4473 363.021 43.6093 363.021 43.7723C363.021 43.7723 363.063 43.7993 363.077 43.8393C363.09 43.8803 363.09 43.9343 363.09 43.9613C363.077 44.0023 362.897 44.3413 362.897 44.4903C362.897 44.6123 363.077 44.6123 363.077 44.7473C363.077 44.9233 363.077 45.4653 363.021 45.9933C362.966 46.3463 362.883 46.6573 362.828 46.8743C362.828 46.8743 362.483 47.8363 362.194 48.5133C362.194 48.5133 361.808 49.3263 361.987 49.4883C361.987 49.4883 361.463 51.1283 361.739 52.6723C361.739 52.6723 361.628 52.7673 361.67 53.1873C361.711 53.6073 362.015 55.3953 362.015 55.5713C362.015 55.6393 362.042 55.8153 362.042 56.0593V56.1943C362.042 57.2923 361.587 57.8203 361.587 58.5243C361.587 59.4593 362.194 59.9473 364.097 59.9473C366.001 59.9473 366.608 59.4593 366.608 58.5243C366.635 57.8063 366.18 57.2783 366.18 56.1813Z" fill="#E41E2B"/>
<path d="M3.88973 63.8747L18.3222 51.3867L17.6471 46.0051L3.84502 63.8324C3.83984 63.8384 3.83717 63.8461 3.83756 63.8541C3.83796 63.862 3.84139 63.8694 3.84715 63.8749C3.85291 63.8803 3.86054 63.8834 3.86847 63.8833C3.8764 63.8833 3.88402 63.8802 3.88973 63.8747V63.8747Z" fill="#145BB0"/>
<path d="M21.8825 44.5024L18.2399 50.7337L17.6472 46.0047L21.8465 44.4577C21.8524 44.4559 21.8587 44.456 21.8645 44.4578C21.8704 44.4597 21.8756 44.4632 21.8795 44.468C21.8833 44.4728 21.8857 44.4786 21.8862 44.4847C21.8867 44.4908 21.8855 44.497 21.8825 44.5024V44.5024ZM11.4543 57.3118L18.3223 51.3864L2.54651 40.1177L11.4543 57.3118Z" fill="#1980FF"/>
<path d="M21.8824 44.5019L18.2398 50.7332L17.6471 46.0042L21.8464 44.4572C21.8523 44.4555 21.8586 44.4555 21.8644 44.4573C21.8703 44.4592 21.8755 44.4627 21.8793 44.4675C21.8832 44.4723 21.8855 44.4781 21.8861 44.4842C21.8866 44.4904 21.8853 44.4965 21.8824 44.5019V44.5019ZM11.4542 57.3113L18.3222 51.3859L2.54639 40.1172L11.4542 57.3113Z" fill="#1980FF"/>
<path d="M395.416 61.8246V48.5721C395.372 46.5515 394.153 44.8132 392.4 44.0258C391.821 43.7732 391.197 43.6098 390.543 43.5801C387.334 43.4018 384.853 45.3035 384.184 47.8738C383.753 49.4338 384.08 51.3206 385.165 52.8955C386.487 54.8269 391.91 59.9675 394.54 62.2555C394.629 62.3298 394.748 62.3595 394.866 62.3595C395.178 62.3743 395.416 62.1366 395.416 61.8246ZM394.287 55.7481C394.287 56.2829 393.856 56.7286 393.321 56.7286C392.786 56.7286 392.341 56.2978 392.341 55.7481C392.341 55.2132 392.772 54.7823 393.321 54.7823C393.856 54.7675 394.287 55.2132 394.287 55.7481Z" fill="#5C4095"/>
<path d="M399.487 54.9754C398.15 54.9754 397.065 56.06 397.065 57.3971C397.065 58.7343 398.15 59.8188 399.487 59.8188C400.824 59.8188 401.909 58.7343 401.909 57.3971C401.909 56.0451 400.824 54.9754 399.487 54.9754Z" fill="#5C4095"/>
<path d="M397.065 60.4578C396.605 60.4578 396.233 60.8292 396.233 61.2898C396.233 61.7504 396.605 62.1218 397.065 62.1218C397.526 62.1218 397.897 61.7504 397.897 61.2898C397.897 60.8292 397.526 60.4578 397.065 60.4578Z" fill="#5C4095"/>
<path d="M404.092 49.0923C402.324 49.0923 400.883 50.5334 400.883 52.3014C400.883 54.0694 402.324 55.5106 404.092 55.5106C405.875 55.5106 407.301 54.0694 407.301 52.3014C407.301 50.5334 405.875 49.0923 404.092 49.0923Z" fill="#5C4095"/>
<path d="M406.321 45.1389C405.385 45.1389 404.643 45.8966 404.643 46.8326C404.643 47.7686 405.4 48.5115 406.321 48.5115C407.257 48.5115 408 47.7538 408 46.8326C408.015 45.8818 407.257 45.1389 406.321 45.1389Z" fill="#5C4095"/>
<path d="M399.873 49.1806C401.582 49.1806 402.963 47.7989 402.963 46.0903C402.963 44.3817 401.582 43 399.873 43C398.164 43 396.783 44.3817 396.783 46.0903C396.798 47.7989 398.179 49.1806 399.873 49.1806Z" fill="#5C4095"/>
<path d="M399.992 51.9001C399.992 52.9104 399.175 53.7275 398.15 53.7275C397.139 53.7275 396.322 52.9104 396.322 51.9001C396.322 50.8898 397.139 50.0726 398.15 50.0726C399.175 50.0578 399.992 50.8898 399.992 51.9001Z" fill="#5C4095"/>
<path d="M492.908 42H491.09V43.818H492.908V42Z" fill="black"/>
<path d="M494.724 42V49.2764H501.997V42H494.724ZM500.183 47.4607H496.546V43.8293H500.183V47.4607Z" fill="black"/>
<path d="M483.819 51.0904H482.001V52.9084H483.819V51.0904Z" fill="black"/>
<path d="M489.277 49.2764V42H482.001V49.2764H489.277ZM483.819 43.818H487.461V47.4607H483.83L483.819 43.818Z" fill="black"/>
<path d="M487.455 51.0904H485.637V52.9084H487.455V51.0904Z" fill="black"/>
<path d="M482.001 54.7231V61.9961H489.277V54.7231H482.001ZM487.461 60.1804H483.83V56.5491H487.461V60.1804Z" fill="black"/>
<path d="M492.908 45.6365H491.09V51.0904H492.908V45.6365Z" fill="black"/>
<path d="M494.726 54.7263H496.544V52.9084H494.726V51.0904H492.908V52.9084H491.09V54.7263H492.908V56.5443H491.09V61.9993H492.908V58.3623H494.726V54.7263Z" fill="black"/>
<path d="M494.727 61.9986H498.363V60.1795H496.545V58.3616H494.727V61.9986Z" fill="black"/>
<path d="M498.364 51.0904H496.546V52.9084H498.364V51.0904Z" fill="black"/>
<path d="M498.364 56.5455H496.546V58.3634H500.183V56.5455H502.001V54.7275H500.183V52.9095H498.364V56.5455Z" fill="black"/>
<path d="M502 60.1807H500.182V61.9987H502V60.1807Z" fill="black"/>
<path d="M502 51.0904H500.182V52.9084H502V51.0904Z" fill="black"/>
<path d="M454.001 54C455.105 54 456.001 53.104 456.001 52C456.001 50.8947 455.105 50 454.001 50C452.897 50 452.001 50.8947 452.001 52C452.001 53.104 452.897 54 454.001 54Z" fill="#6C7784"/>
<path d="M460.001 54C461.105 54 462.001 53.104 462.001 52C462.001 50.8947 461.105 50 460.001 50C458.897 50 458.001 50.8947 458.001 52C458.001 53.104 458.897 54 460.001 54Z" fill="#6C7784"/>
<path d="M466.001 54C467.105 54 468.001 53.104 468.001 52C468.001 50.8947 467.105 50 466.001 50C464.897 50 464.001 50.8947 464.001 52C464.001 53.104 464.897 54 466.001 54Z" fill="#6C7784"/>
<path d="M275 40H261C258 40 256 42.5 256 45V59C256 62.5 259 64.0003 261 64.0003H275C278.5 64.0003 280 61 280 59V45C280 42 277.5 40 275 40Z" fill="#FFF200"/>
<path d="M257 49.0642H258.625V58H260.249V47.4395H257V49.0642Z" fill="#DA1B20"/>
<path d="M258.625 46.6247H261.062V57.9976H262.687V45H258.625V46.6247ZM265.936 51.4988C265.936 48.8107 268.122 46.6247 270.81 46.6247C273.498 46.6247 275.684 48.8107 275.684 51.4988H277.309C277.309 47.9155 274.394 45 270.81 45C267.227 45 264.311 47.9155 264.311 51.4988C264.311 55.0821 267.227 57.9976 270.81 57.9976H280V56.3729H270.81C268.122 56.3729 265.936 54.1869 265.936 51.4988Z" fill="#DA1B20"/>
<path d="M270.81 53.1257C269.914 53.1257 269.185 52.397 269.185 51.501C269.185 50.605 269.914 49.8763 270.81 49.8763C271.706 49.8763 272.434 50.605 272.434 51.501H274.059C274.059 49.7089 272.602 48.2516 270.81 48.2516C269.018 48.2516 267.56 49.7089 267.56 51.501C267.56 53.293 269.018 54.7504 270.81 54.7504H280V53.1257H270.81Z" fill="#DA1B20"/>
<rect x="64" y="40" width="24" height="24" rx="12" fill="#1877F2"/>
<path d="M80.6375 55.176H77.9681V63.8398C77.9681 63.8398 77 64 76 64C75 64 73.9236 63.8398 73.9236 63.8398V55.176H72V51.5865H73.9236V49.263C73.9236 47.6025 74.6791 45 78.0041 45L81 45.0135V48.498H78.8262C78.4697 48.498 77.9684 48.684 77.9684 49.476V51.5895H80.9909L80.6375 55.176Z" fill="white"/>
<path d="M242.794 52.8057C243.365 54.0194 242.717 54.5991 241.234 55.5893C239.974 56.4287 238.234 56.7358 237.115 56.8593L238.052 57.8314C239.381 59.196 240.641 60.5169 241.522 61.4308C242.804 62.7572 240.739 64.8849 239.458 63.5876L235.988 59.9773C234.66 61.3563 233.387 62.6773 232.519 63.5912C231.235 64.894 229.171 62.7845 230.44 61.4363L233.911 57.8369L234.861 56.863C233.729 56.7412 232.014 56.416 230.769 55.5947V55.5929C229.288 54.5972 228.637 54.0194 229.202 52.8057C229.542 52.1171 230.46 51.5411 231.683 52.5368C231.683 52.5368 233.334 53.9013 235.998 53.9013C238.661 53.9013 240.313 52.5368 240.313 52.5368C241.534 51.5356 242.457 52.1171 242.794 52.8057Z" fill="#F4741E"/>
<path d="M235.999 52C232.696 52 230 49.3139 230 46.0071C230 42.6861 232.696 40 235.999 40C239.304 40 242 42.6861 242 46.0071C242 49.3139 239.304 52 235.999 52ZM235.999 43.0428C234.376 43.0428 233.053 44.368 233.053 46.0071C233.053 47.632 234.376 48.9572 235.999 48.9572C237.622 48.9572 238.945 47.632 238.945 46.0071C238.947 44.368 237.624 43.0428 235.999 43.0428Z" fill="#F4741E"/>
<rect x="160" y="40" width="24" height="24" rx="12" fill="#F13630"/>
<path d="M169.212 60L172.009 54.0275H173.244V60H175V44H171.89C169.911 44 167.553 46.0125 167.553 49.2811C167.553 52.5498 170.512 53.8698 170.512 53.8698L167 60H169.212ZM170.296 51.8295C169.864 51.3052 169.488 50.4318 169.488 48.983C169.488 45.8083 171.376 45.3977 171.636 45.3571C171.656 45.3536 171.673 45.3525 171.692 45.3525H173.195V52.6124H172.026C171.358 52.6124 170.712 52.3352 170.296 51.8295Z" fill="white"/>
<path d="M50.7212 52.6844C50.7096 50.717 51.5937 49.234 53.3791 48.1397C52.3806 46.6986 50.8698 45.9057 48.8784 45.7523C46.9929 45.6024 44.9299 46.8589 44.1746 46.8589C43.3763 46.8589 41.5509 45.8046 40.1145 45.8046C37.1502 45.8499 34 48.1867 34 52.9405C34 54.3451 34.2546 55.7966 34.764 57.29C35.4449 59.2574 37.8999 64.0775 40.4607 63.9991C41.7998 63.9677 42.7468 63.0424 44.4893 63.0424C46.1804 63.0424 47.0558 63.9991 48.5495 63.9991C51.1331 63.9625 53.3534 59.5798 54 57.6072C50.5352 55.9605 50.7212 52.7837 50.7212 52.6844ZM47.7139 43.886C49.1646 42.1486 49.0329 40.5681 48.9901 40C47.7082 40.0749 46.2262 40.88 45.382 41.8698C44.4522 42.931 43.9056 44.2432 44.023 45.7227C45.4077 45.829 46.6725 45.111 47.7139 43.886Z" fill="black"/>
<path d="M211 40H197C194 40 192 42.5 192 45V59C192 62.5 195 64.0003 197 64.0003H211C214.5 64.0003 216 61 216 59V45C216 42 213.5 40 211 40Z" fill="#005FF9"/>
<path d="M206.406 52C206.406 53.3273 205.327 54.4062 204 54.4062C202.673 54.4062 201.594 53.3273 201.594 52C201.594 50.6727 202.673 49.5938 204 49.5938C205.327 49.5938 206.406 50.6727 206.406 52ZM204 44C199.589 44 196 47.5894 196 52C196 56.4106 199.589 60 204 60C205.617 60 207.175 59.5197 208.507 58.6083L208.53 58.5931L207.451 57.3396L207.434 57.3513C206.408 58.0108 205.221 58.3599 204 58.3599C200.493 58.3599 197.64 55.5074 197.64 52C197.64 48.4938 200.493 45.6401 204 45.6401C207.507 45.6401 210.36 48.4938 210.36 52C210.36 52.4545 210.31 52.9149 210.21 53.3671C210.01 54.193 209.431 54.446 208.997 54.4121C208.561 54.3769 208.05 54.0653 208.046 53.305V52.7251V52C208.046 49.7683 206.232 47.9537 204 47.9537C201.768 47.9537 199.954 49.7683 199.954 52C199.954 54.2317 201.768 56.0463 204 56.0463C205.084 56.0463 206.1 55.6222 206.867 54.8525C207.313 55.546 208.039 55.9807 208.865 56.0463C208.937 56.0521 209.009 56.0556 209.081 56.0556C209.663 56.0556 210.239 55.8612 210.704 55.5074C211.185 55.1442 211.542 54.6171 211.74 53.9845C211.772 53.8826 211.83 53.6483 211.83 53.6471L211.831 53.6389C211.948 53.1316 212 52.6256 212 52C212 47.5894 208.411 44 204 44Z" fill="#EF9910"/>
<path d="M96 51.5C96 46.0788 96 43.3683 97.6841 41.6841C99.3683 40 102.079 40 107.5 40H108.5C113.921 40 116.632 40 118.316 41.6841C120 43.3683 120 46.0788 120 51.5V52.5C120 57.9212 120 60.6317 118.316 62.3158C116.632 64 113.921 64 108.5 64H107.5C102.079 64 99.3683 64 97.6841 62.3158C96 60.6317 96 57.9212 96 52.5V51.5Z" fill="#2787F5"/>
<path fill-rule="evenodd" clip-rule="evenodd" d="M102.5 47.5H100.75C100.25 47.5 100.15 47.7354 100.15 47.9949C100.15 48.4585 100.743 50.7574 102.913 53.7979C104.359 55.8744 106.397 57 108.252 57C109.364 57 109.502 56.75 109.502 56.3194V54.75C109.502 54.25 109.608 54.1502 109.96 54.1502C110.219 54.1502 110.665 54.28 111.703 55.2811C112.89 56.4677 113.086 57 113.753 57H115.503C116.004 57 116.254 56.75 116.109 56.2567C115.952 55.765 115.385 55.0515 114.633 54.2058C114.225 53.7238 113.613 53.2047 113.428 52.9451C113.168 52.6114 113.242 52.463 113.428 52.1664C113.428 52.1664 115.56 49.163 115.783 48.1433C115.894 47.7725 115.783 47.5 115.253 47.5H113.503C113.058 47.5 112.853 47.7354 112.741 47.9949C112.741 47.9949 111.851 50.1641 110.59 51.5731C110.182 51.981 109.997 52.1108 109.774 52.1108C109.663 52.1108 109.502 51.981 109.502 51.6103V48.1433C109.502 47.6983 109.373 47.5 109.002 47.5H106.251C105.973 47.5 105.806 47.7065 105.806 47.9022C105.806 48.324 106.436 48.4213 106.501 49.6079V52.185C106.501 52.75 106.399 52.8525 106.177 52.8525C105.583 52.8525 104.14 50.6736 103.284 48.1804C103.116 47.6958 102.948 47.5 102.5 47.5V47.5Z" fill="white"/>
<path d="M133.319 54.5035L132.484 57.6222L129.43 57.6868C128.518 55.9943 128 54.0578 128 52C128 50.0102 128.484 48.1337 129.342 46.4814H129.342L132.061 46.9798L133.252 49.6818C133.002 50.4084 132.867 51.1884 132.867 52C132.867 52.8809 133.026 53.7249 133.319 54.5035Z" fill="#FBBB00"/>
<path d="M151.79 49.759C151.928 50.4849 152 51.2346 152 52.0008C152 52.8599 151.91 53.6979 151.738 54.5063C151.153 57.257 149.627 59.659 147.512 61.3587L147.512 61.3581L144.088 61.1834L143.603 58.1583C145.006 57.3355 146.103 56.0478 146.68 54.5063H140.264V49.759H146.774H151.79Z" fill="#518EF8"/>
<path d="M147.512 61.358L147.513 61.3586C145.457 63.0116 142.844 64.0006 140.001 64.0006C135.431 64.0006 131.457 61.4464 129.431 57.6875L133.319 54.5042C134.333 57.2088 136.942 59.1341 140.001 59.1341C141.315 59.1341 142.547 58.7787 143.604 58.1582L147.512 61.358Z" fill="#28B446"/>
<path d="M147.66 42.7626L143.772 45.9452C142.678 45.2615 141.385 44.8665 140 44.8665C136.872 44.8665 134.214 46.8801 133.252 49.6817L129.342 46.4813H129.342C131.339 42.6307 135.362 40 140 40C142.912 40 145.581 41.0371 147.66 42.7626Z" fill="#F14336"/>
<path d="M422.001 54C423.105 54 424.001 53.104 424.001 52C424.001 50.8947 423.105 50 422.001 50C420.897 50 420.001 50.8947 420.001 52C420.001 53.104 420.897 54 422.001 54Z" fill="#8991A9"/>
<path d="M428.001 54C429.105 54 430.001 53.104 430.001 52C430.001 50.8947 429.105 50 428.001 50C426.897 50 426.001 50.8947 426.001 52C426.001 53.104 426.897 54 428.001 54Z" fill="#8991A9"/>
<path d="M434.001 54C435.105 54 436.001 53.104 436.001 52C436.001 50.8947 435.105 50 434.001 50C432.897 50 432.001 50.8947 432.001 52C432.001 53.104 432.897 54 434.001 54Z" fill="#8991A9"/>
<path d="M417.577 31.9981C416.608 32.0153 415.647 31.8286 414.755 31.4495C414.664 31.4495 412.631 30.459 410.355 29.0722C408.079 27.6854 406.274 26.3139 406.198 26.2529C405.53 25.6986 404.971 25.0281 404.544 24.2718L405.849 23.4946C406.19 24.0756 406.632 24.5919 407.154 25.0186C407.154 25.0186 408.959 26.4053 411.175 27.7464C413.39 29.0874 415.408 30.0323 415.438 30.0475C416.84 30.5885 418.391 30.5885 419.793 30.0475C419.793 30.0475 421.841 29.0874 424.056 27.7464C426.272 26.4053 428.062 25.0338 428.077 25.0186C429.257 23.9766 430.036 22.5536 430.277 20.9954C430.277 20.9954 430.52 18.6485 430.52 15.9664C430.52 13.2843 430.292 10.9527 430.277 10.9375C430.034 9.37928 429.257 7.95441 428.077 6.91433C428.077 6.91433 426.272 5.52756 424.056 4.18651C421.841 2.84546 419.717 1.93109 419.717 1.93109C418.315 1.3901 416.764 1.3901 415.362 1.93109C415.362 1.93109 413.314 2.89116 411.114 4.23222C408.914 5.57327 407.139 6.92957 407.123 6.94481C406.602 7.3696 406.16 7.88584 405.819 8.46874L404.544 7.72201C404.978 6.96195 405.549 6.28951 406.228 5.7409C406.228 5.7409 408.095 4.30842 410.386 2.92165C412.677 1.53488 414.71 0.590044 414.786 0.544327C416.593 -0.181442 418.607 -0.181442 420.415 0.544327C420.506 0.544327 422.524 1.53488 424.815 2.92165C427.106 4.30842 428.821 5.67995 428.957 5.7409C430.469 7.03624 431.461 8.84019 431.749 10.8156C431.749 10.907 431.992 13.2386 431.992 15.9969C431.992 18.7552 431.764 21.0868 431.749 21.1783C431.461 23.1536 430.469 24.9557 428.957 26.2529C428.957 26.2529 427.091 27.6854 424.8 29.0722C422.509 30.459 420.476 31.4038 420.4 31.4495C419.508 31.8286 418.547 32.0153 417.577 31.9981Z" fill="#F1516F"/>
<path d="M399.992 11.4272H406.061V12.9511H401.509V20.5707H399.992V11.4272Z" fill="#F1516F"/>
<path d="M412.13 12.9511C412.731 12.9511 413.317 13.1302 413.816 13.4654C414.315 13.7988 414.704 14.275 414.933 14.8332C415.165 15.3894 415.223 16.0028 415.106 16.5933C414.99 17.1838 414.7 17.7286 414.277 18.1534C413.852 18.5801 413.312 18.8697 412.722 18.9878C412.134 19.1059 411.523 19.0449 410.969 18.8144C410.416 18.5839 409.941 18.1934 409.608 17.6924C409.274 17.1914 409.096 16.6009 409.096 15.999C409.096 15.1913 409.416 14.416 409.985 13.8445C410.554 13.2711 411.326 12.9511 412.13 12.9511ZM412.13 11.4272C411.231 11.4272 410.351 11.6958 409.602 12.1968C408.853 12.6997 408.27 13.414 407.925 14.2484C407.58 15.0846 407.491 16.0047 407.665 16.8905C407.842 17.7781 408.276 18.5915 408.912 19.2316C409.549 19.8716 410.359 20.306 411.242 20.4831C412.126 20.6584 413.04 20.5688 413.873 20.2221C414.704 19.8774 415.415 19.2906 415.916 18.5382C416.414 17.7877 416.682 16.9038 416.682 15.999C416.682 14.7855 416.202 13.6235 415.349 12.7663C414.495 11.9091 413.338 11.4272 412.13 11.4272Z" fill="#F1516F"/>
<path d="M422.752 20.571C422.031 20.5691 421.32 20.3958 420.677 20.0624C420.036 19.731 419.482 19.2509 419.061 18.6604C418.642 18.0718 418.367 17.3898 418.261 16.6736C418.155 15.9554 418.219 15.2239 418.45 14.5363C418.682 13.8486 419.071 13.2276 419.588 12.7228C420.106 12.2161 420.736 11.8427 421.426 11.6294C422.116 11.416 422.847 11.3703 423.558 11.4979C424.267 11.6237 424.939 11.9189 425.513 12.3571L424.588 13.561C424.059 13.1628 423.414 12.9476 422.752 12.9514C422.264 12.9514 421.785 13.0695 421.352 13.2962C420.918 13.5229 420.546 13.8524 420.267 14.2543C419.989 14.6563 419.81 15.1192 419.746 15.6049C419.683 16.0907 419.738 16.5841 419.905 17.045C420.072 17.506 420.349 17.9175 420.709 18.2489C421.068 18.5804 421.502 18.8185 421.974 18.9442C422.446 19.0699 422.94 19.0814 423.418 18.9728C423.894 18.8661 424.336 18.6471 424.709 18.3308L425.68 19.5043C424.859 20.1938 423.823 20.5729 422.752 20.571Z" fill="#F1516F"/>
<path d="M385.326 0H366.659C362.66 0 359.993 3.33325 359.993 6.6665V25.3327C359.993 29.9993 363.993 31.9996 366.659 31.9996H385.326C389.992 31.9996 391.992 27.9993 391.992 25.3327V6.6665C391.992 2.6666 388.659 0 385.326 0Z" fill="#3377C9"/>
<path d="M382.711 9.28115C380.63 7.2012 377.245 7.2012 375.165 9.28115C373.743 10.7025 373.25 12.7971 373.865 14.697L367.855 20.7075C367.765 20.7982 367.713 20.9209 367.713 21.0502V23.7941C367.713 24.0621 367.93 24.2794 368.198 24.2794H370.942C371.071 24.2794 371.194 24.2288 371.286 24.1368L371.971 23.4515C372.077 23.3461 372.127 23.1995 372.11 23.0515L372.025 22.3142L373.046 22.2182C373.278 22.1968 373.462 22.0128 373.483 21.7808L373.579 20.7595L374.317 20.8462C374.454 20.8635 374.591 20.8182 374.695 20.7262C374.799 20.6342 374.858 20.5022 374.858 20.3635V19.4609H375.745C375.874 19.4609 375.997 19.4089 376.087 19.3182L377.333 18.0916C379.231 18.7063 381.29 18.2503 382.711 16.8276C384.792 14.7477 384.792 11.3624 382.711 9.28115ZM381.339 12.7117C380.771 13.2797 379.849 13.2797 379.281 12.7117C378.714 12.1437 378.714 11.2211 379.281 10.6545C379.849 10.0865 380.771 10.0865 381.339 10.6545C381.906 11.2211 381.906 12.1437 381.339 12.7117Z" fill="white"/>
<path d="M462.855 20.019C462.855 19.967 462.855 19.9323 462.855 19.8803C462.873 19.639 462.889 19.467 462.889 19.3977C462.889 19.2257 463.177 17.4497 463.211 17.0524C463.245 16.6391 463.143 16.5524 463.143 16.5524C463.415 15.0351 462.906 13.4151 462.906 13.4151C463.075 13.2591 462.719 12.4485 462.719 12.4485C462.449 11.7765 462.109 10.8285 462.109 10.8285C462.058 10.6205 461.973 10.3112 461.922 9.96588C461.871 9.44856 461.871 8.91391 461.871 8.74191C461.871 8.60325 462.041 8.62058 462.041 8.50058C462.041 8.36192 461.871 8.01793 461.871 7.98326C461.871 7.9486 461.871 7.8966 461.889 7.86194C461.905 7.82727 461.939 7.7926 461.939 7.7926C461.939 7.63794 461.821 7.46594 461.634 7.46594H460.175C459.989 7.46594 459.87 7.62061 459.87 7.7926C459.87 7.7926 459.905 7.82727 459.921 7.86194C459.938 7.8966 459.938 7.9486 459.938 7.98326C459.921 8.01793 459.769 8.36192 459.769 8.50058C459.769 8.62058 459.938 8.62058 459.938 8.74191C459.938 8.91391 459.938 9.44856 459.887 9.96588C459.837 10.3112 459.751 10.6205 459.701 10.8459C459.701 10.8459 459.361 11.7938 459.09 12.4658C459.09 12.4658 458.717 13.2765 458.903 13.4325C458.903 13.4325 458.411 15.0524 458.666 16.5697C458.666 16.5697 458.565 16.6737 458.598 17.0697C458.633 17.4844 458.921 19.243 458.921 19.415C458.921 19.4843 458.937 19.6563 458.954 19.8976V20.019C458.954 21.0883 458.513 21.6229 458.513 22.3122C458.513 23.2429 459.09 23.7269 460.905 23.7269C462.719 23.7269 463.297 23.2429 463.297 22.3122C463.297 21.6056 462.855 21.0883 462.855 20.019Z" fill="black"/>
<path d="M453.202 20.0056C453.202 19.9536 453.202 19.919 453.202 19.8683C453.222 19.627 453.242 19.455 453.242 19.3856C453.242 19.2137 453.589 17.439 453.629 17.043C453.67 16.6297 453.547 16.543 453.547 16.543C453.873 15.0271 453.262 13.4085 453.262 13.4085C453.486 13.2538 453.038 12.4432 453.038 12.4432C452.713 11.7725 452.306 10.8245 452.306 10.8245C452.245 10.6179 452.143 10.3072 452.082 9.96322C452.021 9.44589 452.021 8.91257 452.021 8.74058C452.021 8.60192 452.225 8.61925 452.225 8.49925C452.225 8.36059 452.021 8.0166 452.021 7.98193C452.021 7.9646 452.021 7.8966 452.042 7.86194C452.062 7.82727 452.102 7.7926 452.102 7.7926C452.102 7.63794 451.959 7.46594 451.737 7.46594H449.986C449.762 7.46594 449.619 7.62061 449.619 7.7926C449.619 7.7926 449.661 7.82727 449.681 7.86194C449.701 7.8966 449.701 7.94727 449.701 7.98193C449.681 8.0166 449.498 8.36059 449.498 8.49925C449.498 8.61925 449.701 8.61925 449.701 8.74058C449.701 8.91257 449.701 9.44589 449.639 9.96322C449.579 10.3072 449.477 10.6179 449.415 10.8419C449.415 10.8419 449.009 11.7885 448.683 12.4605C448.683 12.4605 448.235 13.2698 448.459 13.4258C448.459 13.4258 447.869 15.0444 448.174 16.5604C448.174 16.5604 448.053 16.6644 448.093 17.0604C448.134 17.4737 448.479 19.231 448.479 19.403C448.479 19.471 448.501 19.6443 448.521 19.8856V20.023C448.521 21.0909 447.991 21.6243 447.991 22.3136C447.991 23.2442 448.683 23.7269 450.861 23.7269C453.038 23.7269 453.73 23.2442 453.73 22.3136C453.73 21.5909 453.202 21.0736 453.202 20.0056Z" fill="#8E9090"/>
<path d="M458.898 21.5745C458.898 21.5025 458.898 21.4478 458.898 21.3932C458.916 21.0678 458.935 20.8332 458.935 20.7439C458.935 20.5079 459.339 18.1239 459.394 17.5639C459.45 17.004 459.302 16.8786 459.302 16.8786C459.688 14.8373 458.99 12.6507 458.99 12.6507C459.247 12.4347 458.714 11.3508 458.714 11.3508C458.327 10.4481 457.868 9.16547 457.868 9.16547C457.794 8.87615 457.684 8.4615 457.61 7.99084C457.536 7.28686 457.536 6.56421 457.536 6.32955C457.536 6.14955 457.776 6.16688 457.776 5.98688C457.776 5.78822 457.536 5.33623 457.536 5.28157C457.536 5.24557 457.536 5.17357 457.555 5.1189C457.574 5.06557 457.628 5.02958 457.628 5.02958C457.628 4.81225 457.463 4.59625 457.187 4.59625H455.127C454.87 4.59625 454.686 4.81225 454.686 5.02958C454.686 5.02958 454.742 5.06557 454.761 5.1189C454.778 5.17357 454.778 5.24557 454.778 5.28157C454.761 5.33623 454.521 5.78822 454.521 5.98688C454.521 6.14955 454.761 6.14955 454.761 6.32955C454.761 6.56421 454.761 7.28686 454.686 7.99084C454.613 8.4615 454.502 8.87615 454.429 9.16547C454.429 9.16547 453.969 10.4481 453.583 11.3508C453.583 11.3508 453.069 12.4347 453.307 12.6507C453.307 12.6507 452.609 14.8373 452.977 16.8959C452.977 16.8959 452.829 17.0226 452.885 17.5826C452.939 18.1426 453.345 20.5265 453.345 20.7612C453.345 20.8518 453.381 21.0865 453.381 21.4118V21.5918C453.381 23.0558 452.774 23.7598 452.774 24.6984C452.774 25.9451 453.583 26.5957 456.12 26.5957C458.659 26.5957 459.468 25.9451 459.468 24.6984C459.504 23.7411 458.898 23.0371 458.898 21.5745Z" fill="#E41E2B"/>
<g clip-path="url(#clip0_443_2196)">
<path d="M5.18606 31.8321L24.4289 15.1819L23.5288 8.00653L5.12645 31.7757C5.11954 31.7837 5.11598 31.794 5.11651 31.8046C5.11703 31.8151 5.12161 31.8251 5.12929 31.8324C5.13696 31.8396 5.14715 31.8437 5.15772 31.8436C5.16829 31.8436 5.17844 31.8395 5.18606 31.8321V31.8321Z" fill="#145BB0"/>
<path d="M29.176 6.00299L24.3193 14.3112L23.529 8.00608L29.128 5.94338C29.1358 5.94108 29.1442 5.94115 29.152 5.9436C29.1598 5.94605 29.1667 5.95076 29.1719 5.95714C29.177 5.96353 29.1802 5.97129 29.1809 5.97945C29.1816 5.98761 29.1799 5.9958 29.176 6.00299V6.00299ZM15.272 23.0818L24.4291 15.1814L3.39526 0.15686L15.272 23.0818Z" fill="#1980FF"/>
<path d="M29.1758 6.00238L24.3192 14.3106L23.5289 8.00547L29.1278 5.94277C29.1357 5.94046 29.1441 5.94054 29.1519 5.94299C29.1597 5.94544 29.1666 5.95015 29.1718 5.95653C29.1769 5.96292 29.18 5.97068 29.1808 5.97884C29.1815 5.987 29.1798 5.99519 29.1758 6.00238V6.00238ZM15.2719 23.0812L24.429 15.1808L3.39514 0.15625L15.2719 23.0812Z" fill="#1980FF"/>
</g>
<path d="M495.211 29.0988V11.4291C495.152 8.73511 493.528 6.41746 491.19 5.36758C490.418 5.03082 489.586 4.81292 488.714 4.77331C484.435 4.5356 481.127 7.07115 480.236 10.4981C479.661 12.5781 480.097 15.0938 481.543 17.1936C483.306 19.7687 490.537 26.6227 494.043 29.6733C494.162 29.7723 494.32 29.8119 494.479 29.8119C494.895 29.8317 495.211 29.5148 495.211 29.0988ZM493.706 20.9969C493.706 21.71 493.132 22.3043 492.418 22.3043C491.705 22.3043 491.111 21.7298 491.111 20.9969C491.111 20.2838 491.685 19.7093 492.418 19.7093C493.132 19.6895 493.706 20.2838 493.706 20.9969Z" fill="#5C4095"/>
<path d="M500.639 19.9667C498.857 19.9667 497.411 21.4128 497.411 23.1956C497.411 24.9784 498.857 26.4245 500.639 26.4245C502.422 26.4245 503.868 24.9784 503.868 23.1956C503.868 21.393 502.422 19.9667 500.639 19.9667Z" fill="#5C4095"/>
<path d="M497.41 27.2764C496.796 27.2764 496.301 27.7716 496.301 28.3857C496.301 28.9998 496.796 29.495 497.41 29.495C498.024 29.495 498.52 28.9998 498.52 28.3857C498.52 27.7716 498.024 27.2764 497.41 27.2764Z" fill="#5C4095"/>
<path d="M506.779 12.1227C504.422 12.1227 502.501 14.0442 502.501 16.4015C502.501 18.7588 504.422 20.6802 506.779 20.6802C509.157 20.6802 511.058 18.7588 511.058 16.4015C511.058 14.0442 509.157 12.1227 506.779 12.1227Z" fill="#5C4095"/>
<path d="M509.752 6.85175C508.504 6.85175 507.513 7.86201 507.513 9.10997C507.513 10.3579 508.523 11.3484 509.752 11.3484C511 11.3484 511.99 10.3381 511.99 9.10997C512.01 7.8422 511 6.85175 509.752 6.85175Z" fill="#5C4095"/>
<path d="M501.154 12.2404C503.432 12.2404 505.274 10.3982 505.274 8.12015C505.274 5.84212 503.432 3.99988 501.154 3.99988C498.876 3.99988 497.034 5.84212 497.034 8.12015C497.053 10.3982 498.896 12.2404 501.154 12.2404Z" fill="#5C4095"/>
<path d="M501.312 15.8664C501.312 17.2134 500.223 18.3029 498.856 18.3029C497.509 18.3029 496.419 17.2134 496.419 15.8664C496.419 14.5194 497.509 13.4299 498.856 13.4299C500.223 13.4101 501.312 14.5194 501.312 15.8664Z" fill="#5C4095"/>
<path d="M617.199 2.66663H614.775V5.09052H617.199V2.66663Z" fill="black"/>
<path d="M619.62 2.66663V12.3682H629.317V2.66663H619.62ZM626.897 9.94738H622.048V5.10565H626.897V9.94738Z" fill="black"/>
<path d="M605.079 14.7868H602.655V17.2107H605.079V14.7868Z" fill="black"/>
<path d="M612.357 12.3682V2.66663H602.655V12.3682H612.357ZM605.079 5.09052H609.936V9.94738H605.094L605.079 5.09052Z" fill="black"/>
<path d="M609.928 14.7868H607.504V17.2107H609.928V14.7868Z" fill="black"/>
<path d="M602.655 19.6304V29.3275H612.357V19.6304H602.655ZM609.936 26.9066H605.094V22.0649H609.936V26.9066Z" fill="black"/>
<path d="M617.199 7.5152H614.775V14.7869H617.199V7.5152Z" fill="black"/>
<path d="M619.623 19.6346H622.047V17.2107H619.623V14.7868H617.199V17.2107H614.775V19.6346H617.199V22.0585H614.775V29.3317H617.199V24.4824H619.623V19.6346Z" fill="black"/>
<path d="M619.623 29.3308H624.471V26.9054H622.047V24.4815H619.623V29.3308Z" fill="black"/>
<path d="M624.473 14.7868H622.049V17.2107H624.473V14.7868Z" fill="black"/>
<path d="M624.473 22.0601H622.049V24.484H626.898V22.0601H629.322V19.6362H626.898V17.2123H624.473V22.0601Z" fill="black"/>
<path d="M629.321 26.907H626.897V29.3309H629.321V26.907Z" fill="black"/>
<path d="M629.321 14.7868H626.897V17.2107H629.321V14.7868Z" fill="black"/>
<path d="M567.989 18.6662C569.461 18.6662 570.656 17.4716 570.656 15.9996C570.656 14.5259 569.461 13.333 567.989 13.333C566.517 13.333 565.323 14.5259 565.323 15.9996C565.323 17.4716 566.517 18.6662 567.989 18.6662Z" fill="#6C7784"/>
<path d="M575.989 18.6662C577.461 18.6662 578.656 17.4716 578.656 15.9996C578.656 14.5259 577.461 13.333 575.989 13.333C574.517 13.333 573.323 14.5259 573.323 15.9996C573.323 17.4716 574.517 18.6662 575.989 18.6662Z" fill="#6C7784"/>
<path d="M583.989 18.6662C585.461 18.6662 586.655 17.4716 586.655 15.9996C586.655 14.5259 585.461 13.333 583.989 13.333C582.517 13.333 581.322 14.5259 581.322 15.9996C581.322 17.4716 582.517 18.6662 583.989 18.6662Z" fill="#6C7784"/>
<path d="M345.326 0H326.66C322.66 0 319.994 3.33325 319.994 6.6665V25.3327C319.994 29.9993 323.993 31.9996 326.66 31.9996H345.326C349.993 31.9996 351.993 27.9993 351.993 25.3327V6.6665C351.993 2.6666 348.659 0 345.326 0Z" fill="#FFF200"/>
<path d="M321.327 12.0852H323.493V23.9994H325.659V9.91901H321.327V12.0852Z" fill="#DA1B20"/>
<path d="M323.493 8.83272H326.743V23.9962H328.909V6.6665H323.493V8.83272ZM333.241 15.3314C333.241 11.7474 336.156 8.83272 339.74 8.83272C343.324 8.83272 346.239 11.7474 346.239 15.3314H348.405C348.405 10.5538 344.518 6.6665 339.74 6.6665C334.963 6.6665 331.075 10.5538 331.075 15.3314C331.075 20.109 334.963 23.9962 339.74 23.9962H351.993V21.83H339.74C336.156 21.83 333.241 18.9154 333.241 15.3314Z" fill="#DA1B20"/>
<path d="M339.739 17.5005C338.545 17.5005 337.573 16.5289 337.573 15.3343C337.573 14.1396 338.545 13.168 339.739 13.168C340.934 13.168 341.905 14.1396 341.905 15.3343H344.072C344.072 12.9449 342.129 11.0018 339.739 11.0018C337.35 11.0018 335.407 12.9449 335.407 15.3343C335.407 17.7236 337.35 19.6667 339.739 19.6667H351.993V17.5005H339.739Z" fill="#DA1B20"/>
<rect x="79.9984" width="31.9992" height="31.9992" rx="15.9996" fill="#1877F2"/>
<path d="M102.181 20.2342H98.622V31.7857C98.622 31.7857 97.3313 31.9992 95.998 31.9992C94.6647 31.9992 93.2296 31.7857 93.2296 31.7857V20.2342H90.6648V15.4483H93.2296V12.3504C93.2296 10.1364 94.2368 6.6665 98.6701 6.6665L102.664 6.68448V11.3304H99.7662C99.2909 11.3304 98.6224 11.5784 98.6224 12.6343V15.4523H102.652L102.181 20.2342Z" fill="white"/>
<path d="M305.053 17.0739C305.814 18.6921 304.949 19.465 302.973 20.7853C301.292 21.9045 298.972 22.3139 297.481 22.4786L298.729 23.7747C300.502 25.594 302.182 27.3552 303.357 28.5738C305.066 30.3422 302.312 33.179 300.605 31.4493L295.978 26.6357C294.208 28.4744 292.51 30.2356 291.353 31.4542C289.641 33.1912 286.889 30.3785 288.581 28.581L293.208 23.782L294.475 22.4834C292.966 22.3211 290.679 21.8875 289.019 20.7925V20.7901C287.044 19.4625 286.177 18.6921 286.93 17.0739C287.384 16.1557 288.608 15.3878 290.239 16.7153C290.239 16.7153 292.44 18.5347 295.991 18.5347C299.543 18.5347 301.744 16.7153 301.744 16.7153C303.372 15.3805 304.603 16.1557 305.053 17.0739Z" fill="#F4741E"/>
<path d="M295.993 15.9996C291.589 15.9996 287.994 12.4182 287.994 8.00931C287.994 3.58135 291.589 0 295.993 0C300.399 0 303.994 3.58135 303.994 8.00931C303.994 12.4182 300.399 15.9996 295.993 15.9996ZM295.993 4.05696C293.829 4.05696 292.064 5.82387 292.064 8.00931C292.064 10.1757 293.829 11.9426 295.993 11.9426C298.157 11.9426 299.921 10.1757 299.921 8.00931C299.924 5.82387 298.159 4.05696 295.993 4.05696Z" fill="#F4741E"/>
<rect x="199.996" width="31.9992" height="31.9992" rx="15.9996" fill="#F13630"/>
<path d="M212.278 26.666L216.007 18.7029H217.654V26.666H219.995V5.33319H215.849C213.211 5.33319 210.067 8.01642 210.067 12.3745C210.067 16.7327 214.012 18.4926 214.012 18.4926L209.329 26.666H212.278ZM213.724 15.7723C213.147 15.0732 212.646 13.9087 212.646 11.9771C212.646 7.74422 215.164 7.19675 215.511 7.14263C215.537 7.13799 215.56 7.13644 215.585 7.13644H217.589V16.8162H216.03C215.139 16.8162 214.278 16.4465 213.724 15.7723Z" fill="white"/>
<path d="M64.9601 16.9121C64.9447 14.289 66.1235 12.3117 68.504 10.8526C67.1726 8.93118 65.1583 7.87401 62.5031 7.66955C59.9892 7.46974 57.2387 9.14493 56.2315 9.14493C55.1673 9.14493 52.7333 7.73928 50.8182 7.73928C46.866 7.79969 42.6658 10.9153 42.6658 17.2536C42.6658 19.1263 43.0053 21.0617 43.6844 23.0528C44.5923 25.6759 47.8655 32.1025 51.2798 31.9979C53.0652 31.9561 54.3279 30.7224 56.6512 30.7224C58.9058 30.7224 60.0731 31.9979 62.0646 31.9979C65.5093 31.9492 68.4696 26.1058 69.3318 23.4757C64.7121 21.2801 64.9601 17.0445 64.9601 16.9121ZM60.9505 5.18118C62.8848 2.86475 62.7092 0.75743 62.652 0C60.9429 0.0999064 58.9669 1.17332 57.8413 2.49301C56.6017 3.90796 55.8729 5.65748 56.0294 7.63005C57.8757 7.77178 59.562 6.81454 60.9505 5.18118Z" fill="black"/>
<path d="M265.328 0H246.662C242.662 0 239.995 3.33325 239.995 6.6665V25.3327C239.995 29.9993 243.995 31.9996 246.662 31.9996H265.328C269.994 31.9996 271.994 27.9993 271.994 25.3327V6.6665C271.994 2.6666 268.661 0 265.328 0Z" fill="#005FF9"/>
<path d="M259.203 15.9996C259.203 17.7693 257.764 19.2078 255.995 19.2078C254.225 19.2078 252.787 17.7693 252.787 15.9996C252.787 14.2299 254.225 12.7914 255.995 12.7914C257.764 12.7914 259.203 14.2299 259.203 15.9996ZM255.995 5.33319C250.114 5.33319 245.328 10.1189 245.328 15.9996C245.328 21.8802 250.114 26.666 255.995 26.666C258.15 26.666 260.228 26.0256 262.003 24.8104L262.035 24.7901L260.596 23.1189L260.573 23.1345C259.206 24.0138 257.622 24.4793 255.995 24.4793C251.318 24.4793 247.515 20.676 247.515 15.9996C247.515 11.3247 251.318 7.51989 255.995 7.51989C260.671 7.51989 264.474 11.3247 264.474 15.9996C264.474 16.6056 264.407 17.2195 264.274 17.8224C264.007 18.9235 263.236 19.2609 262.658 19.2156C262.075 19.1687 261.394 18.7533 261.39 17.7396V16.9664V15.9996C261.39 13.0241 258.97 10.6047 255.995 10.6047C253.019 10.6047 250.6 13.0241 250.6 15.9996C250.6 18.9751 253.019 21.3945 255.995 21.3945C257.439 21.3945 258.795 20.8291 259.817 19.8029C260.412 20.7275 261.38 21.307 262.481 21.3945C262.577 21.4023 262.674 21.407 262.769 21.407C263.545 21.407 264.314 21.1477 264.934 20.676C265.574 20.1918 266.05 19.4889 266.314 18.6455C266.357 18.5096 266.435 18.1972 266.435 18.1957L266.436 18.1847C266.592 17.5084 266.661 16.8337 266.661 15.9996C266.661 10.1189 261.875 5.33319 255.995 5.33319Z" fill="#EF9910"/>
<path d="M119.998 15.333C119.998 8.10493 119.998 4.49092 122.243 2.24546C124.489 0 128.103 0 135.331 0H136.664C143.892 0 147.506 0 149.751 2.24546C151.997 4.49092 151.997 8.10493 151.997 15.333V16.6663C151.997 23.8943 151.997 27.5083 149.751 29.7537C147.506 31.9992 143.892 31.9992 136.664 31.9992H135.331C128.103 31.9992 124.489 31.9992 122.243 29.7537C119.998 27.5083 119.998 23.8943 119.998 16.6663V15.333Z" fill="#2787F5"/>
<path fill-rule="evenodd" clip-rule="evenodd" d="M128.665 9.99976H126.331C125.664 9.99976 125.531 10.3136 125.531 10.6596C125.531 11.2777 126.322 14.3428 129.215 18.3968C131.143 21.1653 133.86 22.6661 136.333 22.6661C137.816 22.6661 138 22.3328 138 21.7587V19.6662C138 18.9995 138.141 18.8665 138.61 18.8665C138.956 18.8665 139.55 19.0395 140.934 20.3744C142.517 21.9564 142.778 22.6661 143.668 22.6661H146.002C146.668 22.6661 147.002 22.3328 146.81 21.675C146.599 21.0194 145.844 20.0682 144.841 18.9407C144.297 18.2979 143.481 17.6058 143.234 17.2597C142.888 16.8148 142.987 16.617 143.234 16.2215C143.234 16.2215 146.077 12.217 146.374 10.8575C146.522 10.363 146.374 9.99976 145.668 9.99976H143.334C142.741 9.99976 142.467 10.3136 142.319 10.6596C142.319 10.6596 141.132 13.5518 139.451 15.4305C138.907 15.9743 138.66 16.1473 138.363 16.1473C138.215 16.1473 138 15.9743 138 15.48V10.8575C138 10.2641 137.828 9.99976 137.333 9.99976H133.666C133.295 9.99976 133.072 10.2751 133.072 10.5361C133.072 11.0985 133.912 11.2282 133.999 12.8102V16.2463C133.999 16.9996 133.863 17.1362 133.566 17.1362C132.775 17.1362 130.851 14.2311 129.709 10.9069C129.486 10.2607 129.261 9.99976 128.665 9.99976V9.99976Z" fill="white"/>
<path d="M167.089 19.3375L165.975 23.4956L161.904 23.5818C160.687 21.3251 159.997 18.7433 159.997 15.9996C159.997 13.3465 160.642 10.8446 161.786 8.6416H161.787L165.411 9.30608L166.999 12.9087C166.667 13.8775 166.485 14.9175 166.485 15.9996C166.486 17.1741 166.698 18.2994 167.089 19.3375Z" fill="#FBBB00"/>
<path d="M191.716 13.0117C191.9 13.9796 191.996 14.9791 191.996 16.0006C191.996 17.1461 191.876 18.2634 191.646 19.3412C190.867 23.0088 188.832 26.2113 186.013 28.4776L186.012 28.4767L181.447 28.2438L180.801 24.2105C182.671 23.1134 184.133 21.3965 184.903 19.3412H176.348V13.0117H185.028H191.716Z" fill="#518EF8"/>
<path d="M186.013 28.4766L186.014 28.4775C183.272 30.6813 179.789 32 175.997 32C169.904 32 164.607 28.5944 161.904 23.5827L167.089 19.3384C168.44 22.9445 171.919 25.5114 175.997 25.5114C177.75 25.5114 179.392 25.0376 180.801 24.2103L186.013 28.4766Z" fill="#28B446"/>
<path d="M186.209 3.68338L181.026 7.92675C179.568 7.01515 177.844 6.48855 175.997 6.48855C171.826 6.48855 168.282 9.17328 166.999 12.9086L161.787 8.64148H161.786C164.449 3.50758 169.813 0 175.997 0C179.879 0 183.438 1.38283 186.209 3.68338Z" fill="#F14336"/>
<path d="M527.99 18.6662C529.462 18.6662 530.657 17.4716 530.657 15.9996C530.657 14.5259 529.462 13.333 527.99 13.333C526.518 13.333 525.324 14.5259 525.324 15.9996C525.324 17.4716 526.518 18.6662 527.99 18.6662Z" fill="#8991A9"/>
<path d="M535.99 18.6662C537.462 18.6662 538.657 17.4716 538.657 15.9996C538.657 14.5259 537.462 13.333 535.99 13.333C534.518 13.333 533.323 14.5259 533.323 15.9996C533.323 17.4716 534.518 18.6662 535.99 18.6662Z" fill="#8991A9"/>
<path d="M543.99 18.6662C545.462 18.6662 546.656 17.4716 546.656 15.9996C546.656 14.5259 545.462 13.333 543.99 13.333C542.518 13.333 541.323 14.5259 541.323 15.9996C541.323 17.4716 542.518 18.6662 543.99 18.6662Z" fill="#8991A9"/>
<path d="M248.789 87.9991C248.304 88.0076 247.823 87.9143 247.378 87.7248C247.332 87.7248 246.316 87.2295 245.178 86.5361C244.04 85.8427 243.137 85.1569 243.099 85.1265C242.765 84.8493 242.486 84.514 242.272 84.1359L242.925 83.7473C243.095 84.0378 243.316 84.2959 243.577 84.5093C243.577 84.5093 244.48 85.2027 245.587 85.8732C246.695 86.5437 247.704 87.0161 247.719 87.0237C248.42 87.2942 249.196 87.2942 249.896 87.0237C249.896 87.0237 250.921 86.5437 252.028 85.8732C253.136 85.2027 254.031 84.5169 254.039 84.5093C254.628 83.9883 255.018 83.2768 255.139 82.4977C255.139 82.4977 255.26 81.3243 255.26 79.9832C255.26 78.6422 255.146 77.4764 255.139 77.4687C255.017 76.6896 254.628 75.9772 254.039 75.4572C254.039 75.4572 253.136 74.7638 252.028 74.0933C250.921 73.4227 249.859 72.9655 249.859 72.9655C249.158 72.695 248.382 72.695 247.681 72.9655C247.681 72.9655 246.657 73.4456 245.557 74.1161C244.457 74.7866 243.569 75.4648 243.562 75.4724C243.301 75.6848 243.08 75.9429 242.909 76.2344L242.272 75.861C242.489 75.481 242.775 75.1448 243.114 74.8705C243.114 74.8705 244.047 74.1542 245.193 73.4608C246.338 72.7674 247.355 72.295 247.393 72.2722C248.297 71.9093 249.304 71.9093 250.208 72.2722C250.253 72.2722 251.262 72.7674 252.408 73.4608C253.553 74.1542 254.41 74.84 254.479 74.8705C255.234 75.5181 255.73 76.4201 255.875 77.4078C255.875 77.4535 255.996 78.6193 255.996 79.9985C255.996 81.3776 255.882 82.5434 255.875 82.5891C255.73 83.5768 255.234 84.4778 254.479 85.1265C254.479 85.1265 253.546 85.8427 252.4 86.5361C251.254 87.2295 250.238 87.7019 250.2 87.7248C249.754 87.9143 249.273 88.0076 248.789 87.9991Z" fill="#F1516F"/>
<path d="M239.996 77.7136H243.031V78.4756H240.755V82.2854H239.996V77.7136Z" fill="#F1516F"/>
<path d="M246.065 78.4756C246.366 78.4756 246.659 78.5651 246.908 78.7327C247.158 78.8994 247.352 79.1375 247.467 79.4166C247.582 79.6947 247.612 80.0014 247.553 80.2967C247.495 80.5919 247.35 80.8643 247.139 81.0767C246.926 81.2901 246.656 81.4349 246.361 81.4939C246.067 81.553 245.762 81.5225 245.485 81.4072C245.208 81.292 244.971 81.0967 244.804 80.8462C244.637 80.5957 244.548 80.3005 244.548 79.9995C244.548 79.5957 244.708 79.208 244.993 78.9223C245.277 78.6356 245.663 78.4756 246.065 78.4756ZM246.065 77.7136C245.616 77.7136 245.176 77.8479 244.801 78.0984C244.426 78.3499 244.135 78.707 243.963 79.1242C243.79 79.5423 243.746 80.0024 243.833 80.4453C243.921 80.8891 244.138 81.2958 244.456 81.6158C244.774 81.9358 245.179 82.153 245.621 82.2416C246.063 82.3292 246.52 82.2844 246.937 82.1111C247.352 81.9387 247.708 81.6453 247.958 81.2691C248.207 80.8939 248.341 80.4519 248.341 79.9995C248.341 79.3928 248.101 78.8118 247.674 78.3832C247.248 77.9546 246.669 77.7136 246.065 77.7136Z" fill="#F1516F"/>
<path d="M251.376 82.2855C251.016 82.2846 250.66 82.1979 250.339 82.0312C250.018 81.8655 249.741 81.6255 249.531 81.3302C249.321 81.0359 249.184 80.6949 249.13 80.3368C249.077 79.9777 249.11 79.612 249.225 79.2682C249.341 78.9243 249.535 78.6138 249.794 78.3614C250.053 78.1081 250.368 77.9214 250.713 77.8147C251.058 77.708 251.423 77.6852 251.779 77.749C252.134 77.8119 252.469 77.9595 252.757 78.1786L252.294 78.7805C252.029 78.5814 251.707 78.4738 251.376 78.4757C251.132 78.4757 250.892 78.5348 250.676 78.6481C250.459 78.7615 250.273 78.9262 250.134 79.1272C249.994 79.3282 249.905 79.5596 249.873 79.8025C249.842 80.0454 249.869 80.2921 249.953 80.5225C250.036 80.753 250.175 80.9588 250.355 81.1245C250.534 81.2902 250.751 81.4093 250.987 81.4721C251.223 81.535 251.47 81.5407 251.709 81.4864C251.947 81.4331 252.168 81.3236 252.355 81.1655L252.84 81.7522C252.43 82.097 251.912 82.2865 251.376 82.2855Z" fill="#F1516F"/>
<path d="M228.663 72H219.33C217.33 72 215.997 73.6666 215.997 75.3333V84.6664C215.997 86.9996 217.997 87.9998 219.33 87.9998H228.663C230.996 87.9998 231.996 85.9997 231.996 84.6664V75.3333C231.996 73.3333 230.33 72 228.663 72Z" fill="#3377C9"/>
<path d="M227.356 76.6406C226.315 75.6006 224.622 75.6006 223.582 76.6406C222.872 77.3512 222.625 78.3985 222.932 79.3485L219.928 82.3538C219.883 82.3991 219.857 82.4604 219.857 82.5251V83.8971C219.857 84.0311 219.965 84.1397 220.099 84.1397H221.471C221.536 84.1397 221.597 84.1144 221.643 84.0684L221.986 83.7257C222.038 83.6731 222.064 83.5997 222.055 83.5257L222.012 83.1571L222.523 83.1091C222.639 83.0984 222.731 83.0064 222.742 82.8904L222.79 82.3798L223.158 82.4231C223.227 82.4318 223.296 82.4091 223.348 82.3631C223.4 82.3171 223.429 82.2511 223.429 82.1818V81.7305H223.872C223.937 81.7305 223.998 81.7045 224.044 81.6591L224.666 81.0458C225.616 81.3531 226.645 81.1251 227.356 80.4138C228.396 79.3738 228.396 77.6812 227.356 76.6406ZM226.67 78.3559C226.386 78.6399 225.924 78.6399 225.64 78.3559C225.357 78.0719 225.357 77.6106 225.64 77.3272C225.924 77.0432 226.386 77.0432 226.67 77.3272C226.953 77.6106 226.953 78.0719 226.67 78.3559Z" fill="white"/>
<path d="M275.428 82.0095C275.428 81.9835 275.428 81.9662 275.428 81.9402C275.436 81.8195 275.444 81.7335 275.444 81.6988C275.444 81.6128 275.588 80.7248 275.606 80.5262C275.622 80.3195 275.572 80.2762 275.572 80.2762C275.708 79.5175 275.453 78.7076 275.453 78.7076C275.538 78.6296 275.36 78.2242 275.36 78.2242C275.224 77.8883 275.054 77.4143 275.054 77.4143C275.029 77.3103 274.986 77.1556 274.961 76.9829C274.936 76.7243 274.936 76.457 274.936 76.371C274.936 76.3016 275.02 76.3103 275.02 76.2503C275.02 76.181 274.936 76.009 274.936 75.9916C274.936 75.9743 274.936 75.9483 274.944 75.931C274.952 75.9136 274.97 75.8963 274.97 75.8963C274.97 75.819 274.91 75.733 274.817 75.733H274.088C273.994 75.733 273.935 75.8103 273.935 75.8963C273.935 75.8963 273.952 75.9136 273.96 75.931C273.969 75.9483 273.969 75.9743 273.969 75.9916C273.96 76.009 273.884 76.181 273.884 76.2503C273.884 76.3103 273.969 76.3103 273.969 76.371C273.969 76.457 273.969 76.7243 273.944 76.9829C273.918 77.1556 273.876 77.3103 273.85 77.4229C273.85 77.4229 273.68 77.8969 273.545 78.2329C273.545 78.2329 273.358 78.6382 273.452 78.7162C273.452 78.7162 273.206 79.5262 273.333 80.2849C273.333 80.2849 273.282 80.3369 273.299 80.5349C273.316 80.7422 273.46 81.6215 273.46 81.7075C273.46 81.7422 273.468 81.8282 273.477 81.9488V82.0095C273.477 82.5441 273.256 82.8115 273.256 83.1561C273.256 83.6214 273.545 83.8634 274.452 83.8634C275.36 83.8634 275.648 83.6214 275.648 83.1561C275.648 82.8028 275.428 82.5441 275.428 82.0095Z" fill="black"/>
<path d="M270.601 82.0028C270.601 81.9768 270.601 81.9595 270.601 81.9342C270.611 81.8135 270.621 81.7275 270.621 81.6928C270.621 81.6068 270.794 80.7195 270.814 80.5215C270.835 80.3149 270.774 80.2715 270.774 80.2715C270.936 79.5135 270.631 78.7042 270.631 78.7042C270.743 78.6269 270.519 78.2216 270.519 78.2216C270.356 77.8863 270.153 77.4123 270.153 77.4123C270.122 77.3089 270.072 77.1536 270.041 76.9816C270.01 76.7229 270.01 76.4563 270.01 76.3703C270.01 76.301 270.112 76.3096 270.112 76.2496C270.112 76.1803 270.01 76.0083 270.01 75.991C270.01 75.9823 270.01 75.9483 270.021 75.931C270.031 75.9136 270.051 75.8963 270.051 75.8963C270.051 75.819 269.98 75.733 269.868 75.733H268.993C268.881 75.733 268.81 75.8103 268.81 75.8963C268.81 75.8963 268.83 75.9136 268.84 75.931C268.85 75.9483 268.851 75.9736 268.851 75.991C268.841 76.0083 268.749 76.1803 268.749 76.2496C268.749 76.3096 268.851 76.3096 268.851 76.3703C268.851 76.4563 268.85 76.7229 268.82 76.9816C268.79 77.1536 268.738 77.3089 268.708 77.4209C268.708 77.4209 268.505 77.8943 268.342 78.2302C268.342 78.2302 268.118 78.6349 268.23 78.7129C268.23 78.7129 267.935 79.5222 268.087 80.2802C268.087 80.2802 268.027 80.3322 268.047 80.5302C268.067 80.7368 268.24 81.6155 268.24 81.7015C268.24 81.7355 268.251 81.8222 268.261 81.9428V82.0115C268.261 82.5455 267.996 82.8121 267.996 83.1568C267.996 83.6221 268.342 83.8634 269.43 83.8634C270.519 83.8634 270.865 83.6221 270.865 83.1568C270.865 82.7955 270.601 82.5368 270.601 82.0028Z" fill="#8E9090"/>
<path d="M273.449 82.7872C273.449 82.7512 273.449 82.7239 273.449 82.6966C273.458 82.5339 273.468 82.4166 273.468 82.3719C273.468 82.2539 273.67 81.0619 273.697 80.7819C273.725 80.5019 273.651 80.4393 273.651 80.4393C273.844 79.4186 273.495 78.3253 273.495 78.3253C273.624 78.2173 273.357 77.6753 273.357 77.6753C273.164 77.224 272.934 76.5827 272.934 76.5827C272.897 76.438 272.842 76.2307 272.805 75.9954C272.768 75.6434 272.768 75.2821 272.768 75.1647C272.768 75.0747 272.888 75.0834 272.888 74.9934C272.888 74.8941 272.768 74.6681 272.768 74.6408C272.768 74.6228 272.768 74.5868 272.778 74.5594C272.787 74.5328 272.814 74.5148 272.814 74.5148C272.814 74.4061 272.732 74.2981 272.594 74.2981H271.564C271.435 74.2981 271.343 74.4061 271.343 74.5148C271.343 74.5148 271.371 74.5328 271.38 74.5594C271.389 74.5868 271.389 74.6228 271.389 74.6408C271.38 74.6681 271.26 74.8941 271.26 74.9934C271.26 75.0747 271.38 75.0747 271.38 75.1647C271.38 75.2821 271.38 75.6434 271.343 75.9954C271.306 76.2307 271.251 76.438 271.214 76.5827C271.214 76.5827 270.984 77.224 270.792 77.6753C270.792 77.6753 270.534 78.2173 270.654 78.3253C270.654 78.3253 270.304 79.4186 270.488 80.4479C270.488 80.4479 270.414 80.5113 270.442 80.7913C270.47 81.0713 270.672 82.2632 270.672 82.3806C270.672 82.4259 270.69 82.5432 270.69 82.7059V82.7959C270.69 83.5279 270.387 83.8799 270.387 84.3492C270.387 84.9725 270.792 85.2978 272.06 85.2978C273.33 85.2978 273.734 84.9725 273.734 84.3492C273.752 83.8705 273.449 83.5185 273.449 82.7872Z" fill="#E41E2B"/>
<g clip-path="url(#clip1_443_2196)">
<path d="M2.59303 87.9161L12.2144 79.591L11.7644 76.0033L2.56323 87.8879C2.55977 87.8919 2.55799 87.897 2.55825 87.9023C2.55852 87.9076 2.56081 87.9126 2.56464 87.9162C2.56848 87.9199 2.57357 87.9219 2.57886 87.9218C2.58415 87.9218 2.58922 87.9198 2.59303 87.9161V87.9161Z" fill="#145BB0"/>
<path d="M14.588 75.0015L12.1596 79.1556L11.7645 76.003L14.564 74.9717C14.5679 74.9705 14.5721 74.9706 14.576 74.9718C14.5799 74.973 14.5834 74.9754 14.5859 74.9786C14.5885 74.9818 14.5901 74.9856 14.5904 74.9897C14.5908 74.9938 14.5899 74.9979 14.588 75.0015V75.0015ZM7.63599 83.5409L12.2145 79.5907L1.69763 72.0784L7.63599 83.5409Z" fill="#1980FF"/>
<path d="M14.5879 75.0012L12.1595 79.1553L11.7644 76.0027L14.5639 74.9714C14.5678 74.9702 14.572 74.9703 14.5759 74.9715C14.5798 74.9727 14.5833 74.9751 14.5858 74.9783C14.5884 74.9815 14.59 74.9853 14.5903 74.9894C14.5907 74.9935 14.5898 74.9976 14.5879 75.0012V75.0012ZM7.63587 83.5406L12.2144 79.5904L1.69751 72.0781L7.63587 83.5406Z" fill="#1980FF"/>
</g>
<path d="M295.606 86.5494V77.7145C295.576 76.3675 294.764 75.2087 293.595 74.6838C293.209 74.5154 292.793 74.4064 292.357 74.3866C290.218 74.2678 288.564 75.5355 288.118 77.249C287.831 78.289 288.049 79.5469 288.772 80.5968C289.653 81.8843 293.268 85.3113 295.021 86.8366C295.081 86.8861 295.16 86.9059 295.239 86.9059C295.447 86.9158 295.606 86.7574 295.606 86.5494ZM294.853 82.4984C294.853 82.855 294.566 83.1521 294.209 83.1521C293.853 83.1521 293.556 82.8649 293.556 82.4984C293.556 82.1419 293.843 81.8546 294.209 81.8546C294.566 81.8447 294.853 82.1419 294.853 82.4984Z" fill="#5C4095"/>
<path d="M298.32 81.9833C297.428 81.9833 296.705 82.7064 296.705 83.5978C296.705 84.4892 297.428 85.2122 298.32 85.2122C299.211 85.2122 299.934 84.4892 299.934 83.5978C299.934 82.6965 299.211 81.9833 298.32 81.9833Z" fill="#5C4095"/>
<path d="M296.705 85.6382C296.398 85.6382 296.151 85.8858 296.151 86.1928C296.151 86.4999 296.398 86.7475 296.705 86.7475C297.012 86.7475 297.26 86.4999 297.26 86.1928C297.26 85.8858 297.012 85.6382 296.705 85.6382Z" fill="#5C4095"/>
<path d="M301.39 78.0614C300.211 78.0614 299.25 79.0221 299.25 80.2008C299.25 81.3794 300.211 82.3402 301.39 82.3402C302.578 82.3402 303.529 81.3794 303.529 80.2008C303.529 79.0221 302.578 78.0614 301.39 78.0614Z" fill="#5C4095"/>
<path d="M302.876 75.4258C302.252 75.4258 301.757 75.931 301.757 76.555C301.757 77.1789 302.262 77.6742 302.876 77.6742C303.5 77.6742 303.995 77.169 303.995 76.555C304.005 75.9211 303.5 75.4258 302.876 75.4258Z" fill="#5C4095"/>
<path d="M298.577 78.1202C299.716 78.1202 300.637 77.1991 300.637 76.0601C300.637 74.9211 299.716 73.9999 298.577 73.9999C297.438 73.9999 296.517 74.9211 296.517 76.0601C296.527 77.1991 297.448 78.1202 298.577 78.1202Z" fill="#5C4095"/>
<path d="M298.656 79.9332C298.656 80.6067 298.111 81.1514 297.428 81.1514C296.755 81.1514 296.21 80.6067 296.21 79.9332C296.21 79.2597 296.755 78.7149 297.428 78.7149C298.111 78.705 298.656 79.2597 298.656 79.9332Z" fill="#5C4095"/>
<path d="M368.6 73.3333H367.388V74.5453H368.6V73.3333Z" fill="black"/>
<path d="M369.81 73.3333V78.1841H374.659V73.3333H369.81ZM373.449 76.9737H371.024V74.5528H373.449V76.9737Z" fill="black"/>
<path d="M362.54 79.3934H361.328V80.6054H362.54V79.3934Z" fill="black"/>
<path d="M366.179 78.1841V73.3333H361.328V78.1841H366.179ZM362.54 74.5453H364.968V76.9737H362.547L362.54 74.5453Z" fill="black"/>
<path d="M364.964 79.3934H363.752V80.6054H364.964V79.3934Z" fill="black"/>
<path d="M361.328 81.8152V86.6637H366.179V81.8152H361.328ZM364.968 85.4533H362.547V83.0324H364.968V85.4533Z" fill="black"/>
<path d="M368.6 75.7576H367.388V79.3934H368.6V75.7576Z" fill="black"/>
<path d="M369.811 81.8173H371.023V80.6054H369.811V79.3934H368.6V80.6054H367.388V81.8173H368.6V83.0293H367.388V86.6659H368.6V84.2412H369.811V81.8173Z" fill="black"/>
<path d="M369.812 86.6654H372.236V85.4527H371.024V84.2407H369.812V86.6654Z" fill="black"/>
<path d="M372.237 79.3934H371.025V80.6054H372.237V79.3934Z" fill="black"/>
<path d="M372.237 83.03H371.025V84.242H373.449V83.03H374.661V81.8181H373.449V80.6061H372.237V83.03Z" fill="black"/>
<path d="M374.661 85.4535H373.449V86.6654H374.661V85.4535Z" fill="black"/>
<path d="M374.661 79.3934H373.449V80.6054H374.661V79.3934Z" fill="black"/>
<path d="M339.995 81.3331C340.731 81.3331 341.328 80.7358 341.328 79.9998C341.328 79.2629 340.731 78.6665 339.995 78.6665C339.259 78.6665 338.661 79.2629 338.661 79.9998C338.661 80.7358 339.259 81.3331 339.995 81.3331Z" fill="#6C7784"/>
<path d="M343.995 81.3331C344.731 81.3331 345.328 80.7358 345.328 79.9998C345.328 79.2629 344.731 78.6665 343.995 78.6665C343.259 78.6665 342.661 79.2629 342.661 79.9998C342.661 80.7358 343.259 81.3331 343.995 81.3331Z" fill="#6C7784"/>
<path d="M347.995 81.3331C348.731 81.3331 349.328 80.7358 349.328 79.9998C349.328 79.2629 348.731 78.6665 347.995 78.6665C347.259 78.6665 346.661 79.2629 346.661 79.9998C346.661 80.7358 347.259 81.3331 347.995 81.3331Z" fill="#6C7784"/>
<path d="M204.663 72H195.33C193.33 72 191.997 73.6666 191.997 75.3333V84.6664C191.997 86.9996 193.997 87.9998 195.33 87.9998H204.663C206.997 87.9998 207.996 85.9997 207.996 84.6664V75.3333C207.996 73.3333 206.33 72 204.663 72Z" fill="#FFF200"/>
<path d="M192.664 78.0426H193.747V83.9997H194.83V76.9595H192.664V78.0426Z" fill="#DA1B20"/>
<path d="M193.747 76.4164H195.372V83.9981H196.455V75.3333H193.747V76.4164ZM198.621 79.6657C198.621 77.8737 200.078 76.4164 201.87 76.4164C203.662 76.4164 205.12 77.8737 205.12 79.6657H206.203C206.203 77.2769 204.259 75.3333 201.87 75.3333C199.481 75.3333 197.538 77.2769 197.538 79.6657C197.538 82.0545 199.481 83.9981 201.87 83.9981H207.997V82.915H201.87C200.078 82.915 198.621 81.4577 198.621 79.6657Z" fill="#DA1B20"/>
<path d="M201.87 80.7502C201.272 80.7502 200.787 80.2645 200.787 79.6671C200.787 79.0698 201.272 78.584 201.87 78.584C202.467 78.584 202.953 79.0698 202.953 79.6671H204.036C204.036 78.4725 203.064 77.5009 201.87 77.5009C200.675 77.5009 199.703 78.4725 199.703 79.6671C199.703 80.8618 200.675 81.8333 201.87 81.8333H207.997V80.7502H201.87Z" fill="#DA1B20"/>
<rect x="47.9993" y="72" width="15.9996" height="15.9996" rx="7.9998" fill="#1877F2"/>
<path d="M59.0906 82.1171H57.311V87.8928C57.311 87.8928 56.6656 87.9996 55.999 87.9996C55.3323 87.9996 54.6148 87.8928 54.6148 87.8928V82.1171H53.3324V79.7241H54.6148V78.1752C54.6148 77.0682 55.1184 75.3333 57.335 75.3333L59.3322 75.3422V77.6652H57.8831C57.6454 77.6652 57.3112 77.7892 57.3112 78.3172V79.7261H59.3262L59.0906 82.1171Z" fill="white"/>
<path d="M180.526 80.5369C180.907 81.3461 180.475 81.7325 179.486 82.3926C178.646 82.9522 177.486 83.1569 176.74 83.2393L177.365 83.8873C178.251 84.797 179.091 85.6776 179.678 86.2869C180.533 87.1711 179.156 88.5895 178.303 87.7247L175.989 85.3179C175.104 86.2372 174.255 87.1178 173.676 87.7271C172.821 88.5956 171.445 87.1893 172.291 86.2905L174.604 83.891L175.238 83.2417C174.483 83.1606 173.34 82.9437 172.51 82.3962V82.395C171.522 81.7313 171.089 81.3461 171.465 80.5369C171.692 80.0779 172.304 79.6939 173.119 80.3577C173.119 80.3577 174.22 81.2673 175.996 81.2673C177.771 81.2673 178.872 80.3577 178.872 80.3577C179.686 79.6903 180.302 80.0779 180.526 80.5369Z" fill="#F4741E"/>
<path d="M175.996 79.9998C173.795 79.9998 171.997 78.2091 171.997 76.0047C171.997 73.7907 173.795 72 175.996 72C178.2 72 179.997 73.7907 179.997 76.0047C179.997 78.2091 178.2 79.9998 175.996 79.9998ZM175.996 74.0285C174.914 74.0285 174.032 74.9119 174.032 76.0047C174.032 77.0879 174.914 77.9713 175.996 77.9713C177.079 77.9713 177.961 77.0879 177.961 76.0047C177.962 74.9119 177.08 74.0285 175.996 74.0285Z" fill="#F4741E"/>
<rect x="119.998" y="72" width="15.9996" height="15.9996" rx="7.9998" fill="#F13630"/>
<path d="M126.139 85.333L128.004 81.3515H128.827V85.333H129.998V74.6666H127.925C126.606 74.6666 125.033 76.0082 125.033 78.1873C125.033 80.3664 127.006 81.2463 127.006 81.2463L124.665 85.333H126.139ZM126.862 79.8862C126.574 79.5366 126.323 78.9544 126.323 77.9886C126.323 75.8721 127.582 75.5984 127.755 75.5713C127.768 75.569 127.78 75.5683 127.792 75.5683H128.795V80.4081H128.015C127.57 80.4081 127.139 80.2233 126.862 79.8862Z" fill="white"/>
<path d="M36.4802 80.456C36.4725 79.1445 37.0619 78.1559 38.2521 77.4263C37.5864 76.4656 36.5793 75.937 35.2517 75.8348C33.9947 75.7349 32.6195 76.5725 32.1159 76.5725C31.5838 76.5725 30.3668 75.8696 29.4092 75.8696C27.4331 75.8998 25.333 77.4577 25.333 80.6268C25.333 81.5631 25.5028 82.5308 25.8423 83.5264C26.2963 84.838 27.9329 88.0512 29.64 87.999C30.5327 87.9781 31.1641 87.3612 32.3257 87.3612C33.453 87.3612 34.0367 87.999 35.0324 87.999C36.7548 87.9746 38.2349 85.0529 38.666 83.7378C36.3562 82.64 36.4802 80.5223 36.4802 80.456ZM34.4754 74.5906C35.4425 73.4324 35.3547 72.3787 35.3261 72C34.4716 72.05 33.4836 72.5867 32.9208 73.2465C32.301 73.954 31.9366 74.8287 32.0148 75.815C32.938 75.8859 33.7811 75.4073 34.4754 74.5906Z" fill="black"/>
<path d="M156.664 72H147.331C145.331 72 143.998 73.6666 143.998 75.3333V84.6664C143.998 86.9996 145.998 87.9998 147.331 87.9998H156.664C158.997 87.9998 159.997 85.9997 159.997 84.6664V75.3333C159.997 73.3333 158.331 72 156.664 72Z" fill="#005FF9"/>
<path d="M153.602 79.9998C153.602 80.8847 152.882 81.6039 151.998 81.6039C151.113 81.6039 150.393 80.8847 150.393 79.9998C150.393 79.115 151.113 78.3957 151.998 78.3957C152.882 78.3957 153.602 79.115 153.602 79.9998ZM151.998 74.6666C149.057 74.6666 146.664 77.0595 146.664 79.9998C146.664 82.9402 149.057 85.333 151.998 85.333C153.075 85.333 154.114 85.0128 155.002 84.4052L155.017 84.3951L154.298 83.5595L154.287 83.5673C153.603 84.007 152.811 84.2397 151.998 84.2397C149.659 84.2397 147.758 82.338 147.758 79.9998C147.758 77.6624 149.659 75.76 151.998 75.76C154.336 75.76 156.237 77.6624 156.237 79.9998C156.237 80.3028 156.204 80.6098 156.137 80.9112C156.004 81.4618 155.618 81.6305 155.329 81.6078C155.038 81.5844 154.697 81.3767 154.695 80.8698V80.4832V79.9998C154.695 78.5121 153.485 77.3024 151.998 77.3024C150.51 77.3024 149.3 78.5121 149.3 79.9998C149.3 81.4876 150.51 82.6973 151.998 82.6973C152.72 82.6973 153.398 82.4146 153.909 81.9015C154.206 82.3638 154.69 82.6535 155.241 82.6973C155.288 82.7012 155.337 82.7035 155.385 82.7035C155.773 82.7035 156.157 82.5739 156.467 82.338C156.787 82.0959 157.025 81.7445 157.157 81.3228C157.178 81.2548 157.217 81.0986 157.217 81.0979L157.218 81.0924C157.296 80.7542 157.331 80.4169 157.331 79.9998C157.331 77.0595 154.938 74.6666 151.998 74.6666Z" fill="#EF9910"/>
<path d="M71.9989 79.6665C71.9989 76.0525 71.9989 74.2455 73.1216 73.1227C74.2444 72 76.0514 72 79.6654 72H80.332C83.946 72 85.7531 72 86.8758 73.1227C87.9985 74.2455 87.9985 76.0525 87.9985 79.6665V80.3331C87.9985 83.9471 87.9985 85.7542 86.8758 86.8769C85.7531 87.9996 83.946 87.9996 80.332 87.9996H79.6654C76.0514 87.9996 74.2444 87.9996 73.1216 86.8769C71.9989 85.7542 71.9989 83.9471 71.9989 80.3331V79.6665Z" fill="#2787F5"/>
<path fill-rule="evenodd" clip-rule="evenodd" d="M76.3324 76.9999H75.1655C74.8321 76.9999 74.7654 77.1568 74.7654 77.3298C74.7654 77.6388 75.161 79.1714 76.6074 81.1984C77.5717 82.5827 78.9302 83.3331 80.1665 83.3331C80.9083 83.3331 81 83.1664 81 82.8793V81.8331C81 81.4998 81.0703 81.4332 81.3052 81.4332C81.4782 81.4332 81.7749 81.5198 82.4673 82.1872C83.2585 82.9782 83.3889 83.3331 83.8339 83.3331H85.0008C85.3343 83.3331 85.5009 83.1664 85.4048 82.8375C85.2996 82.5097 84.9218 82.0341 84.4205 81.4703C84.1485 81.149 83.7406 80.8029 83.617 80.6299C83.4439 80.4074 83.4933 80.3085 83.617 80.1108C83.617 80.1108 85.0387 78.1085 85.187 77.4287C85.2612 77.1815 85.187 76.9999 84.8341 76.9999H83.6672C83.3705 76.9999 83.2337 77.1568 83.1595 77.3298C83.1595 77.3298 82.5662 78.7759 81.7255 79.7152C81.4535 79.9871 81.3299 80.0737 81.1815 80.0737C81.1074 80.0737 81 79.9871 81 79.74V77.4287C81 77.1321 80.9139 76.9999 80.6666 76.9999H78.8329C78.6475 76.9999 78.536 77.1375 78.536 77.268C78.536 77.5492 78.9563 77.6141 78.9996 78.4051V80.1231C78.9996 80.4998 78.9315 80.5681 78.7832 80.5681C78.3876 80.5681 77.4253 79.1155 76.8546 77.4534C76.7428 77.1304 76.6306 76.9999 76.3324 76.9999V76.9999Z" fill="white"/>
<path d="M99.5445 81.6688L98.9875 83.7478L96.952 83.7909C96.3437 82.6626 95.9986 81.3716 95.9986 79.9998C95.9986 78.6733 96.3212 77.4223 96.8931 76.3208H96.8935L98.7057 76.653L99.4996 78.4544C99.3334 78.9387 99.2429 79.4587 99.2429 79.9998C99.2429 80.587 99.3493 81.1497 99.5445 81.6688Z" fill="#FBBB00"/>
<path d="M111.858 78.5059C111.95 78.9898 111.998 79.4895 111.998 80.0003C111.998 80.573 111.938 81.1317 111.823 81.6706C111.434 83.5044 110.416 85.1057 109.007 86.2388L109.006 86.2384L106.724 86.1219L106.4 84.1052C107.336 83.5567 108.067 82.6983 108.452 81.6706H104.174V78.5059H108.514H111.858Z" fill="#518EF8"/>
<path d="M109.007 86.2383L109.007 86.2388C107.636 87.3407 105.895 88 103.999 88C100.952 88 98.3035 86.2972 96.9523 83.7914L99.5448 81.6693C100.22 83.4723 101.96 84.7557 103.999 84.7557C104.875 84.7557 105.696 84.5188 106.401 84.1052L109.007 86.2383Z" fill="#28B446"/>
<path d="M109.105 73.8417L106.513 75.9634C105.784 75.5076 104.922 75.2443 103.998 75.2443C101.913 75.2443 100.141 76.5866 99.4996 78.4543L96.8935 76.3207H96.8931C98.2245 73.7538 100.907 72 103.998 72C105.939 72 107.719 72.6914 109.105 73.8417Z" fill="#F14336"/>
<path d="M315.995 81.3331C316.731 81.3331 317.328 80.7358 317.328 79.9998C317.328 79.2629 316.731 78.6665 315.995 78.6665C315.259 78.6665 314.662 79.2629 314.662 79.9998C314.662 80.7358 315.259 81.3331 315.995 81.3331Z" fill="#8991A9"/>
<path d="M319.995 81.3331C320.731 81.3331 321.328 80.7358 321.328 79.9998C321.328 79.2629 320.731 78.6665 319.995 78.6665C319.259 78.6665 318.662 79.2629 318.662 79.9998C318.662 80.7358 319.259 81.3331 319.995 81.3331Z" fill="#8991A9"/>
<path d="M323.995 81.3331C324.731 81.3331 325.328 80.7358 325.328 79.9998C325.328 79.2629 324.731 78.6665 323.995 78.6665C323.259 78.6665 322.662 79.2629 322.662 79.9998C322.662 80.7358 323.259 81.3331 323.995 81.3331Z" fill="#8991A9"/>
<defs>
<clipPath id="clip0_443_2196">
<rect width="31.9992" height="31.9992" fill="white"/>
</clipPath>
<clipPath id="clip1_443_2196">
<rect width="15.9996" height="15.9996" fill="white" transform="translate(0 72)"/>
</clipPath>
</defs>
</svg>
