<svg width="24" height="24" viewBox="0 0 24 24" fill="none" xmlns="http://www.w3.org/2000/svg">
<path d="M18.7212 12.6844C18.7096 10.717 19.5937 9.23403 21.3791 8.13968C20.3806 6.69855 18.8698 5.90565 16.8784 5.7523C14.9929 5.60244 12.9299 6.85887 12.1746 6.85887C11.3763 6.85887 9.55086 5.80461 8.11448 5.80461C5.15023 5.84991 2 8.18671 2 12.9405C2 14.3451 2.25465 15.7966 2.76395 17.29C3.44492 19.2574 5.89987 24.0775 8.46068 23.9991C9.79977 23.9677 10.7468 23.0424 12.4893 23.0424C14.1804 23.0424 15.0558 23.9991 16.5495 23.9991C19.1331 23.9625 21.3534 19.5798 22 17.6072C18.5352 15.9605 18.7212 12.7837 18.7212 12.6844ZM15.7139 3.88598C17.1646 2.14861 17.0329 0.568087 16.9901 0C15.7082 0.0749317 14.2262 0.880008 13.382 1.8698C12.4522 2.93105 11.9056 4.24322 12.023 5.72268C13.4077 5.82898 14.6725 5.11103 15.7139 3.88598Z" fill="black"/>
</svg>
