<svg width="24" height="24" viewBox="0 0 24 24" fill="none" xmlns="http://www.w3.org/2000/svg">
<path d="M5.31893 14.5026L4.48352 17.6213L1.43012 17.6859C0.517597 15.9934 0 14.0569 0 11.9991C0 10.0092 0.48394 8.13275 1.34176 6.48047H1.34241L4.0608 6.97884L5.25162 9.68088C5.00239 10.4075 4.86654 11.1875 4.86654 11.9991C4.86663 12.88 5.0262 13.724 5.31893 14.5026Z" fill="#FBBB00"/>
<path d="M23.7903 9.75977C23.9281 10.4857 23.9999 11.2353 23.9999 12.0015C23.9999 12.8606 23.9096 13.6986 23.7375 14.507C23.1534 17.2577 21.627 19.6597 19.5125 21.3595L19.5118 21.3588L16.0878 21.1841L15.6033 18.1591C17.0063 17.3362 18.1028 16.0485 18.6804 14.507H12.2637V9.75977H18.774H23.7903Z" fill="#518EF8"/>
<path d="M19.5125 21.3577L19.5132 21.3583C17.4567 23.0113 14.8443 24.0003 12.0006 24.0003C7.4307 24.0003 3.4575 21.446 1.43066 17.6872L5.31948 14.5039C6.33288 17.2085 8.94191 19.1338 12.0006 19.1338C13.3153 19.1338 14.547 18.7784 15.6039 18.1579L19.5125 21.3577Z" fill="#28B446"/>
<path d="M19.6597 2.76261L15.7722 5.94521C14.6784 5.2615 13.3854 4.86653 12.0001 4.86653C8.87216 4.86653 6.21434 6.88013 5.25171 9.68169L1.34245 6.48127H1.3418C3.33896 2.63075 7.36227 0 12.0001 0C14.9118 0 17.5814 1.03715 19.6597 2.76261Z" fill="#F14336"/>
</svg>
