<svg width="24" height="24" viewBox="0 0 24 24" fill="none" xmlns="http://www.w3.org/2000/svg">
    <path d="M13.1894 23.9992C12.4625 24.012 11.7413 23.872 11.0727 23.5877C11.0044 23.5877 9.47956 22.8448 7.77258 21.8047C6.06561 20.7646 4.71138 19.7359 4.65448 19.6902C4.15377 19.2744 3.73412 18.7715 3.41406 18.2043L4.39276 17.6214C4.6488 18.0572 4.98023 18.4443 5.37141 18.7644C5.37141 18.7644 6.7256 19.8045 8.38706 20.8103C10.0485 21.8161 11.5621 22.5248 11.5848 22.5362C12.636 22.9419 13.7996 22.9419 14.8508 22.5362C14.8508 22.5362 16.3871 21.8161 18.0486 20.8103C19.7101 19.8045 21.0529 18.7758 21.0642 18.7644C21.949 17.9829 22.5337 16.9156 22.7143 15.7469C22.7143 15.7469 22.8964 13.9868 22.8964 11.9751C22.8964 9.9635 22.7257 8.21475 22.7143 8.20332C22.5323 7.03463 21.949 5.96596 21.0642 5.18588C21.0642 5.18588 19.7101 4.14578 18.0486 3.13996C16.3871 2.13415 14.7939 1.44835 14.7939 1.44835C13.7427 1.0426 12.5791 1.0426 11.5279 1.44835C11.5279 1.44835 9.99165 2.16843 8.34157 3.17424C6.69149 4.18006 5.36004 5.19731 5.34866 5.20874C4.95748 5.52734 4.62601 5.91453 4.36997 6.35171L3.41406 5.79165C3.73981 5.22159 4.16798 4.71725 4.67723 4.30578C4.67723 4.30578 6.07697 3.2314 7.79533 2.19129C9.51369 1.15119 11.0386 0.442544 11.0955 0.408255C12.4511 -0.136085 13.9618 -0.136085 15.3174 0.408255C15.3857 0.408255 16.8992 1.15119 18.6176 2.19129C20.3359 3.2314 21.6218 4.26006 21.7243 4.30578C22.858 5.27731 23.602 6.6303 23.8182 8.11188C23.8182 8.18046 24.0002 9.92921 24.0002 11.998C24.0002 14.0668 23.8296 15.8155 23.8182 15.8841C23.602 17.3657 22.858 18.7172 21.7243 19.6902C21.7243 19.6902 20.3246 20.7646 18.6062 21.8047C16.8878 22.8448 15.3629 23.5534 15.306 23.5877C14.6375 23.872 13.9163 24.012 13.1894 23.9992Z" fill="#F1516F"/>
    <path d="M0 8.57031H4.55196V9.71329H1.13801V15.4281H0V8.57031Z" fill="#F1516F"/>
    <path d="M9.10363 9.71329C9.55456 9.71329 9.99412 9.84758 10.3682 10.099C10.7423 10.3491 11.0339 10.7062 11.2061 11.1249C11.3796 11.542 11.4237 12.0021 11.3355 12.445C11.2487 12.8879 11.0311 13.2965 10.7139 13.6151C10.3953 13.9351 9.98985 14.1523 9.54746 14.2409C9.10649 14.3295 8.64844 14.2837 8.23307 14.1109C7.81771 13.938 7.46211 13.6451 7.21175 13.2694C6.96139 12.8936 6.8277 12.4507 6.8277 11.9992C6.8277 11.3935 7.06809 10.812 7.49483 10.3834C7.92158 9.95331 8.5005 9.71329 9.10363 9.71329ZM9.10363 8.57031C8.42938 8.57031 7.76938 8.77176 7.2075 9.14751C6.64562 9.52469 6.20891 10.0605 5.95002 10.6862C5.69113 11.3134 5.62424 12.0035 5.7551 12.6679C5.88739 13.3337 6.21316 13.9437 6.68969 14.4238C7.16765 14.9038 7.77505 15.2296 8.43793 15.3624C9.10081 15.4939 9.78643 15.4267 10.4109 15.1667C11.0339 14.9081 11.5674 14.468 11.9429 13.9037C12.317 13.3408 12.5176 12.6779 12.5176 11.9992C12.5176 11.0891 12.1577 10.2176 11.5176 9.5747C10.8775 8.93178 10.0098 8.57031 9.10363 8.57031Z" fill="#F1516F"/>
    <path d="M17.0702 15.4284C16.5297 15.4269 15.9963 15.2969 15.514 15.0469C15.0332 14.7983 14.6179 14.4383 14.3021 13.9954C13.9877 13.5539 13.7815 13.0424 13.7018 12.5052C13.6222 11.9666 13.6705 11.418 13.844 10.9022C14.0176 10.3864 14.3092 9.92066 14.6975 9.54205C15.0859 9.16201 15.5581 8.88198 16.0759 8.72197C16.5937 8.56195 17.1414 8.52766 17.6748 8.62339C18.2068 8.71768 18.7103 8.93913 19.1414 9.26773L18.4472 10.1707C18.0503 9.87208 17.5667 9.71064 17.0702 9.7135C16.7047 9.7135 16.3448 9.80208 16.0204 9.97209C15.6947 10.1421 15.4159 10.3893 15.2068 10.6907C14.9977 10.9922 14.864 11.3394 14.8156 11.7037C14.7687 12.068 14.8099 12.4381 14.9351 12.7838C15.0603 13.1296 15.268 13.4382 15.5382 13.6867C15.8071 13.9353 16.1328 14.1139 16.487 14.2082C16.8412 14.3025 17.2111 14.3111 17.5695 14.2297C17.9266 14.1496 18.258 13.9853 18.5382 13.7482L19.2666 14.6283C18.6506 15.1455 17.8739 15.4298 17.0702 15.4284Z" fill="#F1516F"/>
</svg>