<svg width="24" height="24" viewBox="0 0 24 24" fill="none" xmlns="http://www.w3.org/2000/svg">
<path d="M19 0H5C2 0 0 2.5 0 5V19C0 22.5 3 24.0003 5 24.0003H19C22.5 24.0003 24 21 24 19V5C24 2 21.5 0 19 0Z" fill="#005FF9"/>
<path d="M14.4062 12C14.4062 13.3273 13.3273 14.4062 12 14.4062C10.6727 14.4062 9.59379 13.3273 9.59379 12C9.59379 10.6727 10.6727 9.59379 12 9.59379C13.3273 9.59379 14.4062 10.6727 14.4062 12ZM12 4C7.58939 4 4 7.5894 4 12C4 16.4106 7.58939 20 12 20C13.6166 20 15.1747 19.5197 16.5067 18.6083L16.5301 18.5931L15.4512 17.3396L15.4336 17.3513C14.4086 18.0108 13.2207 18.3599 12 18.3599C8.4926 18.3599 5.64006 15.5074 5.64006 12C5.64006 8.49378 8.4926 5.64007 12 5.64007C15.5074 5.64007 18.3599 8.49378 18.3599 12C18.3599 12.4545 18.3096 12.9149 18.21 13.3671C18.0097 14.193 17.431 14.446 16.9975 14.4121C16.5606 14.3769 16.0498 14.0653 16.0463 13.305V12.7251V12C16.0463 9.76834 14.2317 7.95373 12 7.95373C9.76834 7.95373 7.95373 9.76834 7.95373 12C7.95373 14.2317 9.76834 16.0463 12 16.0463C13.0836 16.0463 14.1005 15.6222 14.8666 14.8525C15.3129 15.546 16.0392 15.9807 16.8651 16.0463C16.9366 16.0521 17.0092 16.0556 17.0807 16.0556C17.6629 16.0556 18.2393 15.8612 18.7044 15.5074C19.1847 15.1442 19.542 14.6171 19.7399 13.9845C19.7716 13.8826 19.8301 13.6483 19.8301 13.6471L19.8313 13.6389C19.9485 13.1316 20 12.6256 20 12C20 7.5894 16.4106 4 12 4Z" fill="#EF9910"/>
</svg>
