<svg width="24" height="24" viewBox="0 0 24 24" fill="none" xmlns="http://www.w3.org/2000/svg">
<path d="M18.7942 12.8057C19.3653 14.0194 18.7167 14.5991 17.2341 15.5893C15.9739 16.4287 14.2336 16.7358 13.115 16.8593L14.0517 17.8314C15.3809 19.196 16.6411 20.5169 17.5222 21.4308C18.8043 22.7572 16.7388 24.8849 15.4584 23.5876L11.9879 19.9773C10.6603 21.3563 9.38666 22.6773 8.51902 23.5912C7.23526 24.894 5.17145 22.7845 6.44005 21.4363L9.91059 17.8369L10.8608 16.863C9.72866 16.7412 8.0136 16.416 6.76859 15.5947V15.5929C5.28771 14.5972 4.63739 14.0194 5.20177 12.8057C5.54209 12.1171 6.46028 11.5411 7.68339 12.5368C7.68339 12.5368 9.33441 13.9013 11.998 13.9013C14.6615 13.9013 16.3126 12.5368 16.3126 12.5368C17.534 11.5356 18.4572 12.1171 18.7942 12.8057Z" fill="#F4741E"/>
<path d="M11.9991 12C8.69618 12 6 9.31391 6 6.00713C6 2.68608 8.69618 0 11.9991 0C15.3038 0 18 2.68608 18 6.00713C18 9.31391 15.3038 12 11.9991 12ZM11.9991 3.0428C10.3759 3.0428 9.05271 4.36801 9.05271 6.00713C9.05271 7.63198 10.3759 8.95718 11.9991 8.95718C13.6223 8.95718 14.9456 7.63198 14.9456 6.00713C14.9473 4.36801 13.624 3.0428 11.9991 3.0428Z" fill="#F4741E"/>
</svg>
