<svg xmlns="http://www.w3.org/2000/svg" width="24" height="24" viewBox="0 0 40 40">
  <defs><style>.cl{fill:#DCDCDC;stroke:#000000;stroke-width:0.3;}</style></defs>
  <g>
    <path class="cl" d="M39.6,35.14L31,26.5a3.24,3.24,0,0,0-3-.86l-1-1a15.15,15.15,0,1,0-2.29,2.3l1,1a3.06,3.06,0,0,0,.78,2.95l8.72,8.77a1.38,1.38,0,0,0,2,0l2.51-2.51A1.38,1.38,0,0,0,39.6,35.14Zm-36.35-20A11.89,11.89,0,1,1,15.14,27,11.89,11.89,0,0,1,3.24,15.14Z"/>
    <path class="cl" d="M20.55,13.52H16.22V9.19a1.62,1.62,0,1,0-3.24,0v4.33H8.65a1.62,1.62,0,1,0,0,3.24H13v4.33a1.62,1.62,0,0,0,3.24,0V16.76h4.33A1.62,1.62,0,1,0,20.55,13.52Z"/>
  </g>
</svg>